<svg viewBox="0 0 25 24" fill="none" height="24" width="25" xmlns="http://www.w3.org/2000/svg" aria-label="" class="bottom-nav-menu__items__item__content__icon kz-icon-s tw-text-n-48-slate"><path xmlns="http://www.w3.org/2000/svg" fill="currentColor" d="M6.47534 12.364C6.05418 12.364 5.70493 12.0148 5.70493 11.5936V8.78929C5.70493 8.36813 6.05418 8.01888 6.47534 8.01888 6.8965 8.01888 7.24576 8.36813 7.24576 8.78929V11.5936C7.24576 12.0148 6.8965 12.364 6.47534 12.364zM18.5143 12.364C18.0932 12.364 17.7439 12.0148 17.7439 11.5936V8.78929C17.7439 8.36813 18.0932 8.01888 18.5143 8.01888 18.9355 8.01888 19.2848 8.36813 19.2848 8.78929V11.5936C19.2848 12.0148 18.9355 12.364 18.5143 12.364zM15.0629 12.1489C14.0254 12.1489 13.368 10.8444 13.368 9.94042 13.368 8.67694 14.6109 8.67694 15.0834 8.67694 15.5559 8.67694 16.7578 8.67694 16.7578 9.94042 16.7578 10.8444 16.1004 12.1489 15.0629 12.1489zM14.7136 10.0226C14.7547 10.3719 14.9807 10.7622 15.104 10.8238 15.1553 10.7622 15.3813 10.3513 15.4224 10.0226 15.1861 10.0021 14.9396 10.0021 14.7136 10.0226z"></path><path xmlns="http://www.w3.org/2000/svg" fill="currentColor" d="M18.1138 21.9897H6.87596C6.5678 21.9897 6.2699 21.8665 6.04391 21.6507C5.81792 21.435 5.70493 21.1269 5.70493 20.8187V12.3647H3.67103C3.36287 12.3647 3.06497 12.2414 2.83898 12.0257C2.61299 11.81 2.5 11.5121 2.5 11.1936V8.76939C2.5 7.04366 3.14715 5.38983 4.32845 4.12635C5.50976 2.87314 7.10195 2.11299 8.82768 2H8.84823C8.84823 2 8.93041 2 8.96122 2H16.0593C16.0593 2 16.0593 2 16.0696 2C16.1004 2 16.1415 2 16.1518 2C17.8775 2.11299 19.48 2.87314 20.6613 4.13662C21.8426 5.4001 22.4897 7.04366 22.4897 8.77966V11.2039C22.4897 11.5121 22.3665 11.81 22.1507 12.036C21.935 12.2517 21.6269 12.3749 21.3187 12.3749H19.2848V20.829C19.2848 21.1371 19.1615 21.435 18.9458 21.661C18.7301 21.887 18.4219 22 18.1138 22V21.9897ZM7.24576 20.4489H17.744L17.7439 11.5936C17.7439 11.1724 18.0932 10.8238 18.5144 10.8238H20.9592V8.76939C20.9592 7.434 20.4558 6.16025 19.5416 5.18439C18.7096 4.2907 17.6002 3.72573 16.3983 3.57165C16.2237 4.4037 15.7922 5.16384 15.1554 5.72881C13.6967 7.03339 11.3238 7.03339 9.8549 5.72881C9.21803 5.15357 8.77632 4.4037 8.61197 3.57165C7.41012 3.72573 6.30072 4.30098 5.4584 5.19466C4.54417 6.17052 4.04083 7.44427 4.04083 8.77966V10.8341H6.48562C6.90678 10.8341 7.25603 11.1834 7.25603 11.6045V20.4592L7.24576 20.4489ZM10.1836 3.54083C10.3172 3.94145 10.5534 4.30098 10.8719 4.57833C11.7655 5.37956 13.2242 5.37956 14.1179 4.57833C14.4363 4.2907 14.6726 3.94145 14.8061 3.54083H10.1836Z"></path></svg>
