
<svg width="24" height="24" viewBox="0 0 24 24" fill="none" xmlns="http://www.w3.org/2000/svg">
<path d="M7.56306 15.647V15.0142L8.69308 14.8735V9.39418L7.54297 9.41427V8.79653L9.68248 8.33447V14.8735L10.8075 15.0142V15.647H7.56306Z" fill="#C7C7CC"/>
<path d="M14.0368 15.7524C13.558 15.7524 13.1395 15.6738 12.7812 15.5164C12.4263 15.3557 12.1501 15.1213 11.9526 14.8133C11.755 14.5019 11.6562 14.1202 11.6562 13.6682C11.6562 13.2563 11.7801 12.8931 12.0279 12.5783C12.2757 12.2636 12.6105 12.0326 13.0324 11.8853C12.6674 11.7446 12.3811 11.532 12.1735 11.2474C11.966 10.9595 11.8622 10.6247 11.8622 10.243C11.8622 9.81438 11.9526 9.4511 12.1334 9.15311C12.3142 8.85177 12.567 8.62242 12.8917 8.46505C13.2165 8.30769 13.5949 8.229 14.0268 8.229C14.4554 8.229 14.8337 8.30769 15.1618 8.46505C15.49 8.62242 15.7461 8.85177 15.9302 9.15311C16.1177 9.4511 16.2115 9.81438 16.2115 10.243C16.2115 10.6247 16.1044 10.9595 15.8901 11.2474C15.6758 11.532 15.3862 11.7446 15.0212 11.8853C15.4431 12.0326 15.7796 12.2636 16.0307 12.5783C16.2852 12.8931 16.4124 13.2563 16.4124 13.6682C16.4124 14.1202 16.3119 14.5019 16.111 14.8133C15.9102 15.1213 15.6306 15.3557 15.2723 15.5164C14.9174 15.6738 14.5056 15.7524 14.0368 15.7524ZM14.0368 14.979C14.3114 14.979 14.5525 14.9254 14.76 14.8183C14.971 14.7111 15.135 14.5588 15.2522 14.3613C15.3694 14.1604 15.428 13.9226 15.428 13.6481C15.428 13.3802 15.3677 13.1425 15.2472 12.9349C15.1267 12.7273 14.9609 12.5649 14.75 12.4478C14.5391 12.3306 14.298 12.272 14.0268 12.272C13.7556 12.272 13.5162 12.3306 13.3086 12.4478C13.101 12.5649 12.9386 12.7273 12.8214 12.9349C12.7042 13.1392 12.6456 13.3769 12.6456 13.6481C12.6456 14.0633 12.7712 14.3897 13.0223 14.6274C13.2768 14.8618 13.615 14.979 14.0368 14.979ZM14.0368 11.4935C14.2679 11.4935 14.4721 11.4433 14.6496 11.3428C14.8304 11.239 14.971 11.0951 15.0714 10.9109C15.1719 10.7268 15.2221 10.5108 15.2221 10.263C15.2221 10.022 15.1702 9.80769 15.0664 9.62019C14.9626 9.42934 14.8203 9.28034 14.6395 9.1732C14.4621 9.06271 14.2578 9.00746 14.0268 9.00746C13.6752 9.00746 13.3906 9.12298 13.173 9.354C12.9587 9.58168 12.8516 9.8847 12.8516 10.263C12.8516 10.6347 12.9604 10.9327 13.178 11.157C13.3956 11.3813 13.6819 11.4935 14.0368 11.4935Z" fill="#C7C7CC"/>
<path d="M7.56306 15.647V15.0142L8.69308 14.8735V9.39418L7.54297 9.41427V8.79653L9.68248 8.33447V14.8735L10.8075 15.0142V15.647H7.56306Z" stroke="#C7C7CC" stroke-width="0.457143" stroke-linejoin="round"/>
<path d="M14.0368 15.7524C13.558 15.7524 13.1395 15.6738 12.7812 15.5164C12.4263 15.3557 12.1501 15.1213 11.9526 14.8133C11.755 14.5019 11.6562 14.1202 11.6562 13.6682C11.6562 13.2563 11.7801 12.8931 12.0279 12.5783C12.2757 12.2636 12.6105 12.0326 13.0324 11.8853C12.6674 11.7446 12.3811 11.532 12.1735 11.2474C11.966 10.9595 11.8622 10.6247 11.8622 10.243C11.8622 9.81438 11.9526 9.4511 12.1334 9.15311C12.3142 8.85177 12.567 8.62242 12.8917 8.46505C13.2165 8.30769 13.5949 8.229 14.0268 8.229C14.4554 8.229 14.8337 8.30769 15.1618 8.46505C15.49 8.62242 15.7461 8.85177 15.9302 9.15311C16.1177 9.4511 16.2115 9.81438 16.2115 10.243C16.2115 10.6247 16.1044 10.9595 15.8901 11.2474C15.6758 11.532 15.3862 11.7446 15.0212 11.8853C15.4431 12.0326 15.7796 12.2636 16.0307 12.5783C16.2852 12.8931 16.4124 13.2563 16.4124 13.6682C16.4124 14.1202 16.3119 14.5019 16.111 14.8133C15.9102 15.1213 15.6306 15.3557 15.2723 15.5164C14.9174 15.6738 14.5056 15.7524 14.0368 15.7524ZM14.0368 14.979C14.3114 14.979 14.5525 14.9254 14.76 14.8183C14.971 14.7111 15.135 14.5588 15.2522 14.3613C15.3694 14.1604 15.428 13.9226 15.428 13.6481C15.428 13.3802 15.3677 13.1425 15.2472 12.9349C15.1267 12.7273 14.9609 12.5649 14.75 12.4478C14.5391 12.3306 14.298 12.272 14.0268 12.272C13.7556 12.272 13.5162 12.3306 13.3086 12.4478C13.101 12.5649 12.9386 12.7273 12.8214 12.9349C12.7042 13.1392 12.6456 13.3769 12.6456 13.6481C12.6456 14.0633 12.7712 14.3897 13.0223 14.6274C13.2768 14.8618 13.615 14.979 14.0368 14.979ZM14.0368 11.4935C14.2679 11.4935 14.4721 11.4433 14.6496 11.3428C14.8304 11.239 14.971 11.0951 15.0714 10.9109C15.1719 10.7268 15.2221 10.5108 15.2221 10.263C15.2221 10.022 15.1702 9.80769 15.0664 9.62019C14.9626 9.42934 14.8203 9.28034 14.6395 9.1732C14.4621 9.06271 14.2578 9.00746 14.0268 9.00746C13.6752 9.00746 13.3906 9.12298 13.173 9.354C12.9587 9.58168 12.8516 9.8847 12.8516 10.263C12.8516 10.6347 12.9604 10.9327 13.178 11.157C13.3956 11.3813 13.6819 11.4935 14.0368 11.4935Z" stroke="#C7C7CC" stroke-width="0.457143" stroke-linejoin="round"/>
<path d="M19.636 6.99735V1.85449H20.5088V6.99735H19.636ZM17.501 4.86228V3.98956H22.6438V4.86228H17.501Z" fill="#C7C7CC" stroke="#C7C7CC" stroke-width="0.914286" stroke-linejoin="round"/>
<path d="M23.5868 8.87828C24.2795 11.4494 24.0974 14.1779 23.0691 16.6341C22.0408 19.0903 20.2247 21.1348 17.9069 22.4455C15.589 23.7562 12.9011 24.2588 10.2662 23.8741C7.63135 23.4894 5.1993 22.2392 3.353 20.3204C1.5067 18.4017 0.351043 15.9233 0.0679897 13.2756C-0.215063 10.6279 0.390571 7.96123 1.78953 5.69554C3.18849 3.42984 5.3013 1.6938 7.79528 0.76077C10.2893 -0.172256 13.0227 -0.249265 15.5653 0.541869L15.1095 2.00662C12.892 1.31662 10.5079 1.38378 8.33278 2.19753C6.15762 3.01129 4.3149 4.5254 3.09478 6.50147C1.87466 8.47753 1.34645 10.8033 1.59331 13.1125C1.84018 15.4218 2.84811 17.5833 4.45839 19.2568C6.06866 20.9303 8.18981 22.0206 10.4878 22.3562C12.7859 22.6917 15.1302 22.2534 17.1518 21.1102C19.1733 19.967 20.7572 18.1839 21.6541 16.0417C22.5509 13.8995 22.7098 11.5198 22.1056 9.27734L23.5868 8.87828Z" fill="#C7C7CC"/>
</svg>
