<svg xmlns="http://www.w3.org/2000/svg" xmlns:xlink="http://www.w3.org/1999/xlink" width="1080" zoomAndPan="magnify" viewBox="0 0 810 809.999993" height="1080" preserveAspectRatio="xMidYMid meet" version="1.0"><path fill="#d60510" d="M 171.839844 526.238281 L 169.90625 539.941406 C 169.203125 546.792969 174.476562 552.59375 181.503906 552.59375 L 628.496094 552.59375 C 635.523438 552.59375 640.796875 546.792969 640.09375 539.941406 L 638.160156 526.238281 C 637.105469 515.519531 644.835938 505.679688 655.554688 504.625 C 666.273438 503.394531 675.761719 511.300781 676.992188 522.019531 L 678.574219 535.375 C 682.085938 565.242188 665.21875 591.421875 634.996094 591.421875 L 175.003906 591.421875 C 144.78125 591.421875 127.914062 565.242188 131.425781 535.375 L 133.007812 522.019531 C 134.238281 511.300781 143.726562 503.394531 154.445312 504.625 C 165.164062 505.679688 172.894531 515.519531 171.839844 526.238281 Z M 171.839844 526.238281 " fill-opacity="1" fill-rule="nonzero"/><path fill="#000000" d="M 638.863281 282.886719 C 638.863281 300.984375 632.363281 311.347656 621.820312 324 L 620.765625 325.40625 L 622.171875 326.285156 C 643.257812 339.109375 658.015625 358.613281 659.246094 386.023438 C 660.828125 426.789062 626.210938 460.347656 585.273438 460.347656 L 477.214844 460.347656 C 466.671875 460.347656 458.238281 451.5625 458.238281 440.84375 L 458.238281 231.226562 C 458.238281 220.507812 466.671875 211.722656 477.214844 211.722656 L 566.472656 212.074219 C 605.304688 212.074219 638.863281 240.539062 638.863281 282.886719 Z M 585.097656 422.570312 C 606.886719 422.570312 624.105469 406.757812 623.753906 385.847656 C 623.226562 364.585938 603.898438 350.707031 582.109375 350.707031 L 538.359375 350.707031 C 528.695312 350.707031 520.789062 342.625 520.789062 332.609375 C 520.789062 322.417969 528.695312 314.335938 538.359375 314.335938 L 567.703125 314.335938 C 587.382812 313.632812 602.492188 301.683594 603.546875 283.0625 C 604.425781 263.03125 587.382812 248.09375 566.296875 248.09375 L 495.3125 248.09375 L 495.136719 422.570312 Z M 585.097656 422.570312 " fill-opacity="1" fill-rule="evenodd"/><path fill="#000000" d="M 290.617188 388.484375 L 291.144531 389.890625 L 291.671875 388.484375 C 296.765625 374.601562 302.738281 359.492188 309.242188 342.800781 C 315.800781 325.230469 322.359375 308.480469 328.917969 292.546875 C 335.597656 276.207031 341.921875 261.800781 347.894531 249.148438 C 353.871094 236.324219 358.789062 227.539062 362.65625 222.617188 C 368.511719 215.589844 376.300781 212.015625 386.023438 211.898438 L 390.59375 211.898438 C 396.566406 211.898438 401.132812 213.480469 404.648438 216.46875 C 407.8125 219.28125 409.683594 222.5 410.269531 226.132812 L 438.207031 442.777344 C 438.207031 448.398438 436.625 452.617188 433.464844 455.777344 C 430.300781 458.824219 425.734375 460.347656 419.757812 460.347656 C 413.902344 460.347656 409.21875 458.941406 405.703125 456.128906 C 401.953125 453.4375 399.789062 449.863281 399.203125 445.414062 C 398.265625 438.148438 397.386719 430.125 396.566406 421.339844 C 395.335938 412.554688 390.945312 374.777344 389.714844 365.289062 C 388.660156 355.453125 380.753906 294.304688 378.117188 272.167969 L 377.765625 270.234375 L 368.804688 289.035156 C 365.875 295.476562 362.597656 303.207031 358.964844 312.226562 C 355.449219 321.1875 351.761719 330.851562 348.070312 340.867188 C 344.207031 350.53125 326.988281 400.082031 326.988281 400.082031 C 325.40625 404.472656 322.242188 413.433594 319.605469 421.867188 C 316.796875 430.125 314.160156 437.503906 313.457031 438.910156 C 309.417969 447.167969 301.335938 452.441406 291.320312 452.617188 C 280.953125 452.617188 272.871094 447.167969 268.828125 438.910156 C 268.125 437.503906 265.488281 430.125 262.855469 421.867188 C 260.042969 413.433594 257.054688 404.472656 255.300781 400.082031 C 255.300781 400.082031 238.082031 350.53125 234.214844 340.867188 C 230.582031 330.792969 226.953125 321.246094 223.320312 312.226562 C 219.691406 303.207031 216.410156 295.476562 213.480469 289.035156 L 204.519531 270.234375 L 204.34375 272.167969 C 201.535156 294.304688 193.800781 355.453125 192.574219 365.289062 C 191.34375 374.777344 186.949219 412.554688 185.894531 421.339844 C 184.957031 430.125 184.023438 438.148438 183.085938 445.414062 C 182.5 449.863281 180.332031 453.4375 176.582031 456.128906 C 173.1875 458.941406 168.5 460.347656 162.527344 460.347656 C 156.554688 460.347656 152.160156 458.765625 148.996094 455.777344 C 145.835938 452.617188 144.253906 448.28125 144.253906 442.777344 L 172.015625 226.132812 C 172.71875 222.441406 174.476562 219.28125 177.8125 216.46875 C 181.152344 213.480469 185.894531 211.898438 191.871094 211.898438 L 196.261719 211.898438 C 206.101562 211.898438 213.832031 215.589844 219.808594 222.617188 C 223.554688 227.421875 228.476562 236.265625 234.566406 249.148438 C 240.539062 261.800781 246.867188 276.207031 253.542969 292.546875 C 260.101562 308.480469 266.660156 325.230469 273.222656 342.800781 C 279.546875 359.492188 285.695312 374.601562 290.617188 388.484375 Z M 290.617188 388.484375 " fill-opacity="1" fill-rule="nonzero"/><path fill="#d60510" d="M 233.335938 80.824219 L 572.796875 80.824219 C 604.777344 80.824219 620.765625 104.894531 624.457031 136.523438 L 626.035156 146.714844 C 627.089844 157.605469 619.183594 167.269531 608.464844 168.5 C 597.75 169.554688 588.085938 161.648438 587.03125 150.753906 L 585.625 141.089844 C 584.21875 129.144531 579.125 119.832031 566.824219 119.832031 L 239.308594 119.832031 C 227.011719 119.832031 221.914062 129.144531 220.507812 141.089844 L 219.28125 150.753906 C 218.050781 161.648438 208.5625 169.554688 197.667969 168.5 C 186.949219 167.269531 179.042969 157.605469 180.273438 146.714844 L 181.679688 136.523438 C 185.367188 104.894531 201.359375 80.824219 233.335938 80.824219 Z M 233.335938 80.824219 " fill-opacity="1" fill-rule="nonzero"/><path fill="#000000" d="M 322.066406 670.488281 C 320.425781 676.582031 318.789062 683.140625 317.148438 690.167969 C 315.390625 697.082031 313.632812 703.699219 311.875 710.023438 C 310.238281 716.347656 308.65625 721.914062 307.132812 726.714844 C 305.609375 731.519531 304.378906 734.796875 303.441406 736.554688 C 301.683594 739.601562 298.582031 741.125 294.128906 741.125 C 292.839844 741.125 291.203125 740.890625 289.210938 740.421875 C 287.21875 739.953125 285.519531 738.546875 284.113281 736.203125 C 283.179688 734.445312 281.949219 730.992188 280.425781 725.835938 C 278.902344 720.683594 277.320312 714.769531 275.679688 708.089844 C 274.042969 701.414062 272.34375 694.386719 270.585938 687.007812 C 269.003906 679.453125 267.421875 672.597656 266.015625 666.273438 C 264.789062 659.773438 263.558594 654.324219 262.679688 649.933594 C 261.800781 645.363281 261.273438 642.730469 261.273438 641.675781 C 261.15625 641.207031 261.097656 640.855469 261.097656 640.621094 L 261.097656 639.917969 C 261.097656 638.042969 261.800781 636.519531 263.207031 635.347656 C 264.613281 634.179688 266.425781 633.59375 268.652344 633.59375 C 270.644531 633.59375 272.226562 634.003906 273.398438 634.820312 C 274.683594 635.640625 275.5625 637.105469 276.03125 639.214844 C 276.148438 639.449219 276.5 641.089844 277.085938 644.132812 C 277.671875 647.0625 278.433594 650.871094 279.371094 655.554688 C 280.308594 660.242188 281.363281 665.453125 282.535156 671.191406 C 283.703125 677.050781 284.933594 682.964844 286.222656 688.9375 C 287.511719 694.796875 288.800781 700.535156 290.089844 706.160156 C 291.378906 711.664062 292.605469 716.40625 293.777344 720.390625 C 294.832031 716.640625 296.0625 712.367188 297.46875 707.5625 C 298.757812 702.644531 300.046875 697.605469 301.335938 692.453125 C 302.738281 687.300781 304.027344 682.144531 305.199219 676.992188 C 306.488281 671.835938 307.660156 667.035156 308.714844 662.582031 C 309.769531 658.132812 310.644531 654.207031 311.347656 650.8125 C 312.167969 647.296875 312.8125 644.71875 313.28125 643.082031 C 313.867188 640.972656 314.921875 639.332031 316.445312 638.160156 C 317.96875 636.871094 319.839844 636.226562 322.066406 636.226562 C 324.527344 636.226562 326.578125 636.871094 328.21875 638.160156 C 329.621094 639.390625 330.675781 641.148438 331.203125 643.082031 C 332.375 648.585938 333.722656 654.675781 335.246094 661.355469 C 336.652344 668.03125 338.113281 674.824219 339.636719 681.734375 C 341.277344 688.644531 342.917969 695.441406 344.558594 702.117188 C 346.199219 708.675781 347.835938 714.535156 349.476562 719.6875 C 350.53125 715.703125 351.703125 710.902344 352.992188 705.28125 C 354.28125 699.65625 355.570312 693.917969 356.855469 688.0625 C 358.261719 682.203125 359.550781 676.40625 360.722656 670.664062 C 362.011719 664.808594 363.125 659.597656 364.0625 655.027344 C 365.113281 650.460938 365.933594 646.710938 366.519531 643.78125 C 367.222656 640.855469 367.515625 639.332031 367.398438 639.214844 C 367.984375 637.105469 368.921875 635.640625 370.210938 634.820312 C 371.382812 634.003906 372.964844 633.59375 374.953125 633.59375 C 377.0625 633.59375 378.878906 634.179688 380.402344 635.347656 C 381.808594 636.519531 382.507812 638.042969 382.507812 639.917969 L 382.507812 640.621094 C 382.507812 640.855469 382.453125 641.265625 382.335938 641.851562 C 382.335938 642.730469 381.808594 645.363281 380.753906 649.933594 C 379.875 654.324219 378.644531 659.773438 377.414062 666.273438 C 376.007812 672.597656 374.484375 679.453125 372.847656 686.832031 C 371.207031 694.210938 369.566406 701.238281 367.925781 707.914062 C 366.285156 714.59375 364.703125 720.507812 363.183594 725.660156 C 361.660156 730.699219 360.429688 734.09375 359.492188 735.851562 C 358.085938 738.195312 356.386719 739.660156 354.398438 740.246094 C 352.289062 740.832031 350.648438 741.125 349.476562 741.125 C 348.949219 741.125 348.421875 741.125 347.367188 740.949219 C 346.546875 740.832031 345.613281 740.597656 344.558594 740.246094 C 343.621094 740.011719 342.625 739.542969 341.570312 738.839844 C 340.515625 738.019531 339.753906 737.023438 339.285156 735.851562 C 338.230469 733.742188 337.003906 730.230469 335.597656 725.308594 C 334.191406 720.390625 332.726562 714.886719 331.203125 708.792969 C 329.5625 702.585938 327.925781 696.144531 326.285156 689.464844 C 324.761719 682.671875 323.355469 676.347656 322.066406 670.492188 Z M 322.066406 670.488281 " fill-opacity="1" fill-rule="nonzero"/><path fill="#000000" d="M 409.566406 710.375 C 407.8125 715.644531 406.289062 720.566406 405 725.132812 C 403.710938 729.703125 402.539062 733.449219 401.484375 736.378906 C 400.199219 739.542969 397.738281 741.125 394.105469 741.125 C 391.527344 741.125 389.65625 740.480469 388.484375 739.191406 C 387.3125 737.902344 386.726562 736.261719 386.726562 734.269531 C 386.726562 733.566406 386.84375 732.867188 387.078125 732.164062 C 387.3125 731.460938 388.015625 729.175781 389.1875 725.308594 C 390.359375 721.445312 391.878906 716.640625 393.753906 710.902344 C 395.628906 705.046875 397.738281 698.660156 400.082031 691.75 C 402.304688 684.957031 404.648438 678.164062 407.109375 671.367188 C 409.566406 664.691406 411.96875 658.425781 414.3125 652.566406 C 416.65625 646.710938 418.820312 642.027344 420.8125 638.511719 C 421.75 636.636719 422.980469 635.347656 424.503906 634.644531 C 426.027344 633.945312 428.074219 633.59375 430.652344 633.59375 C 433.113281 633.59375 435.164062 634.003906 436.800781 634.820312 C 438.558594 635.640625 439.789062 636.988281 440.492188 638.863281 C 442.015625 642.144531 443.890625 646.59375 446.113281 652.21875 C 448.222656 657.839844 450.507812 663.929688 452.96875 670.488281 C 455.308594 676.933594 457.652344 683.550781 459.996094 690.34375 C 462.339844 697.140625 464.503906 703.464844 466.496094 709.320312 C 468.371094 715.0625 470.011719 720.039062 471.417969 724.253906 C 472.820312 728.355469 473.699219 730.992188 474.050781 732.164062 C 474.285156 732.867188 474.402344 733.566406 474.402344 734.269531 C 474.402344 736.261719 473.757812 737.902344 472.472656 739.191406 C 471.066406 740.480469 469.074219 741.125 466.496094 741.125 C 464.621094 741.125 463.21875 740.714844 462.28125 739.894531 C 461.34375 739.074219 460.582031 737.902344 459.996094 736.378906 C 458.941406 733.449219 457.652344 729.703125 456.128906 725.132812 C 454.609375 720.566406 453.027344 715.644531 451.386719 710.375 Z M 446.640625 695.792969 Z M 439.964844 675.9375 C 437.855469 669.847656 435.691406 664.105469 433.464844 658.71875 C 432.761719 657.488281 432.234375 656.082031 431.707031 654.324219 C 431.003906 652.800781 430.59375 651.867188 430.476562 651.515625 C 430.359375 651.632812 430.007812 652.511719 429.421875 654.148438 C 428.835938 655.90625 428.25 657.371094 427.664062 658.542969 C 425.441406 664.046875 423.273438 669.847656 421.164062 675.9375 C 419.171875 681.910156 417.007812 688.527344 414.664062 695.792969 L 446.640625 695.792969 C 444.300781 688.527344 442.074219 681.910156 439.964844 675.9375 Z M 439.964844 675.9375 " fill-opacity="1" fill-rule="evenodd"/><path fill="#000000" d="M 503.394531 699.128906 C 502.808594 698.542969 502.28125 697.957031 501.8125 697.375 C 501.226562 696.671875 500.699219 695.851562 500.230469 694.914062 C 498.652344 692.804688 496.894531 690.167969 495.136719 686.832031 C 493.261719 683.667969 491.386719 680.328125 489.515625 676.816406 C 487.640625 673.300781 485.882812 669.730469 484.242188 666.097656 C 482.484375 662.464844 480.90625 659.128906 479.5 656.082031 C 478.09375 652.917969 476.921875 650.226562 475.984375 648 C 474.929688 645.65625 474.285156 644.015625 474.050781 643.082031 C 473.816406 642.613281 473.699219 642.203125 473.699219 641.851562 C 473.582031 641.617188 473.523438 641.207031 473.523438 640.621094 C 473.523438 638.628906 474.226562 636.988281 475.632812 635.699219 C 477.039062 634.292969 478.972656 633.59375 481.429688 633.59375 C 483.65625 633.59375 485.238281 634.179688 486.175781 635.347656 C 487.230469 636.402344 487.933594 637.457031 488.285156 638.6875 C 488.460938 639.214844 488.988281 640.445312 489.867188 642.378906 C 490.683594 644.25 491.738281 646.535156 493.027344 649.230469 C 494.199219 652.042969 495.605469 655.144531 497.246094 658.542969 C 498.828125 661.878906 500.230469 665.042969 501.988281 668.382812 C 503.511719 671.542969 505.035156 674.589844 506.558594 677.519531 C 508.082031 680.445312 509.542969 682.90625 510.949219 684.898438 C 513.058594 681.617188 515.34375 677.519531 517.800781 672.597656 C 520.261719 667.679688 522.605469 662.875 524.832031 658.191406 C 527.054688 653.386719 528.988281 649.171875 530.628906 645.539062 C 532.152344 641.792969 533.089844 639.507812 533.441406 638.6875 C 533.910156 637.515625 534.613281 636.402344 535.546875 635.347656 C 536.484375 634.179688 538.066406 633.59375 540.292969 633.59375 C 542.753906 633.59375 544.683594 634.292969 546.089844 635.699219 C 547.496094 636.988281 548.199219 638.628906 548.199219 640.621094 C 548.199219 641.207031 548.199219 641.617188 548.199219 641.851562 C 548.082031 642.085938 547.90625 642.496094 547.671875 643.082031 C 547.320312 644.015625 546.675781 645.65625 545.738281 648 C 544.800781 650.34375 543.632812 653.035156 542.226562 656.082031 C 540.9375 659.246094 539.414062 662.640625 537.65625 666.273438 C 535.898438 669.90625 534.085938 673.476562 532.210938 676.992188 C 530.453125 680.503906 528.636719 683.902344 526.761719 687.183594 C 524.890625 690.34375 523.191406 693.039062 521.667969 695.265625 C 520.613281 696.789062 519.558594 698.074219 518.503906 699.128906 L 518.503906 733.742188 C 518.503906 735.96875 517.800781 737.785156 516.398438 739.191406 C 514.992188 740.421875 513.234375 741.125 510.949219 741.125 C 508.722656 741.125 506.910156 740.480469 505.503906 739.191406 C 504.097656 737.785156 503.394531 735.96875 503.394531 733.742188 Z M 503.394531 699.128906 " fill-opacity="1" fill-rule="nonzero"/></svg>