<svg width="72" height="49" viewBox="0 0 72 49" fill="none" xmlns="http://www.w3.org/2000/svg"><path d="M11.3494 27.8844C11.0602 27.6675 10.6988 27.5229 10.3373 27.4506C9.9759 27.3061 9.61446 27.3061 9.25301 27.3061C9.03614 27.3061 8.81928 27.3061 8.60241 27.3784C8.38554 27.4506 8.24096 27.5229 8.09639 27.5952C7.95181 27.6675 7.80723 27.8121 7.73494 27.9567C7.66265 28.1012 7.59036 28.2458 7.59036 28.3904C7.59036 28.535 7.59036 28.6796 7.66265 28.7518C7.73494 28.8241 7.80723 28.9687 7.95181 29.041C8.09639 29.1133 8.24096 29.1856 8.45783 29.2579C8.6747 29.3302 8.89157 29.3302 9.10843 29.4025L9.61446 29.4747C9.90361 29.547 10.1928 29.547 10.4819 29.6916C10.7711 29.7639 10.988 29.9085 11.2048 30.0531C11.4217 30.1976 11.6386 30.4145 11.7108 30.6314C11.8554 30.8482 11.9277 31.1374 11.9277 31.4988C11.9277 31.8603 11.8554 32.2217 11.7108 32.5109C11.5663 32.8 11.3494 33.0169 11.0602 33.2338C10.7711 33.4506 10.4819 33.5952 10.1205 33.6675C9.75904 33.7398 9.39759 33.8121 8.96386 33.8121C8.74699 33.8121 8.45783 33.8121 8.16867 33.7398C7.87952 33.6675 7.66265 33.6675 7.37349 33.5229C7.08434 33.4506 6.86747 33.3061 6.6506 33.2338C6.43373 33.0892 6.21687 32.9446 6 32.8L6.6506 31.8603C6.79518 32.0049 6.93976 32.0771 7.08434 32.1494C7.22892 32.2217 7.44578 32.3663 7.66265 32.4386C7.87952 32.5109 8.09639 32.5832 8.31325 32.5832C8.53012 32.6555 8.74699 32.6555 8.96386 32.6555C9.18072 32.6555 9.39759 32.6555 9.61446 32.5832C9.83133 32.5109 9.9759 32.4386 10.1205 32.3663C10.2651 32.294 10.4096 32.1494 10.4819 32.0049C10.5542 31.8603 10.6265 31.7157 10.6265 31.5711C10.6265 31.282 10.4819 31.0651 10.1928 30.9205C9.90361 30.7759 9.46988 30.6314 8.96386 30.5591L8.60241 30.4868C8.31325 30.4145 8.09639 30.4145 7.80723 30.2699C7.51807 30.1976 7.3012 30.0531 7.08434 29.9085C6.86747 29.7639 6.72289 29.547 6.57831 29.3302C6.43374 29.1133 6.36145 28.8241 6.36145 28.4627C6.36145 28.1012 6.43374 27.7398 6.57831 27.5229C6.72289 27.2338 6.93976 27.0169 7.22892 26.8C7.51807 26.5832 7.80723 26.4386 8.16867 26.3663C8.53012 26.294 8.89157 26.2217 9.25301 26.2217C9.75904 26.2217 10.2651 26.294 10.6988 26.4386C11.1325 26.5832 11.494 26.8 11.9277 27.0169L11.3494 27.8844ZM15.3976 28.4627C15.759 28.4627 16.0482 28.535 16.3373 28.6796C16.6265 28.8241 16.8434 28.9687 17.0602 29.1856C17.2771 29.4025 17.4217 29.6916 17.5663 29.9808C17.7108 30.2699 17.7108 30.6314 17.7108 31.0651C17.7108 31.1374 17.7108 31.2097 17.7108 31.282C17.7108 31.3543 17.7108 31.4265 17.7108 31.4988H14.0241C14.0241 31.7157 14.0964 31.9326 14.241 32.0771C14.3133 32.2217 14.4578 32.3663 14.6024 32.4386C14.747 32.5109 14.8916 32.5832 15.0361 32.6555C15.1807 32.7278 15.3976 32.7278 15.5422 32.7278C15.759 32.7278 16.0482 32.6555 16.2651 32.5832C16.4819 32.5109 16.7711 32.3663 16.988 32.2217L17.5663 33.0169C17.2771 33.3061 16.9157 33.4506 16.6265 33.5952C16.2651 33.6675 15.9036 33.7398 15.5422 33.7398C15.1807 33.7398 14.8193 33.6675 14.5301 33.5229C14.241 33.3784 13.9518 33.2338 13.7349 33.0169C13.5181 32.8 13.3012 32.5109 13.2289 32.2217C13.0843 31.9326 13.012 31.5711 13.012 31.1374C13.012 30.7759 13.0843 30.4145 13.2289 30.0531C13.3735 29.7639 13.5181 29.4747 13.7349 29.1856C13.9518 28.9687 14.241 28.7518 14.5301 28.6796C14.6747 28.535 14.9639 28.4627 15.3976 28.4627ZM15.3253 29.4747C15.1084 29.4747 14.9639 29.4747 14.8193 29.547C14.6747 29.6193 14.5301 29.6916 14.4578 29.8362C14.3133 29.9808 14.241 30.0531 14.1687 30.1976C14.0964 30.3422 14.0241 30.4868 14.0241 30.7037H16.6265C16.5542 30.3422 16.4096 29.9808 16.1928 29.7639C15.9759 29.547 15.6867 29.4747 15.3253 29.4747ZM21.1084 28.4627C21.4699 28.4627 21.8313 28.535 22.1205 28.6796C22.4096 28.8241 22.6988 29.041 22.9157 29.2579L22.1928 29.9808C22.0482 29.8362 21.8313 29.6916 21.6145 29.6193C21.3976 29.547 21.1807 29.4747 20.9639 29.4747C20.747 29.4747 20.5301 29.547 20.3855 29.6193C20.1687 29.6916 20.0241 29.8362 19.9518 29.9808C19.8072 30.1253 19.7349 30.2699 19.6627 30.4868C19.5904 30.7037 19.5181 30.9205 19.5181 31.1374C19.5181 31.3543 19.5904 31.5711 19.6627 31.788C19.7349 32.0049 19.8072 32.1494 19.9518 32.294C20.0964 32.4386 20.241 32.5109 20.3855 32.6555C20.5301 32.7278 20.747 32.8 20.9639 32.8C21.1807 32.8 21.3976 32.7278 21.6145 32.6555C21.8313 32.5832 21.9759 32.4386 22.1928 32.294L22.8434 33.0169C22.6265 33.3061 22.3374 33.4506 22.0482 33.5952C21.759 33.7398 21.3976 33.8121 21.0361 33.8121C20.6747 33.8121 20.3133 33.7398 19.9518 33.5952C19.6627 33.4506 19.3735 33.3061 19.1566 33.0169C18.9398 32.8 18.7229 32.5109 18.6506 32.1494C18.506 31.8603 18.4337 31.4988 18.4337 31.1374C18.4337 30.7759 18.506 30.4145 18.6506 30.1253C18.7952 29.8362 18.9398 29.547 19.1566 29.2579C19.3735 29.041 19.6627 28.8241 19.9518 28.6796C20.3855 28.535 20.747 28.4627 21.1084 28.4627ZM28.6265 31.4988C28.6265 31.8603 28.5542 32.2217 28.4096 32.5109C28.2651 32.8 28.1205 33.0169 27.9036 33.2338C27.6867 33.4506 27.4699 33.5229 27.1807 33.6675C26.8916 33.7398 26.6024 33.8121 26.3133 33.8121C26.0241 33.8121 25.7349 33.7398 25.4458 33.6675C25.1566 33.5952 24.9398 33.4506 24.7229 33.2338C24.506 33.0892 24.3614 32.8 24.2169 32.5109C24.0723 32.2217 24 31.8603 24 31.4988V28.6073H25.0843V31.3543C25.0843 31.5711 25.0843 31.788 25.1566 31.9326C25.2289 32.0771 25.3012 32.2217 25.4458 32.3663C25.5904 32.4386 25.6627 32.5109 25.8072 32.5832C25.9518 32.6555 26.0964 32.6555 26.3133 32.6555C26.4578 32.6555 26.6747 32.6555 26.8193 32.5832C26.9639 32.5109 27.1084 32.4386 27.1807 32.3663C27.3253 32.294 27.3976 32.1494 27.4699 31.9326C27.5422 31.788 27.5422 31.5711 27.5422 31.3543V28.6073H28.6265V31.4988ZM32.6024 28.4627C32.747 28.4627 32.8916 28.4627 33.0361 28.4627C33.1807 28.4627 33.3253 28.535 33.3976 28.535L33.1084 29.6193C32.9639 29.547 32.8916 29.547 32.6747 29.4747C32.5301 29.4747 32.3855 29.4025 32.241 29.4025C32.0964 29.4025 31.8795 29.4025 31.7349 29.4747C31.5904 29.547 31.4458 29.6193 31.3735 29.7639C31.3012 29.9085 31.1566 30.0531 31.1566 30.1976C31.0843 30.3422 31.0843 30.5591 31.0843 30.7759V33.5229H30V28.535H31.0843V29.1133C31.2289 28.8964 31.4458 28.6796 31.7349 28.6073C31.9518 28.535 32.241 28.4627 32.6024 28.4627ZM36.2169 28.4627C36.5783 28.4627 36.8675 28.535 37.1566 28.6796C37.4458 28.8241 37.6626 28.9687 37.8795 29.1856C38.0964 29.4025 38.241 29.6916 38.3855 29.9808C38.5301 30.2699 38.5301 30.6314 38.5301 31.0651C38.5301 31.1374 38.5301 31.2097 38.5301 31.282C38.5301 31.3543 38.5301 31.4265 38.5301 31.4988H34.9157C34.9157 31.7157 34.988 31.9326 35.1325 32.0771C35.2048 32.2217 35.3494 32.3663 35.494 32.4386C35.6386 32.5109 35.7831 32.5832 35.9277 32.6555C36.0723 32.7278 36.2892 32.7278 36.4337 32.7278C36.6506 32.7278 36.9398 32.6555 37.1566 32.5832C37.3735 32.5109 37.6626 32.3663 37.8795 32.2217L38.3855 33.0169C38.0964 33.3061 37.7349 33.4506 37.4458 33.5952C37.0843 33.6675 36.7229 33.7398 36.3614 33.7398C36 33.7398 35.6386 33.6675 35.3494 33.5229C35.0602 33.3784 34.7711 33.2338 34.5542 33.0169C34.3373 32.8 34.1205 32.5109 34.0482 32.2217C33.9036 31.9326 33.8313 31.5711 33.8313 31.1374C33.8313 30.7759 33.9036 30.4145 34.0482 30.0531C34.1928 29.7639 34.3373 29.4747 34.5542 29.1856C34.7711 28.9687 35.0602 28.7518 35.3494 28.6796C35.494 28.535 35.8554 28.4627 36.2169 28.4627ZM36.2169 29.4747C36 29.4747 35.8554 29.4747 35.7108 29.547C35.5663 29.6193 35.4217 29.6916 35.3494 29.8362C35.2048 29.9808 35.1325 30.0531 35.0602 30.1976C34.988 30.3422 34.9157 30.4868 34.9157 30.7037H37.5181C37.4458 30.3422 37.3012 29.9808 37.0843 29.7639C36.8675 29.547 36.5783 29.4747 36.2169 29.4747ZM43.3012 26.1494C43.5904 26.1494 43.9518 26.1494 44.241 26.2217C44.5301 26.294 44.8193 26.3663 45.1084 26.5109C45.3976 26.6555 45.6145 26.8 45.8313 27.0169C46.0482 27.2338 46.1928 27.4506 46.3374 27.6675L45.3253 28.3181C45.1084 27.9567 44.8193 27.7398 44.4578 27.5229C44.0964 27.3061 43.7349 27.2338 43.3012 27.2338C42.9398 27.2338 42.5783 27.3061 42.2892 27.4506C42 27.5952 41.7108 27.7398 41.494 28.029C41.2771 28.2458 41.0602 28.535 40.988 28.8964C40.8434 29.2579 40.7711 29.547 40.7711 29.9808C40.7711 30.3422 40.8434 30.7037 40.988 31.0651C41.1325 31.4265 41.2771 31.6434 41.494 31.9326C41.7108 32.1494 42 32.3663 42.2892 32.4386C42.5783 32.5832 42.9398 32.6555 43.3012 32.6555C43.7349 32.6555 44.0964 32.5832 44.4578 32.3663C44.8193 32.1494 45.1084 31.9326 45.3253 31.5711L46.2651 32.294C46.1205 32.5109 45.9036 32.7278 45.6867 32.9446C45.4699 33.1615 45.253 33.3061 44.9639 33.3784C44.6747 33.5229 44.4578 33.5952 44.1687 33.6675C43.8795 33.7398 43.5904 33.7398 43.2289 33.7398C42.6506 33.7398 42.1446 33.6675 41.7108 33.4506C41.2771 33.2338 40.8434 33.0169 40.4819 32.6555C40.1205 32.294 39.9036 31.9326 39.6867 31.4265C39.4699 30.9928 39.3976 30.4868 39.3976 29.9085C39.3976 29.3302 39.4699 28.8241 39.6867 28.3904C39.9036 27.9567 40.1205 27.5229 40.4819 27.1615C40.8434 26.8 41.2048 26.5832 41.7108 26.3663C42.2169 26.294 42.7229 26.1494 43.3012 26.1494ZM49.7349 28.4627C50.0964 28.4627 50.4578 28.535 50.8193 28.6796C51.1807 28.8241 51.3976 28.9687 51.6867 29.2579C51.9036 29.4747 52.1205 29.7639 52.2651 30.1253C52.4096 30.4145 52.4819 30.7759 52.4819 31.1374C52.4819 31.4988 52.4096 31.8603 52.2651 32.1494C52.1205 32.4386 51.9759 32.7278 51.6867 33.0169C51.4699 33.2338 51.1807 33.4506 50.8193 33.5952C50.4578 33.7398 50.1687 33.8121 49.7349 33.8121C49.3735 33.8121 49.012 33.7398 48.6506 33.5952C48.2892 33.4506 48.0723 33.3061 47.7831 33.0169C47.5663 32.8 47.3494 32.5109 47.2048 32.1494C47.0602 31.8603 46.9879 31.4988 46.9879 31.1374C46.9879 30.7759 47.0602 30.4145 47.2048 30.1253C47.3494 29.8362 47.494 29.547 47.7831 29.2579C48 29.041 48.2892 28.8241 48.6506 28.6796C49.012 28.535 49.3735 28.4627 49.7349 28.4627ZM49.7349 29.4747C49.5181 29.4747 49.3012 29.547 49.0843 29.6193C48.8675 29.6916 48.7229 29.8362 48.5783 29.9808C48.4337 30.1253 48.3614 30.2699 48.2169 30.4868C48.1446 30.7037 48.0723 30.9205 48.0723 31.1374C48.0723 31.3543 48.1446 31.5711 48.2169 31.788C48.2892 32.0049 48.4337 32.1494 48.5783 32.294C48.7229 32.4386 48.8675 32.5109 49.0843 32.6555C49.3012 32.7278 49.5181 32.8 49.7349 32.8C49.9518 32.8 50.1687 32.7278 50.3855 32.6555C50.6024 32.5832 50.747 32.4386 50.8916 32.294C51.0361 32.1494 51.1084 32.0049 51.253 31.788C51.3253 31.5711 51.3976 31.3543 51.3976 31.1374C51.3976 30.9205 51.3253 30.7037 51.253 30.4868C51.1807 30.2699 51.0361 30.1253 50.8916 29.9808C50.747 29.8362 50.6024 29.7639 50.3855 29.6193C50.1687 29.547 49.9518 29.4747 49.7349 29.4747ZM55.7349 28.4627C56.0964 28.4627 56.3855 28.535 56.6747 28.6796C56.9639 28.8241 57.1807 28.9687 57.3253 29.1856V26.0771H58.4096V33.5952H57.3253V33.0169C57.1807 33.2338 56.9639 33.4506 56.6747 33.5229C56.3855 33.6675 56.0964 33.7398 55.7349 33.7398C55.3735 33.7398 55.0843 33.6675 54.7229 33.5229C54.4337 33.3784 54.1446 33.2338 53.9277 32.9446C53.7108 32.7278 53.494 32.4386 53.4217 32.0771C53.2771 31.788 53.2048 31.4265 53.2048 30.9928C53.2048 30.6314 53.2771 30.2699 53.4217 29.9085C53.5663 29.6193 53.7108 29.3302 53.9277 29.041C54.1446 28.8241 54.4337 28.6073 54.7229 28.4627C55.0121 28.535 55.3735 28.4627 55.7349 28.4627ZM55.8072 29.4747C55.5904 29.4747 55.3735 29.547 55.1566 29.6193C54.9398 29.6916 54.7952 29.8362 54.6506 29.9808C54.506 30.1253 54.4337 30.2699 54.3614 30.4868C54.2892 30.7037 54.2892 30.9205 54.2892 31.1374C54.2892 31.3543 54.2892 31.5711 54.3614 31.788C54.4337 32.0049 54.506 32.1494 54.6506 32.294C54.7952 32.4386 54.9398 32.5832 55.1566 32.6555C55.3735 32.7278 55.5181 32.8 55.8072 32.8C56.0241 32.8 56.241 32.7278 56.4578 32.6555C56.6747 32.5832 56.8193 32.4386 56.9639 32.294C57.1084 32.1494 57.1807 32.0049 57.253 31.788C57.3253 31.5711 57.3976 31.3543 57.3976 31.1374C57.3976 30.9205 57.3253 30.7037 57.253 30.4868C57.1807 30.2699 57.1084 30.1253 56.9639 29.9808C56.8193 29.8362 56.6747 29.6916 56.4578 29.6193C56.241 29.547 56.0964 29.4747 55.8072 29.4747ZM62.0241 28.4627C62.3855 28.4627 62.6747 28.535 62.9639 28.6796C63.253 28.8241 63.4699 28.9687 63.6867 29.1856C63.9036 29.4025 64.0482 29.6916 64.1928 29.9808C64.3373 30.2699 64.3373 30.6314 64.3373 31.0651C64.3373 31.1374 64.3373 31.2097 64.3373 31.282C64.3373 31.3543 64.3373 31.4265 64.3373 31.4988H60.6506C60.6506 31.7157 60.7229 31.9326 60.8675 32.0771C60.9398 32.2217 61.0843 32.3663 61.2289 32.4386C61.3735 32.5109 61.5181 32.5832 61.6627 32.6555C61.8072 32.7278 62.0241 32.7278 62.1687 32.7278C62.3855 32.7278 62.6747 32.6555 62.8916 32.5832C63.1084 32.5109 63.3976 32.3663 63.6145 32.2217L64.1205 33.0169C63.8313 33.3061 63.4699 33.4506 63.1807 33.5952C62.8193 33.6675 62.4578 33.7398 62.0964 33.7398C61.7349 33.7398 61.3735 33.6675 61.0843 33.5229C60.7952 33.3784 60.506 33.2338 60.2892 33.0169C60.0723 32.8 59.8554 32.5109 59.7831 32.2217C59.6386 31.9326 59.5663 31.5711 59.5663 31.1374C59.5663 30.7759 59.6386 30.4145 59.7831 30.0531C59.9277 29.7639 60.0723 29.4747 60.2892 29.1856C60.506 28.9687 60.7952 28.7518 61.0843 28.6796C61.3012 28.535 61.6627 28.4627 62.0241 28.4627ZM64.8434 33.5952V33.3784H64.9157V33.3061H64.6265V33.3784H64.6988L64.8434 33.5952ZM65.3494 33.5952V33.3061H65.2771L65.2048 33.5229L65.1325 33.3061H65.0602V33.5952H65.1325V33.3784L65.2048 33.5952H65.2771L65.3494 33.3784V33.5952ZM61.9518 29.4747C61.7349 29.4747 61.5904 29.4747 61.4458 29.547C61.3012 29.6193 61.1566 29.6916 61.0843 29.8362C60.9398 29.9808 60.8675 30.0531 60.7952 30.1976C60.7229 30.3422 60.6506 30.4868 60.6506 30.7037H63.253C63.1807 30.3422 63.0361 29.9808 62.8193 29.7639C62.6024 29.547 62.3133 29.4747 61.9518 29.4747Z" fill="#D0D2D7"/><path d="M14.9636 23.3297H13.7347V17.1128L11.566 22.5345H10.2648L8.02384 17.1128V23.2574H6.79492V15.7393H8.67444L10.8431 21.161L13.0118 15.7393H14.8913V23.3297H14.9636ZM21.3973 23.3297H20.2407V22.6791C20.0961 22.896 19.807 23.1128 19.5901 23.2574C19.3009 23.402 19.0118 23.4743 18.6503 23.4743C18.2889 23.4743 17.9275 23.402 17.6383 23.2574C17.3491 23.1128 17.06 22.9682 16.8431 22.6791C16.6262 22.4622 16.4094 22.1731 16.2648 21.8116C16.1202 21.4502 16.0479 21.0887 16.0479 20.7273C16.0479 20.3658 16.1202 19.9321 16.2648 19.6429C16.4094 19.2815 16.554 18.9923 16.8431 18.7755C17.06 18.5586 17.3491 18.3417 17.6383 18.1972C17.9275 18.0526 18.2889 17.9803 18.6503 17.9803C19.0118 17.9803 19.3732 18.0526 19.5901 18.1972C19.8793 18.3417 20.0961 18.4863 20.2407 18.7755V18.1249H21.3973V23.3297ZM18.7949 19.0646C18.5781 19.0646 18.3612 19.1369 18.1443 19.2092C17.9275 19.2815 17.7829 19.4261 17.6383 19.5707C17.4937 19.7152 17.4214 19.8598 17.3491 20.0767C17.2768 20.2935 17.2768 20.5104 17.2768 20.7273C17.2768 20.9441 17.2768 21.161 17.3491 21.3779C17.4214 21.5947 17.4937 21.7393 17.6383 21.8839C17.7829 22.0285 17.9275 22.1731 18.1443 22.2454C18.3612 22.3176 18.5781 22.3899 18.7949 22.3899C19.0118 22.3899 19.2287 22.3176 19.4455 22.2454C19.6624 22.1731 19.807 22.0285 19.9515 21.8839C20.0961 21.7393 20.1684 21.5947 20.2407 21.3779C20.313 21.161 20.3853 20.9441 20.3853 20.7273C20.3853 20.5104 20.313 20.2935 20.2407 20.0767C20.1684 19.8598 20.0238 19.7152 19.9515 19.5707C19.807 19.4261 19.6624 19.2815 19.4455 19.2092C19.2287 19.0646 19.0118 19.0646 18.7949 19.0646ZM26.6021 19.4261C26.5299 19.3538 26.4576 19.3538 26.313 19.2815C26.1684 19.2092 26.0961 19.2092 25.9515 19.1369C25.807 19.0646 25.6624 19.0646 25.5178 19.0646C25.3732 19.0646 25.2287 18.9923 25.0118 18.9923C24.7226 18.9923 24.4335 19.0646 24.2889 19.1369C24.1443 19.2815 23.9997 19.4261 23.9997 19.5707C23.9997 19.6429 23.9997 19.7152 24.072 19.7875C24.1443 19.8598 24.1443 19.9321 24.2889 19.9321C24.3612 20.0044 24.4335 20.0044 24.5781 20.0044C24.6503 20.0044 24.7949 20.0767 24.9395 20.0767L25.4455 20.149C26.0238 20.2213 26.4576 20.3658 26.7467 20.655C27.0359 20.8719 27.2528 21.2333 27.2528 21.667C27.2528 21.8839 27.1805 22.1731 27.1082 22.3176C27.0359 22.5345 26.819 22.6791 26.6744 22.8237C26.4576 22.9682 26.2407 23.1128 25.9515 23.1851C25.6624 23.2574 25.3009 23.3297 24.9395 23.3297C24.7949 23.3297 24.6503 23.3297 24.5058 23.3297C24.3612 23.3297 24.1443 23.2574 23.9275 23.2574C23.7106 23.1851 23.4937 23.1128 23.3491 23.0405C23.1323 22.9682 22.9154 22.8237 22.7708 22.6791L23.2768 21.8116C23.3491 21.8839 23.4937 21.9562 23.566 22.0285C23.7106 22.1008 23.7829 22.1731 23.9275 22.1731C24.072 22.2454 24.2166 22.2454 24.3612 22.3176C24.5058 22.3176 24.7226 22.3899 24.9395 22.3899C25.3009 22.3899 25.5901 22.3176 25.807 22.2454C26.0238 22.1008 26.0961 21.9562 26.0961 21.8116C26.0961 21.667 26.0238 21.5225 25.8793 21.4502C25.7347 21.3779 25.5178 21.3056 25.2287 21.2333L24.7226 21.161C24.1443 21.0887 23.7106 20.9441 23.4214 20.655C23.1323 20.3658 22.9877 20.0767 22.9877 19.6429C22.9877 19.3538 23.06 19.1369 23.1323 18.9201C23.2046 18.7032 23.3491 18.5586 23.566 18.414C23.7829 18.2694 23.9997 18.1972 24.2166 18.0526C24.5058 17.9803 24.7949 17.908 25.0841 17.908C25.5178 17.908 25.8793 17.9803 26.2407 18.0526C26.6021 18.1249 26.8913 18.2694 27.1805 18.4863L26.6021 19.4261ZM31.9516 19.1369H29.9997V21.3779C29.9997 21.5225 29.9997 21.667 30.072 21.8116C30.1443 21.9562 30.1443 22.0285 30.2166 22.1008C30.2889 22.1731 30.3612 22.2454 30.5058 22.2454C30.5781 22.2454 30.7226 22.3176 30.7949 22.3176C30.9395 22.3176 31.1564 22.3176 31.3009 22.2454C31.5178 22.1731 31.6624 22.1008 31.807 22.0285L32.2407 22.896C32.0238 23.0405 31.807 23.1851 31.5178 23.2574C31.2287 23.3297 30.9395 23.402 30.6503 23.402C30.072 23.402 29.6383 23.2574 29.2768 22.896C28.9154 22.5345 28.7708 22.0285 28.7708 21.3779V19.0646H27.7588V18.0526H28.7708V16.4622H29.9275V18.0526H31.8793V19.1369H31.9516ZM35.4214 17.9803C35.7829 17.9803 36.1443 18.0526 36.4335 18.1972C36.7226 18.3417 37.0118 18.4863 37.2287 18.7755C37.4455 18.9923 37.5901 19.2815 37.7347 19.6429C37.8793 20.0044 37.9515 20.3658 37.9515 20.7273C37.9515 20.7996 37.9515 20.8719 37.9515 20.9441C37.9515 21.0164 37.9515 21.0887 37.9515 21.161H34.1202C34.1202 21.3779 34.1925 21.5947 34.3371 21.7393C34.4094 21.8839 34.554 22.0285 34.6985 22.1731C34.8431 22.2454 34.9877 22.3899 35.1323 22.3899C35.2768 22.4622 35.4937 22.4622 35.6383 22.4622C35.9275 22.4622 36.1443 22.3899 36.4335 22.3176C36.7226 22.2454 36.9395 22.1008 37.1564 21.8839L37.7347 22.6791C37.4455 22.9682 37.0841 23.1128 36.7226 23.2574C36.3612 23.3297 35.9997 23.402 35.566 23.402C35.2046 23.402 34.8431 23.3297 34.4817 23.1851C34.1925 23.0405 33.9034 22.896 33.6142 22.6068C33.3973 22.3899 33.1805 22.1008 33.0359 21.7393C32.8913 21.3779 32.819 21.0164 32.819 20.655C32.819 20.2213 32.8913 19.8598 33.0359 19.5707C33.1805 19.2092 33.325 18.9201 33.5419 18.7032C33.7588 18.4863 34.0479 18.2694 34.3371 18.1249C34.6985 18.0526 35.06 17.9803 35.4214 17.9803ZM35.4214 18.9923C35.2046 18.9923 35.06 18.9923 34.9154 19.0646C34.7708 19.1369 34.6262 19.2092 34.4817 19.3538C34.3371 19.4984 34.2648 19.5707 34.1925 19.7875C34.1202 19.9321 34.0479 20.149 34.0479 20.2935H36.7226C36.6503 19.8598 36.5058 19.5707 36.2889 19.3538C36.072 19.0646 35.7829 18.9923 35.4214 18.9923ZM41.7829 17.9803C41.9275 17.9803 42.1443 17.9803 42.2166 17.9803C42.3612 17.9803 42.5058 18.0526 42.6503 18.1249L42.3612 19.2092C42.2166 19.1369 42.072 19.1369 41.9275 19.0646C41.7829 19.0646 41.6383 18.9923 41.4937 18.9923C41.3491 18.9923 41.1323 18.9923 40.9877 19.0646C40.8431 19.1369 40.6985 19.2092 40.6263 19.3538C40.554 19.4984 40.4094 19.6429 40.3371 19.7875C40.2648 19.9321 40.2648 20.149 40.2648 20.3658V23.1851H39.1082V17.9803H40.1925V18.5586C40.3371 18.3417 40.554 18.1249 40.8431 17.9803C41.2046 18.0526 41.4937 17.9803 41.7829 17.9803ZM45.6865 17.9803C46.0479 17.9803 46.4094 18.0526 46.7708 18.1972C47.1323 18.3417 47.4214 18.5586 47.6383 18.8478L46.9154 19.6429C46.6985 19.4984 46.554 19.3538 46.3371 19.2092C46.1202 19.1369 45.9034 19.0646 45.6865 19.0646C45.4696 19.0646 45.2528 19.1369 45.1082 19.2092C44.8913 19.2815 44.7467 19.4261 44.6022 19.5707C44.4576 19.7152 44.3853 19.8598 44.313 20.0767C44.2407 20.2935 44.1684 20.5104 44.1684 20.7273C44.1684 20.9441 44.2407 21.161 44.313 21.3779C44.3853 21.5947 44.5299 21.7393 44.6022 21.8839C44.7467 22.0285 44.8913 22.1731 45.1082 22.2454C45.325 22.3176 45.4696 22.3899 45.6865 22.3899C45.9034 22.3899 46.1925 22.3176 46.4094 22.2454C46.6263 22.1731 46.8431 22.0285 46.9877 21.8839L47.7106 22.6791C47.4937 22.9682 47.2046 23.1851 46.8431 23.3297C46.4817 23.4743 46.1202 23.5466 45.7588 23.5466C45.325 23.5466 44.9636 23.4743 44.6744 23.3297C44.313 23.1851 44.0238 22.9682 43.807 22.7514C43.5901 22.5345 43.3732 22.2454 43.2287 21.8839C43.0841 21.5225 43.0118 21.161 43.0118 20.7996C43.0118 20.4381 43.0841 20.0767 43.2287 19.7152C43.3732 19.3538 43.5178 19.0646 43.807 18.8478C44.0238 18.6309 44.313 18.414 44.6744 18.2694C44.8913 18.0526 45.2528 17.9803 45.6865 17.9803ZM53.6383 23.3297H52.4817V22.6791C52.3371 22.896 52.0479 23.1128 51.8311 23.2574C51.5419 23.402 51.2528 23.4743 50.8913 23.4743C50.5299 23.4743 50.1684 23.402 49.8793 23.2574C49.5901 23.1128 49.3009 22.9682 49.0841 22.6791C48.8672 22.4622 48.6503 22.1731 48.5058 21.8116C48.3612 21.4502 48.2889 21.0887 48.2889 20.7273C48.2889 20.3658 48.3612 19.9321 48.5058 19.6429C48.6503 19.2815 48.7949 18.9923 49.0841 18.7755C49.3009 18.5586 49.5901 18.3417 49.8793 18.1972C50.1684 18.0526 50.5299 17.9803 50.8913 17.9803C51.2528 17.9803 51.6142 18.0526 51.8311 18.1972C52.1202 18.3417 52.3371 18.4863 52.4817 18.7755V18.1249H53.6383V23.3297ZM51.0359 19.0646C50.819 19.0646 50.6022 19.1369 50.3853 19.2092C50.1684 19.2815 50.0238 19.4261 49.8793 19.5707C49.7347 19.7152 49.6624 19.8598 49.5901 20.0767C49.5178 20.2935 49.5178 20.5104 49.5178 20.7273C49.5178 20.9441 49.5901 21.161 49.5901 21.3779C49.6624 21.5947 49.7347 21.7393 49.8793 21.8839C50.0238 22.0285 50.1684 22.1731 50.3853 22.2454C50.6022 22.3176 50.819 22.3899 51.0359 22.3899C51.2528 22.3899 51.4696 22.3176 51.6865 22.2454C51.9034 22.1731 52.0479 22.0285 52.1925 21.8839C52.3371 21.7393 52.4094 21.5947 52.4817 21.3779C52.554 21.161 52.6262 20.9441 52.6262 20.7273C52.6262 20.5104 52.554 20.2935 52.4817 20.0767C52.4094 19.8598 52.2648 19.7152 52.1925 19.5707C52.0479 19.4261 51.9034 19.2815 51.6865 19.2092C51.4696 19.0646 51.2528 19.0646 51.0359 19.0646ZM57.9034 17.9803C58.0479 17.9803 58.2648 17.9803 58.3371 17.9803C58.4817 17.9803 58.6262 18.0526 58.7708 18.1249L58.4817 19.2092C58.3371 19.1369 58.1925 19.1369 58.0479 19.0646C57.9034 19.0646 57.7588 18.9923 57.6142 18.9923C57.4696 18.9923 57.2528 18.9923 57.1082 19.0646C56.9636 19.1369 56.819 19.2092 56.7467 19.3538C56.6744 19.4984 56.5299 19.6429 56.4576 19.7875C56.3853 19.9321 56.3853 20.149 56.3853 20.3658V23.1851H55.2287V17.9803H56.313V18.5586C56.4576 18.3417 56.6744 18.1249 56.9636 17.9803C57.325 18.0526 57.6142 17.9803 57.9034 17.9803ZM61.6624 17.9803C62.0238 17.9803 62.3853 18.0526 62.6022 18.1972C62.8913 18.3417 63.1082 18.4863 63.2528 18.7755V15.5225H64.4094V23.3297H63.2528V22.6791C63.1082 22.896 62.819 23.1128 62.6022 23.2574C62.313 23.402 62.0238 23.4743 61.6624 23.4743C61.3009 23.4743 60.9395 23.402 60.6503 23.2574C60.3612 23.1128 60.072 22.9682 59.8552 22.6791C59.6383 22.4622 59.4214 22.1731 59.2768 21.8116C59.1323 21.4502 59.06 21.0887 59.06 20.7273C59.06 20.3658 59.1323 19.9321 59.2768 19.6429C59.4214 19.2815 59.566 18.9923 59.8552 18.7755C60.072 18.5586 60.3612 18.3417 60.6503 18.1972C60.9395 18.0526 61.3009 17.9803 61.6624 17.9803ZM65.7106 22.8237C65.7829 22.8237 65.7829 22.8237 65.8552 22.8237C65.9275 22.8237 65.9275 22.896 65.9275 22.896L65.9997 22.9682C65.9997 23.0405 65.9997 23.0405 65.9997 23.1128C65.9997 23.1851 65.9997 23.1851 65.9997 23.2574C65.9997 23.3297 65.9275 23.3297 65.9275 23.3297L65.8552 23.402C65.7829 23.402 65.7829 23.402 65.7106 23.402C65.6383 23.402 65.6383 23.402 65.566 23.402C65.4937 23.402 65.4937 23.3297 65.4937 23.3297L65.4214 23.2574C65.4214 23.1851 65.4214 23.1851 65.4214 23.1128C65.4214 23.0405 65.4214 23.0405 65.4214 22.9682C65.4214 22.896 65.4937 22.896 65.4937 22.896L65.566 22.8237C65.6383 22.8237 65.6383 22.8237 65.7106 22.8237ZM65.7106 23.402H65.7829C65.7829 23.402 65.8552 23.402 65.8552 23.3297L65.9275 23.2574V23.1851V23.1128C65.9275 23.1128 65.9275 23.0405 65.8552 23.0405L65.7829 22.9682H65.7106H65.6383C65.6383 22.9682 65.566 22.9682 65.566 23.0405L65.4937 23.1128V23.1851V23.2574C65.4937 23.2574 65.4937 23.3297 65.566 23.3297L65.6383 23.402H65.7106ZM65.7106 22.9682C65.7829 22.9682 65.7829 22.9682 65.7829 22.9682V23.0405V23.1128H65.7106L65.7829 23.2574H65.7106L65.6383 23.1128V23.2574H65.566V22.9682H65.7106ZM65.6383 23.0405V23.1128H65.7106C65.7106 23.1128 65.7106 23.1128 65.7829 23.1128C65.7829 23.1128 65.7829 23.1128 65.7106 23.1128H65.6383V23.0405ZM61.807 19.0646C61.5901 19.0646 61.3732 19.1369 61.1564 19.2092C60.9395 19.2815 60.7949 19.4261 60.6503 19.5707C60.5058 19.7152 60.4335 19.8598 60.3612 20.0767C60.2166 20.2935 60.2166 20.5104 60.2166 20.7273C60.2166 20.9441 60.2889 21.161 60.2889 21.3779C60.3612 21.5947 60.4335 21.7393 60.5781 21.8839C60.7226 22.0285 60.8672 22.1731 61.0841 22.2454C61.3009 22.3176 61.5178 22.3899 61.7347 22.3899C61.9515 22.3899 62.1684 22.3176 62.3853 22.2454C62.6022 22.1731 62.7467 22.0285 62.8913 21.8839C63.0359 21.7393 63.1082 21.5947 63.1805 21.3779C63.2528 21.161 63.325 20.9441 63.325 20.7273C63.325 20.5104 63.2528 20.2935 63.1805 20.0767C63.1082 19.8598 62.9636 19.7152 62.8913 19.5707C62.7467 19.4261 62.6022 19.2815 62.3853 19.2092C62.2407 19.0646 62.0238 19.0646 61.807 19.0646Z" fill="#D0D2D7"/></svg>