<svg xmlns="http://www.w3.org/2000/svg" xmlns:xlink="http://www.w3.org/1999/xlink" width="1080" zoomAndPan="magnify" viewBox="0 0 810 809.999993" height="1080" preserveAspectRatio="xMidYMid meet" version="1.0"><defs><clipPath id="faa86df7be"><path d="M 215 658 L 270 658 L 270 724.949219 L 215 724.949219 Z M 215 658 " clip-rule="nonzero"/></clipPath><clipPath id="a9aa096ddf"><path d="M 275 658 L 322 658 L 322 724.949219 L 275 724.949219 Z M 275 658 " clip-rule="nonzero"/></clipPath><clipPath id="52ebc53645"><path d="M 131.074219 658 L 214 658 L 214 724.949219 L 131.074219 724.949219 Z M 131.074219 658 " clip-rule="nonzero"/></clipPath><clipPath id="e666600ef0"><path d="M 305 658 L 365 658 L 365 724.949219 L 305 724.949219 Z M 305 658 " clip-rule="nonzero"/></clipPath><clipPath id="0e5603e002"><path d="M 366 658 L 379 658 L 379 724.949219 L 366 724.949219 Z M 366 658 " clip-rule="nonzero"/></clipPath><clipPath id="dde59a3e84"><path d="M 442 658 L 503 658 L 503 724.949219 L 442 724.949219 Z M 442 658 " clip-rule="nonzero"/></clipPath><clipPath id="d6c2570c30"><path d="M 509 658 L 569 658 L 569 724.949219 L 509 724.949219 Z M 509 658 " clip-rule="nonzero"/></clipPath><clipPath id="2a2edf86db"><path d="M 573 658 L 622 658 L 622 724.949219 L 573 724.949219 Z M 573 658 " clip-rule="nonzero"/></clipPath><clipPath id="f2ef8ed41e"><path d="M 622 658 L 678.574219 658 L 678.574219 724.949219 L 622 724.949219 Z M 622 658 " clip-rule="nonzero"/></clipPath><clipPath id="2e87f273ff"><path d="M 383 658 L 440 658 L 440 724.949219 L 383 724.949219 Z M 383 658 " clip-rule="nonzero"/></clipPath></defs><path fill="#3d73b9" d="M 402.015625 598.878906 L 626.234375 598.878906 C 677.398438 598.878906 677.933594 544.441406 672.707031 517.578125 C 669.863281 499.503906 639.175781 499.789062 635.796875 517.578125 L 635.796875 538.535156 C 635.796875 539.105469 635.769531 539.675781 635.710938 540.242188 C 635.652344 540.8125 635.570312 541.375 635.457031 541.933594 C 635.34375 542.492188 635.207031 543.046875 635.039062 543.59375 C 634.875 544.136719 634.679688 544.675781 634.460938 545.203125 C 634.242188 545.730469 634 546.242188 633.730469 546.746094 C 633.460938 547.25 633.167969 547.738281 632.851562 548.210938 C 632.535156 548.6875 632.195312 549.144531 631.832031 549.585938 C 631.46875 550.027344 631.089844 550.449219 630.683594 550.851562 C 630.28125 551.257812 629.859375 551.640625 629.417969 552 C 628.976562 552.363281 628.519531 552.703125 628.046875 553.019531 C 627.574219 553.335938 627.085938 553.632812 626.582031 553.898438 C 626.078125 554.167969 625.5625 554.414062 625.039062 554.632812 C 624.511719 554.851562 623.972656 555.042969 623.429688 555.210938 C 622.882812 555.378906 622.332031 555.515625 621.773438 555.628906 C 621.210938 555.742188 620.648438 555.824219 620.082031 555.882812 C 619.515625 555.9375 618.945312 555.96875 618.375 555.96875 L 188.566406 555.96875 C 187.996094 555.96875 187.429688 555.9375 186.859375 555.882812 C 186.292969 555.824219 185.730469 555.742188 185.171875 555.628906 C 184.613281 555.515625 184.058594 555.378906 183.515625 555.210938 C 182.96875 555.042969 182.433594 554.851562 181.90625 554.632812 C 181.378906 554.414062 180.863281 554.167969 180.363281 553.902344 C 179.859375 553.632812 179.371094 553.335938 178.898438 553.019531 C 178.421875 552.703125 177.964844 552.363281 177.523438 552 C 177.082031 551.640625 176.660156 551.257812 176.257812 550.851562 C 175.855469 550.449219 175.472656 550.027344 175.109375 549.585938 C 174.75 549.144531 174.410156 548.6875 174.09375 548.214844 C 173.773438 547.738281 173.480469 547.25 173.210938 546.746094 C 172.945312 546.242188 172.699219 545.730469 172.480469 545.203125 C 172.261719 544.675781 172.070312 544.136719 171.902344 543.59375 C 171.738281 543.046875 171.597656 542.492188 171.484375 541.933594 C 171.375 541.375 171.289062 540.8125 171.230469 540.242188 C 171.175781 539.675781 171.144531 539.105469 171.144531 538.535156 L 171.144531 517.578125 C 167.765625 499.789062 137.082031 499.503906 134.238281 517.578125 C 129.011719 544.441406 129.542969 598.878906 180.710938 598.878906 Z M 243.539062 77.355469 L 589.21875 77.355469 C 613.503906 77.355469 633.378906 98.417969 633.378906 124.140625 L 633.378906 146.484375 C 633.378906 178.082031 590.710938 177.9375 590.710938 146.699219 L 590.710938 134.53125 C 590.710938 133.597656 590.621094 132.671875 590.4375 131.753906 C 590.257812 130.839844 589.988281 129.949219 589.628906 129.085938 C 589.273438 128.222656 588.835938 127.402344 588.316406 126.625 C 587.796875 125.847656 587.207031 125.128906 586.546875 124.46875 C 585.886719 123.808594 585.167969 123.21875 584.390625 122.699219 C 583.613281 122.179688 582.796875 121.742188 581.933594 121.382812 C 581.070312 121.027344 580.179688 120.753906 579.265625 120.574219 C 578.347656 120.390625 577.421875 120.300781 576.488281 120.300781 L 230.097656 120.300781 C 229.164062 120.300781 228.238281 120.390625 227.324219 120.574219 C 226.40625 120.753906 225.519531 121.027344 224.65625 121.382812 C 223.792969 121.742188 222.972656 122.179688 222.195312 122.699219 C 221.417969 123.21875 220.703125 123.808594 220.039062 124.46875 C 219.378906 125.128906 218.789062 125.847656 218.273438 126.625 C 217.753906 127.402344 217.316406 128.222656 216.957031 129.085938 C 216.601562 129.949219 216.332031 130.839844 216.148438 131.753906 C 215.964844 132.671875 215.875 133.597656 215.875 134.53125 L 215.875 146.484375 C 215.875 177.902344 175.128906 177.6875 175.128906 147.164062 L 175.128906 124.179688 C 175.234375 98.453125 195.074219 77.355469 219.359375 77.355469 Z M 243.539062 77.355469 " fill-opacity="1" fill-rule="evenodd"/><path fill="#1d1d1b" d="M 624.667969 334.273438 C 626.144531 334.933594 627.59375 335.644531 629.015625 336.40625 C 630.441406 337.167969 631.835938 337.976562 633.203125 338.839844 C 634.570312 339.699219 635.902344 340.605469 637.207031 341.5625 C 638.507812 342.515625 639.773438 343.515625 641.007812 344.5625 C 642.238281 345.609375 643.429688 346.695312 644.585938 347.824219 C 645.738281 348.953125 646.851562 350.125 647.925781 351.332031 C 648.996094 352.539062 650.023438 353.785156 651.007812 355.066406 C 651.988281 356.347656 652.925781 357.664062 653.816406 359.011719 C 654.707031 360.359375 655.550781 361.738281 656.339844 363.144531 C 657.132812 364.554688 657.875 365.988281 658.566406 367.445312 C 659.257812 368.90625 659.898438 370.390625 660.484375 371.894531 C 661.070312 373.402344 661.601562 374.925781 662.078125 376.46875 C 662.558594 378.011719 662.980469 379.570312 663.347656 381.144531 C 663.714844 382.71875 664.027344 384.300781 664.28125 385.898438 C 664.539062 387.492188 664.734375 389.09375 664.878906 390.703125 C 665.019531 392.3125 665.105469 393.925781 665.132812 395.542969 C 665.132812 433.183594 632.277344 463.996094 592.136719 463.996094 L 479.527344 463.996094 C 478.921875 464.015625 478.320312 464.003906 477.71875 463.960938 C 477.117188 463.921875 476.515625 463.851562 475.921875 463.753906 C 475.328125 463.652344 474.738281 463.523438 474.15625 463.367188 C 473.570312 463.210938 472.996094 463.027344 472.433594 462.816406 C 471.867188 462.601562 471.3125 462.363281 470.773438 462.097656 C 470.230469 461.828125 469.703125 461.539062 469.191406 461.21875 C 468.675781 460.902344 468.179688 460.558594 467.699219 460.195312 C 467.21875 459.828125 466.757812 459.4375 466.316406 459.027344 C 465.875 458.617188 465.453125 458.183594 465.054688 457.730469 C 464.652344 457.28125 464.277344 456.808594 463.921875 456.320312 C 463.566406 455.832031 463.238281 455.328125 462.933594 454.804688 C 462.625 454.285156 462.347656 453.75 462.09375 453.199219 C 461.839844 452.652344 461.617188 452.09375 461.417969 451.523438 C 461.21875 450.953125 461.046875 450.375 460.90625 449.785156 C 460.761719 449.199219 460.648438 448.605469 460.5625 448.007812 C 460.480469 447.410156 460.425781 446.808594 460.398438 446.207031 L 460.398438 231.734375 C 460.398438 231.117188 460.433594 230.503906 460.496094 229.894531 C 460.558594 229.28125 460.648438 228.671875 460.769531 228.070312 C 460.894531 227.46875 461.042969 226.871094 461.222656 226.28125 C 461.402344 225.695312 461.613281 225.117188 461.847656 224.546875 C 462.085938 223.980469 462.351562 223.425781 462.640625 222.882812 C 462.929688 222.339844 463.25 221.8125 463.589844 221.304688 C 463.933594 220.792969 464.300781 220.300781 464.691406 219.824219 C 465.082031 219.347656 465.496094 218.894531 465.929688 218.457031 C 466.363281 218.023438 466.820312 217.613281 467.296875 217.222656 C 467.773438 216.832031 468.265625 216.464844 468.777344 216.125 C 469.289062 215.78125 469.816406 215.464844 470.355469 215.175781 C 470.898438 214.886719 471.453125 214.621094 472.023438 214.386719 C 472.589844 214.152344 473.167969 213.945312 473.757812 213.765625 C 474.34375 213.585938 474.941406 213.4375 475.542969 213.316406 C 476.148438 213.195312 476.753906 213.101562 477.367188 213.042969 C 477.980469 212.980469 478.59375 212.949219 479.207031 212.949219 L 572.96875 212.949219 C 574.714844 212.945312 576.457031 213.003906 578.199219 213.128906 C 579.941406 213.25 581.675781 213.4375 583.402344 213.6875 C 585.128906 213.9375 586.847656 214.253906 588.550781 214.628906 C 590.253906 215.003906 591.945312 215.441406 593.617188 215.941406 C 595.289062 216.441406 596.941406 217.003906 598.574219 217.625 C 600.203125 218.246094 601.8125 218.925781 603.394531 219.664062 C 604.976562 220.402344 606.527344 221.195312 608.050781 222.046875 C 609.574219 222.898438 611.066406 223.804688 612.523438 224.769531 C 613.980469 225.730469 615.402344 226.742188 616.785156 227.808594 C 618.167969 228.871094 619.511719 229.988281 620.8125 231.148438 C 622.113281 232.3125 623.371094 233.523438 624.585938 234.777344 C 625.800781 236.035156 626.964844 237.332031 628.082031 238.671875 C 629.203125 240.015625 630.269531 241.394531 631.289062 242.8125 C 632.304688 244.230469 633.269531 245.6875 634.179688 247.175781 C 635.09375 248.664062 635.949219 250.1875 636.75 251.738281 C 637.546875 253.292969 638.292969 254.871094 638.976562 256.476562 C 639.660156 258.085938 640.285156 259.714844 640.851562 261.367188 C 641.417969 263.019531 641.921875 264.691406 642.363281 266.378906 C 642.808594 268.070312 643.1875 269.773438 643.507812 271.488281 C 643.828125 273.207031 644.082031 274.933594 644.273438 276.667969 C 644.46875 278.40625 644.597656 280.144531 644.660156 281.890625 C 644.726562 283.636719 644.726562 285.382812 644.664062 287.128906 C 644.601562 288.875 644.476562 290.613281 644.289062 292.351562 C 644.097656 294.085938 643.84375 295.8125 643.527344 297.53125 C 643.214844 299.25 642.835938 300.953125 642.394531 302.644531 C 641.953125 304.332031 641.453125 306.003906 640.890625 307.660156 C 640.328125 309.3125 639.703125 310.941406 639.023438 312.550781 C 638.339844 314.160156 637.601562 315.738281 636.804688 317.292969 C 636.007812 318.847656 635.152344 320.371094 634.242188 321.859375 C 633.335938 323.351562 632.375 324.808594 631.359375 326.226562 C 630.34375 327.648438 629.277344 329.03125 628.160156 330.375 C 627.042969 331.714844 625.878906 333.015625 624.667969 334.273438 M 540.648438 316.839844 L 576.382812 316.839844 L 576.382812 316.449219 C 577.375 316.292969 578.359375 316.09375 579.335938 315.851562 C 580.308594 315.609375 581.273438 315.324219 582.222656 314.996094 C 583.171875 314.667969 584.105469 314.296875 585.023438 313.886719 C 585.941406 313.480469 586.839844 313.027344 587.714844 312.539062 C 588.59375 312.050781 589.449219 311.523438 590.28125 310.957031 C 591.109375 310.394531 591.914062 309.792969 592.695312 309.15625 C 593.472656 308.523438 594.222656 307.851562 594.941406 307.152344 C 595.660156 306.449219 596.347656 305.714844 597.003906 304.953125 C 597.65625 304.191406 598.277344 303.402344 598.863281 302.585938 C 599.449219 301.765625 599.996094 300.925781 600.507812 300.058594 C 601.015625 299.195312 601.488281 298.308594 601.921875 297.398438 C 602.355469 296.492188 602.746094 295.566406 603.097656 294.625 C 603.449219 293.683594 603.757812 292.726562 604.027344 291.757812 C 604.292969 290.789062 604.515625 289.808594 604.699219 288.820312 C 604.878906 287.832031 605.015625 286.835938 605.109375 285.835938 C 605.203125 284.835938 605.25 283.832031 605.253906 282.828125 C 605.25 281.714844 605.195312 280.601562 605.082031 279.496094 C 604.96875 278.386719 604.804688 277.289062 604.585938 276.199219 C 604.363281 275.105469 604.09375 274.027344 603.765625 272.964844 C 603.441406 271.898438 603.066406 270.855469 602.640625 269.828125 C 602.210938 268.796875 601.734375 267.792969 601.210938 266.8125 C 600.683594 265.832031 600.113281 264.878906 599.492188 263.953125 C 598.875 263.03125 598.210938 262.136719 597.507812 261.277344 C 596.800781 260.417969 596.054688 259.59375 595.269531 258.804688 C 594.480469 258.019531 593.660156 257.273438 592.796875 256.566406 C 591.9375 255.859375 591.046875 255.195312 590.121094 254.578125 C 589.199219 253.957031 588.246094 253.386719 587.265625 252.859375 C 586.285156 252.335938 585.28125 251.859375 584.253906 251.429688 C 583.226562 251.003906 582.183594 250.625 581.117188 250.300781 C 580.054688 249.976562 578.976562 249.703125 577.886719 249.484375 C 576.796875 249.265625 575.699219 249.097656 574.589844 248.984375 C 573.484375 248.875 572.375 248.816406 571.261719 248.8125 L 499.261719 248.8125 L 499.261719 426.710938 L 590.535156 426.710938 C 591.707031 426.746094 592.878906 426.726562 594.050781 426.644531 C 595.222656 426.566406 596.386719 426.425781 597.542969 426.230469 C 598.703125 426.03125 599.847656 425.777344 600.976562 425.464844 C 602.109375 425.15625 603.222656 424.785156 604.316406 424.363281 C 605.414062 423.941406 606.484375 423.460938 607.53125 422.933594 C 608.578125 422.402344 609.597656 421.820312 610.585938 421.1875 C 611.574219 420.550781 612.527344 419.871094 613.449219 419.144531 C 614.371094 418.414062 615.25 417.640625 616.09375 416.824219 C 616.9375 416.007812 617.738281 415.148438 618.496094 414.25 C 619.253906 413.355469 619.964844 412.421875 620.628906 411.453125 C 621.289062 410.484375 621.90625 409.484375 622.46875 408.453125 C 623.03125 407.421875 623.542969 406.367188 624 405.285156 C 624.457031 404.203125 624.859375 403.101562 625.207031 401.980469 C 625.554688 400.859375 625.847656 399.722656 626.078125 398.570312 C 626.3125 397.417969 626.488281 396.257812 626.605469 395.089844 C 626.722656 393.921875 626.78125 392.75 626.78125 391.574219 C 626.78125 390.398438 626.722656 389.226562 626.605469 388.058594 C 626.488281 386.890625 626.3125 385.730469 626.078125 384.578125 C 625.847656 383.429688 625.554688 382.292969 625.207031 381.171875 C 624.859375 380.046875 624.457031 378.945312 624 377.863281 C 623.542969 376.78125 623.03125 375.726562 622.46875 374.695312 C 621.90625 373.667969 621.289062 372.667969 620.628906 371.699219 C 619.964844 370.730469 619.253906 369.796875 618.496094 368.898438 C 617.738281 368 616.9375 367.144531 616.09375 366.324219 C 615.25 365.507812 614.371094 364.734375 613.449219 364.007812 C 612.527344 363.277344 611.574219 362.597656 610.585938 361.964844 C 609.597656 361.332031 608.578125 360.75 607.53125 360.21875 C 606.484375 359.6875 605.414062 359.210938 604.316406 358.785156 C 603.222656 358.363281 602.109375 357.996094 600.976562 357.683594 C 599.847656 357.371094 598.703125 357.117188 597.542969 356.921875 C 596.386719 356.722656 595.222656 356.585938 594.050781 356.503906 C 592.878906 356.425781 591.707031 356.402344 590.535156 356.441406 L 540.648438 356.441406 C 540.003906 356.441406 539.359375 356.410156 538.714844 356.34375 C 538.070312 356.28125 537.433594 356.1875 536.800781 356.0625 C 536.164062 355.933594 535.539062 355.777344 534.921875 355.589844 C 534.300781 355.402344 533.695312 355.183594 533.097656 354.9375 C 532.5 354.691406 531.917969 354.414062 531.347656 354.109375 C 530.777344 353.804688 530.222656 353.472656 529.683594 353.113281 C 529.148438 352.753906 528.628906 352.367188 528.128906 351.957031 C 527.628906 351.546875 527.152344 351.113281 526.695312 350.65625 C 526.238281 350.199219 525.804688 349.71875 525.394531 349.222656 C 524.984375 348.722656 524.601562 348.203125 524.242188 347.664062 C 523.882812 347.125 523.550781 346.574219 523.246094 346.003906 C 522.941406 345.433594 522.664062 344.847656 522.417969 344.25 C 522.167969 343.652344 521.953125 343.042969 521.765625 342.425781 C 521.578125 341.808594 521.421875 341.179688 521.292969 340.546875 C 521.167969 339.910156 521.074219 339.273438 521.011719 338.628906 C 520.945312 337.984375 520.914062 337.339844 520.914062 336.695312 C 520.914062 336.046875 520.945312 335.402344 521.011719 334.757812 C 521.074219 334.113281 521.167969 333.476562 521.292969 332.839844 C 521.421875 332.207031 521.578125 331.582031 521.765625 330.960938 C 521.953125 330.34375 522.167969 329.734375 522.417969 329.136719 C 522.664062 328.539062 522.941406 327.957031 523.246094 327.386719 C 523.550781 326.816406 523.882812 326.261719 524.242188 325.722656 C 524.601562 325.183594 524.984375 324.667969 525.394531 324.167969 C 525.804688 323.667969 526.238281 323.1875 526.695312 322.730469 C 527.152344 322.273438 527.628906 321.839844 528.128906 321.429688 C 528.628906 321.019531 529.148438 320.632812 529.683594 320.273438 C 530.222656 319.914062 530.777344 319.582031 531.347656 319.277344 C 531.917969 318.972656 532.5 318.699219 533.097656 318.449219 C 533.695312 318.203125 534.300781 317.984375 534.921875 317.796875 C 535.539062 317.609375 536.164062 317.453125 536.800781 317.328125 C 537.433594 317.199219 538.070312 317.105469 538.714844 317.042969 C 539.359375 316.980469 540.003906 316.945312 540.648438 316.945312 " fill-opacity="1" fill-rule="evenodd"/><g clip-path="url(#faa86df7be)"><path fill="#1d1d1b" d="M 257.796875 664.699219 C 257.796875 664.304688 257.835938 663.910156 257.914062 663.519531 C 257.988281 663.128906 258.105469 662.753906 258.257812 662.386719 C 258.410156 662.019531 258.59375 661.667969 258.816406 661.339844 C 259.035156 661.007812 259.285156 660.703125 259.566406 660.421875 C 259.847656 660.140625 260.152344 659.890625 260.484375 659.671875 C 260.8125 659.449219 261.160156 659.265625 261.527344 659.113281 C 261.894531 658.960938 262.273438 658.84375 262.660156 658.769531 C 263.050781 658.691406 263.445312 658.652344 263.839844 658.652344 C 264.238281 658.652344 264.632812 658.691406 265.019531 658.769531 C 265.410156 658.84375 265.789062 658.960938 266.152344 659.113281 C 266.519531 659.265625 266.867188 659.449219 267.199219 659.671875 C 267.527344 659.890625 267.835938 660.140625 268.113281 660.421875 C 268.394531 660.703125 268.644531 661.007812 268.867188 661.339844 C 269.085938 661.667969 269.273438 662.019531 269.425781 662.386719 C 269.578125 662.753906 269.691406 663.128906 269.769531 663.519531 C 269.847656 663.910156 269.886719 664.304688 269.886719 664.699219 L 269.886719 697.363281 C 269.882812 698.25 269.839844 699.132812 269.753906 700.015625 C 269.664062 700.898438 269.535156 701.773438 269.359375 702.644531 C 269.1875 703.515625 268.96875 704.375 268.710938 705.222656 C 268.457031 706.070312 268.15625 706.902344 267.816406 707.722656 C 267.476562 708.542969 267.097656 709.34375 266.679688 710.125 C 266.261719 710.90625 265.808594 711.667969 265.316406 712.40625 C 264.824219 713.140625 264.296875 713.855469 263.734375 714.539062 C 263.171875 715.226562 262.578125 715.882812 261.953125 716.507812 C 261.324219 717.136719 260.671875 717.734375 259.984375 718.296875 C 259.300781 718.859375 258.589844 719.386719 257.855469 719.882812 C 257.117188 720.375 256.359375 720.832031 255.578125 721.25 C 254.796875 721.667969 253.996094 722.050781 253.179688 722.390625 C 252.359375 722.730469 251.527344 723.03125 250.679688 723.289062 C 249.832031 723.546875 248.972656 723.765625 248.105469 723.941406 C 247.238281 724.117188 246.359375 724.246094 245.480469 724.335938 C 244.597656 724.425781 243.714844 724.472656 242.828125 724.472656 C 241.941406 724.472656 241.054688 724.429688 240.175781 724.339844 C 239.292969 724.253906 238.417969 724.121094 237.546875 723.949219 C 236.679688 723.773438 235.820312 723.558594 234.972656 723.300781 C 234.125 723.042969 233.289062 722.742188 232.472656 722.402344 C 231.652344 722.0625 230.851562 721.683594 230.070312 721.265625 C 229.289062 720.847656 228.53125 720.394531 227.792969 719.902344 C 227.058594 719.410156 226.34375 718.882812 225.660156 718.320312 C 224.976562 717.757812 224.320312 717.160156 223.691406 716.535156 C 223.0625 715.910156 222.46875 715.253906 221.90625 714.566406 C 221.34375 713.882812 220.816406 713.171875 220.324219 712.433594 C 219.828125 711.699219 219.371094 710.9375 218.953125 710.15625 C 218.535156 709.375 218.15625 708.574219 217.816406 707.757812 C 217.472656 706.9375 217.175781 706.105469 216.914062 705.257812 C 216.65625 704.40625 216.441406 703.546875 216.265625 702.679688 C 216.089844 701.808594 215.957031 700.933594 215.871094 700.050781 C 215.78125 699.167969 215.734375 698.285156 215.734375 697.398438 L 215.734375 664.734375 C 215.699219 664.320312 215.710938 663.90625 215.765625 663.492188 C 215.820312 663.078125 215.914062 662.675781 216.050781 662.28125 C 216.1875 661.890625 216.363281 661.515625 216.578125 661.15625 C 216.792969 660.800781 217.042969 660.46875 217.324219 660.164062 C 217.609375 659.855469 217.917969 659.582031 218.257812 659.339844 C 218.597656 659.101562 218.957031 658.894531 219.339844 658.730469 C 219.722656 658.5625 220.117188 658.4375 220.523438 658.351562 C 220.929688 658.265625 221.34375 658.222656 221.757812 658.222656 C 222.175781 658.222656 222.589844 658.265625 222.996094 658.351562 C 223.402344 658.4375 223.796875 658.5625 224.179688 658.730469 C 224.5625 658.894531 224.921875 659.101562 225.261719 659.339844 C 225.601562 659.582031 225.910156 659.855469 226.195312 660.164062 C 226.476562 660.46875 226.726562 660.800781 226.941406 661.15625 C 227.15625 661.515625 227.332031 661.890625 227.46875 662.28125 C 227.605469 662.675781 227.699219 663.078125 227.753906 663.492188 C 227.808594 663.90625 227.820312 664.320312 227.785156 664.734375 L 227.785156 697.398438 C 227.796875 698.382812 227.898438 699.363281 228.101562 700.328125 C 228.300781 701.292969 228.589844 702.234375 228.972656 703.144531 C 229.355469 704.054688 229.820312 704.917969 230.371094 705.738281 C 230.921875 706.554688 231.546875 707.3125 232.246094 708.011719 C 232.945312 708.707031 233.703125 709.332031 234.523438 709.878906 C 235.34375 710.429688 236.207031 710.894531 237.117188 711.273438 C 238.027344 711.65625 238.964844 711.945312 239.933594 712.140625 C 240.898438 712.339844 241.875 712.441406 242.863281 712.449219 C 243.851562 712.441406 244.828125 712.34375 245.796875 712.144531 C 246.765625 711.949219 247.703125 711.660156 248.617188 711.28125 C 249.527344 710.898438 250.394531 710.433594 251.214844 709.882812 C 252.03125 709.332031 252.792969 708.707031 253.488281 708.007812 C 254.1875 707.304688 254.808594 706.546875 255.359375 705.722656 C 255.90625 704.902344 256.371094 704.035156 256.75 703.121094 C 257.128906 702.207031 257.414062 701.265625 257.609375 700.296875 C 257.800781 699.328125 257.902344 698.351562 257.902344 697.363281 Z M 257.796875 664.699219 " fill-opacity="1" fill-rule="nonzero"/></g><g clip-path="url(#a9aa096ddf)"><path fill="#1d1d1b" d="M 314.972656 712.410156 C 315.367188 712.410156 315.761719 712.449219 316.152344 712.527344 C 316.542969 712.601562 316.921875 712.714844 317.289062 712.867188 C 317.65625 713.019531 318.007812 713.207031 318.335938 713.425781 C 318.667969 713.644531 318.976562 713.898438 319.257812 714.179688 C 319.539062 714.457031 319.789062 714.765625 320.011719 715.09375 C 320.230469 715.425781 320.417969 715.773438 320.570312 716.140625 C 320.722656 716.507812 320.839844 716.886719 320.917969 717.277344 C 320.992188 717.667969 321.03125 718.0625 321.03125 718.460938 C 321.03125 718.859375 320.992188 719.253906 320.917969 719.644531 C 320.839844 720.03125 320.722656 720.410156 320.570312 720.777344 C 320.417969 721.148438 320.230469 721.496094 320.011719 721.824219 C 319.789062 722.15625 319.539062 722.460938 319.257812 722.742188 C 318.976562 723.023438 318.667969 723.273438 318.335938 723.496094 C 318.007812 723.714844 317.65625 723.902344 317.289062 724.054688 C 316.921875 724.203125 316.542969 724.320312 316.152344 724.394531 C 315.761719 724.472656 315.367188 724.511719 314.972656 724.507812 L 298.1875 724.507812 C 297.445312 724.507812 296.707031 724.472656 295.96875 724.398438 C 295.230469 724.328125 294.496094 724.21875 293.769531 724.074219 C 293.042969 723.929688 292.324219 723.75 291.613281 723.53125 C 290.902344 723.316406 290.207031 723.066406 289.519531 722.785156 C 288.835938 722.5 288.164062 722.183594 287.511719 721.832031 C 286.859375 721.484375 286.222656 721.101562 285.605469 720.6875 C 284.988281 720.277344 284.394531 719.835938 283.820312 719.363281 C 283.246094 718.894531 282.699219 718.394531 282.171875 717.871094 C 281.648438 717.347656 281.152344 716.796875 280.679688 716.222656 C 280.210938 715.648438 279.769531 715.054688 279.355469 714.4375 C 278.945312 713.820312 278.5625 713.183594 278.214844 712.527344 C 277.863281 711.875 277.546875 711.203125 277.261719 710.519531 C 276.980469 709.832031 276.730469 709.132812 276.515625 708.425781 C 276.300781 707.714844 276.117188 706.996094 275.972656 706.265625 C 275.828125 705.539062 275.722656 704.804688 275.648438 704.066406 C 275.574219 703.328125 275.539062 702.585938 275.539062 701.84375 L 275.539062 664.699219 C 275.539062 664.304688 275.578125 663.914062 275.65625 663.527344 C 275.730469 663.140625 275.84375 662.765625 275.996094 662.398438 C 276.148438 662.035156 276.332031 661.6875 276.550781 661.359375 C 276.769531 661.03125 277.019531 660.726562 277.300781 660.449219 C 277.578125 660.167969 277.882812 659.917969 278.210938 659.699219 C 278.539062 659.480469 278.882812 659.296875 279.25 659.144531 C 279.613281 658.992188 279.988281 658.878906 280.375 658.804688 C 280.761719 658.726562 281.152344 658.6875 281.546875 658.6875 C 281.941406 658.6875 282.332031 658.726562 282.71875 658.800781 C 283.105469 658.878906 283.484375 658.992188 283.847656 659.144531 C 284.210938 659.296875 284.558594 659.480469 284.886719 659.699219 C 285.214844 659.917969 285.519531 660.167969 285.796875 660.449219 C 286.074219 660.726562 286.324219 661.03125 286.542969 661.359375 C 286.761719 661.6875 286.949219 662.035156 287.101562 662.398438 C 287.25 662.765625 287.363281 663.140625 287.441406 663.527344 C 287.519531 663.914062 287.558594 664.304688 287.558594 664.699219 L 287.558594 701.773438 C 287.558594 702.476562 287.625 703.167969 287.761719 703.855469 C 287.898438 704.542969 288.101562 705.210938 288.367188 705.859375 C 288.636719 706.507812 288.964844 707.121094 289.355469 707.703125 C 289.742188 708.285156 290.1875 708.824219 290.679688 709.320312 C 291.175781 709.816406 291.714844 710.257812 292.296875 710.648438 C 292.878906 711.039062 293.496094 711.367188 294.140625 711.636719 C 294.789062 711.902344 295.457031 712.105469 296.144531 712.242188 C 296.828125 712.378906 297.523438 712.449219 298.222656 712.449219 L 314.972656 712.449219 Z M 314.972656 712.410156 " fill-opacity="1" fill-rule="nonzero"/></g><path fill="#1d1d1b" d="M 442.511719 442.613281 C 442.621094 443.363281 442.691406 444.121094 442.722656 444.878906 C 442.757812 445.636719 442.75 446.394531 442.707031 447.152344 C 442.664062 447.910156 442.582031 448.664062 442.464844 449.414062 C 442.34375 450.164062 442.1875 450.90625 441.992188 451.636719 C 441.800781 452.371094 441.570312 453.09375 441.300781 453.804688 C 441.035156 454.515625 440.734375 455.210938 440.398438 455.890625 C 440.0625 456.570312 439.691406 457.234375 439.289062 457.875 C 438.886719 458.519531 438.449219 459.140625 437.984375 459.738281 C 437.519531 460.339844 437.023438 460.914062 436.503906 461.464844 C 435.980469 462.011719 435.429688 462.535156 434.851562 463.027344 C 434.277344 463.523438 433.679688 463.988281 433.054688 464.421875 C 432.433594 464.855469 431.789062 465.253906 431.128906 465.625 C 430.464844 465.992188 429.785156 466.328125 429.089844 466.628906 C 428.390625 466.929688 427.683594 467.195312 426.960938 467.425781 C 426.234375 467.652344 425.503906 467.84375 424.761719 468 C 424.019531 468.15625 423.269531 468.273438 422.515625 468.355469 C 421.761719 468.433594 421.003906 468.476562 420.246094 468.480469 C 419.488281 468.484375 418.730469 468.449219 417.976562 468.378906 C 417.21875 468.304688 416.472656 468.195312 415.726562 468.046875 C 414.984375 467.898438 414.25 467.714844 413.523438 467.492188 C 412.796875 467.269531 412.085938 467.011719 411.386719 466.71875 C 410.6875 466.425781 410.003906 466.097656 409.335938 465.734375 C 408.667969 465.371094 408.023438 464.976562 407.394531 464.550781 C 406.769531 464.125 406.164062 463.664062 405.585938 463.175781 C 405.003906 462.6875 404.449219 462.171875 403.921875 461.628906 C 403.390625 461.085938 402.890625 460.515625 402.417969 459.921875 C 401.949219 459.324219 401.507812 458.707031 401.097656 458.070312 C 400.6875 457.429688 400.3125 456.773438 399.96875 456.097656 C 399.625 455.417969 399.316406 454.726562 399.042969 454.019531 C 398.769531 453.3125 398.53125 452.589844 398.328125 451.859375 C 398.128906 451.128906 397.964844 450.386719 397.835938 449.640625 C 397.710938 448.890625 397.621094 448.136719 397.570312 447.382812 L 378.972656 276.921875 L 313.511719 443.609375 L 313.511719 445.636719 C 312.0625 448.175781 310.179688 450.335938 307.859375 452.113281 L 307.503906 452.398438 C 306.308594 453.476562 305.007812 454.402344 303.59375 455.171875 L 303.167969 455.386719 L 302.777344 455.601562 L 300.535156 455.601562 C 298.398438 456.363281 296.191406 456.78125 293.921875 456.84375 L 292.285156 456.84375 C 289.730469 456.773438 287.265625 456.261719 284.890625 455.316406 L 283.042969 455.316406 L 282.648438 455.101562 L 282.292969 454.886719 L 282.082031 454.886719 C 280.816406 454.214844 279.632812 453.417969 278.527344 452.503906 L 277.777344 451.828125 L 277.210938 451.292969 L 275.859375 450.9375 L 275.183594 450.191406 C 274.269531 449.085938 273.476562 447.898438 272.800781 446.632812 L 272.800781 446.421875 L 272.585938 446.066406 L 272.375 445.671875 L 272.375 444 L 205.707031 276.921875 L 187.179688 447.382812 C 187.101562 448.117188 186.988281 448.847656 186.839844 449.570312 C 186.691406 450.296875 186.503906 451.011719 186.285156 451.71875 C 186.066406 452.425781 185.8125 453.121094 185.523438 453.800781 C 185.234375 454.480469 184.914062 455.148438 184.558594 455.796875 C 184.207031 456.449219 183.820312 457.078125 183.40625 457.691406 C 182.992188 458.304688 182.546875 458.894531 182.074219 459.460938 C 181.601562 460.03125 181.101562 460.574219 180.574219 461.09375 C 180.046875 461.613281 179.496094 462.105469 178.917969 462.570312 C 178.34375 463.035156 177.75 463.472656 177.128906 463.878906 C 176.511719 464.285156 175.875 464.660156 175.222656 465.003906 C 174.566406 465.347656 173.894531 465.660156 173.210938 465.9375 C 172.527344 466.214844 171.828125 466.457031 171.117188 466.667969 C 170.410156 466.878906 169.691406 467.050781 168.964844 467.191406 C 168.238281 467.328125 167.507812 467.433594 166.769531 467.5 C 166.035156 467.566406 165.296875 467.597656 164.558594 467.589844 C 163.816406 467.585938 163.082031 467.542969 162.34375 467.464844 C 161.609375 467.386719 160.878906 467.273438 160.15625 467.125 C 159.429688 466.972656 158.714844 466.789062 158.011719 466.570312 C 157.304688 466.347656 156.609375 466.09375 155.929688 465.804688 C 155.25 465.519531 154.582031 465.195312 153.933594 464.84375 C 153.285156 464.488281 152.652344 464.105469 152.042969 463.6875 C 151.429688 463.273438 150.839844 462.828125 150.269531 462.355469 C 149.703125 461.882812 149.160156 461.378906 148.640625 460.851562 C 148.121094 460.324219 147.628906 459.773438 147.164062 459.199219 C 146.699219 458.625 146.265625 458.027344 145.859375 457.410156 C 145.453125 456.789062 145.078125 456.152344 144.734375 455.496094 C 144.390625 454.84375 144.078125 454.171875 143.800781 453.488281 C 143.523438 452.800781 143.28125 452.101562 143.070312 451.394531 C 142.859375 450.683594 142.6875 449.964844 142.546875 449.238281 C 142.410156 448.511719 142.308594 447.78125 142.238281 447.042969 C 142.171875 446.304688 142.140625 445.566406 142.148438 444.828125 C 142.152344 444.085938 142.195312 443.347656 142.273438 442.613281 L 164.105469 241.660156 C 164.636719 236.886719 166.035156 232.378906 168.300781 228.140625 C 169 226.832031 169.769531 225.574219 170.617188 224.359375 C 171.464844 223.140625 172.382812 221.980469 173.367188 220.875 C 174.351562 219.769531 175.398438 218.722656 176.507812 217.742188 C 177.613281 216.757812 178.777344 215.84375 179.992188 215 C 181.210938 214.15625 182.472656 213.386719 183.78125 212.691406 C 185.089844 211.996094 186.433594 211.382812 187.8125 210.847656 C 189.195312 210.3125 190.601562 209.859375 192.035156 209.492188 C 193.472656 209.121094 194.921875 208.839844 196.390625 208.644531 L 197.597656 208.644531 C 199.507812 208.5 201.414062 208.5 203.324219 208.644531 C 205.628906 208.734375 207.902344 209.042969 210.152344 209.570312 C 211.621094 209.90625 213.0625 210.328125 214.480469 210.84375 C 215.898438 211.355469 217.277344 211.953125 218.621094 212.632812 C 219.96875 213.3125 221.265625 214.074219 222.519531 214.914062 C 223.769531 215.753906 224.964844 216.667969 226.105469 217.652344 C 227.246094 218.636719 228.324219 219.6875 229.335938 220.804688 C 230.351562 221.921875 231.289062 223.097656 232.160156 224.328125 C 233.03125 225.558594 233.820312 226.839844 234.535156 228.167969 C 235.25 229.496094 235.878906 230.863281 236.425781 232.269531 L 292.394531 373.804688 L 348.253906 231.804688 C 348.90625 230.132812 349.675781 228.515625 350.5625 226.953125 C 351.453125 225.390625 352.445312 223.898438 353.550781 222.480469 C 354.652344 221.066406 355.855469 219.734375 357.148438 218.492188 C 358.445312 217.246094 359.824219 216.105469 361.289062 215.058594 C 362.75 214.015625 364.28125 213.085938 365.875 212.261719 C 367.472656 211.441406 369.121094 210.738281 370.820312 210.15625 C 372.519531 209.574219 374.25 209.117188 376.015625 208.785156 C 377.78125 208.457031 379.5625 208.253906 381.355469 208.179688 C 383.261719 208.039062 385.171875 208.039062 387.078125 208.179688 L 388.289062 208.179688 C 389.757812 208.378906 391.207031 208.660156 392.640625 209.03125 C 394.074219 209.402344 395.480469 209.855469 396.863281 210.390625 C 398.242188 210.925781 399.585938 211.539062 400.894531 212.234375 C 402.203125 212.929688 403.464844 213.699219 404.679688 214.546875 C 405.898438 215.390625 407.058594 216.304688 408.167969 217.285156 C 409.277344 218.265625 410.324219 219.3125 411.308594 220.417969 C 412.292969 221.523438 413.210938 222.683594 414.058594 223.898438 C 414.90625 225.113281 415.679688 226.371094 416.378906 227.679688 C 417.46875 229.785156 418.382812 231.96875 419.117188 234.226562 C 419.835938 236.546875 420.324219 238.921875 420.574219 241.339844 Z M 442.511719 442.613281 " fill-opacity="1" fill-rule="nonzero"/><g clip-path="url(#52ebc53645)"><path fill="#1d1d1b" d="M 213.386719 717.785156 C 213.460938 718.191406 213.492188 718.601562 213.480469 719.011719 C 213.472656 719.425781 213.417969 719.832031 213.324219 720.234375 C 213.230469 720.636719 213.097656 721.023438 212.925781 721.398438 C 212.753906 721.773438 212.542969 722.128906 212.296875 722.460938 C 212.054688 722.789062 211.777344 723.09375 211.46875 723.371094 C 211.164062 723.644531 210.832031 723.886719 210.472656 724.09375 C 210.117188 724.300781 209.742188 724.46875 209.351562 724.601562 C 208.960938 724.730469 208.558594 724.820312 208.152344 724.871094 C 207.742188 724.917969 207.332031 724.925781 206.921875 724.890625 C 206.507812 724.855469 206.105469 724.777344 205.710938 724.660156 C 205.316406 724.542969 204.9375 724.382812 204.574219 724.1875 C 204.210938 723.992188 203.871094 723.761719 203.554688 723.496094 C 203.238281 723.234375 202.953125 722.9375 202.695312 722.613281 C 202.441406 722.289062 202.21875 721.945312 202.035156 721.574219 C 201.851562 721.207031 201.703125 720.824219 201.597656 720.421875 C 201.492188 720.023438 201.425781 719.621094 201.402344 719.207031 L 196.246094 675.695312 L 177.792969 718.390625 C 177.636719 718.753906 177.445312 719.097656 177.222656 719.425781 C 176.996094 719.753906 176.742188 720.054688 176.457031 720.328125 C 176.175781 720.605469 175.867188 720.851562 175.535156 721.070312 C 175.203125 721.285156 174.851562 721.464844 174.484375 721.613281 C 174.117188 721.761719 173.738281 721.871094 173.347656 721.941406 C 172.957031 722.015625 172.566406 722.046875 172.167969 722.042969 C 171.773438 722.039062 171.378906 721.996094 170.992188 721.914062 C 170.605469 721.832031 170.230469 721.710938 169.863281 721.554688 C 169.15625 721.25 168.535156 720.824219 167.992188 720.277344 C 167.453125 719.730469 167.03125 719.101562 166.734375 718.390625 L 148.28125 675.695312 L 143.089844 719.207031 C 143.066406 719.621094 143.003906 720.023438 142.894531 720.425781 C 142.789062 720.824219 142.644531 721.207031 142.457031 721.574219 C 142.273438 721.945312 142.054688 722.289062 141.796875 722.613281 C 141.542969 722.9375 141.257812 723.230469 140.941406 723.496094 C 140.625 723.761719 140.285156 723.992188 139.921875 724.1875 C 139.558594 724.382812 139.179688 724.542969 138.785156 724.660156 C 138.386719 724.777344 137.984375 724.855469 137.574219 724.890625 C 137.164062 724.925781 136.753906 724.917969 136.34375 724.871094 C 135.933594 724.820312 135.535156 724.730469 135.140625 724.601562 C 134.75 724.46875 134.378906 724.300781 134.019531 724.09375 C 133.664062 723.886719 133.332031 723.644531 133.023438 723.371094 C 132.71875 723.09375 132.441406 722.789062 132.195312 722.460938 C 131.949219 722.128906 131.742188 721.773438 131.570312 721.398438 C 131.394531 721.023438 131.261719 720.636719 131.167969 720.234375 C 131.074219 719.832031 131.023438 719.425781 131.011719 719.011719 C 131.003906 718.601562 131.035156 718.191406 131.109375 717.785156 L 137.1875 667.261719 C 137.285156 666.464844 137.480469 665.695312 137.769531 664.945312 C 138.054688 664.199219 138.433594 663.496094 138.894531 662.839844 C 139.355469 662.1875 139.890625 661.597656 140.5 661.074219 C 141.105469 660.554688 141.769531 660.113281 142.488281 659.753906 C 142.863281 659.546875 143.253906 659.371094 143.660156 659.222656 L 144.121094 659.222656 C 144.699219 659.019531 145.292969 658.890625 145.898438 658.828125 C 147.433594 658.617188 148.9375 658.742188 150.414062 659.210938 C 151.890625 659.679688 153.195312 660.441406 154.328125 661.496094 C 154.777344 661.917969 155.179688 662.382812 155.535156 662.886719 C 155.796875 663.25 156.035156 663.628906 156.246094 664.023438 C 156.378906 664.242188 156.496094 664.46875 156.601562 664.699219 L 172.246094 700.992188 L 187.890625 664.414062 C 188.214844 663.6875 188.617188 663.011719 189.101562 662.378906 C 189.582031 661.75 190.132812 661.1875 190.753906 660.6875 C 191.371094 660.1875 192.039062 659.769531 192.757812 659.433594 C 193.476562 659.09375 194.226562 658.847656 195.003906 658.6875 C 195.589844 658.566406 196.183594 658.484375 196.78125 658.4375 L 198.628906 658.4375 C 200.191406 658.613281 201.632812 659.125 202.953125 659.964844 C 204.277344 660.808594 205.347656 661.902344 206.167969 663.242188 C 206.507812 663.792969 206.777344 664.371094 206.984375 664.984375 C 207.136719 665.363281 207.242188 665.757812 207.304688 666.160156 C 207.324219 666.417969 207.324219 666.679688 207.304688 666.941406 Z M 213.386719 717.785156 " fill-opacity="1" fill-rule="nonzero"/></g><g clip-path="url(#e666600ef0)"><path fill="#1d1d1b" d="M 341.28125 718.460938 C 341.28125 718.859375 341.246094 719.25 341.167969 719.640625 C 341.089844 720.03125 340.976562 720.410156 340.824219 720.773438 C 340.671875 721.140625 340.484375 721.492188 340.265625 721.820312 C 340.042969 722.152344 339.792969 722.457031 339.511719 722.738281 C 339.230469 723.019531 338.925781 723.269531 338.597656 723.488281 C 338.265625 723.710938 337.917969 723.898438 337.550781 724.046875 C 337.183594 724.199219 336.808594 724.316406 336.417969 724.394531 C 336.027344 724.46875 335.636719 724.507812 335.238281 724.507812 C 334.839844 724.507812 334.449219 724.46875 334.058594 724.394531 C 333.671875 724.316406 333.292969 724.199219 332.925781 724.046875 C 332.558594 723.898438 332.210938 723.710938 331.878906 723.488281 C 331.550781 723.269531 331.246094 723.019531 330.964844 722.738281 C 330.683594 722.457031 330.433594 722.152344 330.210938 721.820312 C 329.992188 721.492188 329.804688 721.140625 329.652344 720.773438 C 329.503906 720.40625 329.386719 720.03125 329.308594 719.640625 C 329.234375 719.25 329.195312 718.859375 329.195312 718.460938 L 329.195312 670.75 L 312.019531 670.75 C 311.625 670.75 311.230469 670.710938 310.839844 670.632812 C 310.453125 670.554688 310.074219 670.441406 309.707031 670.289062 C 309.339844 670.136719 308.992188 669.949219 308.660156 669.730469 C 308.332031 669.507812 308.027344 669.257812 307.746094 668.976562 C 307.464844 668.695312 307.214844 668.390625 306.996094 668.058594 C 306.773438 667.730469 306.585938 667.382812 306.4375 667.015625 C 306.285156 666.648438 306.167969 666.269531 306.089844 665.878906 C 306.015625 665.492188 305.976562 665.097656 305.976562 664.699219 C 305.976562 664.304688 306.015625 663.910156 306.089844 663.519531 C 306.167969 663.128906 306.285156 662.753906 306.4375 662.386719 C 306.585938 662.019531 306.773438 661.667969 306.996094 661.339844 C 307.214844 661.007812 307.464844 660.703125 307.746094 660.421875 C 308.027344 660.140625 308.332031 659.890625 308.660156 659.671875 C 308.992188 659.449219 309.339844 659.265625 309.707031 659.113281 C 310.074219 658.960938 310.453125 658.84375 310.839844 658.769531 C 311.230469 658.691406 311.625 658.652344 312.019531 658.652344 L 358.457031 658.652344 C 358.855469 658.652344 359.246094 658.691406 359.636719 658.769531 C 360.027344 658.84375 360.402344 658.960938 360.769531 659.113281 C 361.136719 659.265625 361.484375 659.449219 361.816406 659.671875 C 362.144531 659.890625 362.449219 660.140625 362.730469 660.421875 C 363.011719 660.703125 363.261719 661.007812 363.484375 661.339844 C 363.703125 661.667969 363.890625 662.019531 364.042969 662.386719 C 364.191406 662.753906 364.308594 663.128906 364.386719 663.519531 C 364.460938 663.910156 364.5 664.304688 364.5 664.699219 C 364.5 665.097656 364.460938 665.492188 364.386719 665.878906 C 364.308594 666.269531 364.191406 666.648438 364.042969 667.015625 C 363.890625 667.382812 363.703125 667.730469 363.484375 668.058594 C 363.261719 668.390625 363.011719 668.695312 362.730469 668.976562 C 362.449219 669.257812 362.144531 669.507812 361.816406 669.730469 C 361.484375 669.949219 361.136719 670.136719 360.769531 670.289062 C 360.402344 670.441406 360.027344 670.554688 359.636719 670.632812 C 359.246094 670.710938 358.855469 670.75 358.457031 670.75 L 341.28125 670.75 Z M 341.28125 718.460938 " fill-opacity="1" fill-rule="nonzero"/></g><g clip-path="url(#0e5603e002)"><path fill="#1d1d1b" d="M 378.972656 718.460938 C 378.972656 718.859375 378.933594 719.25 378.855469 719.640625 C 378.78125 720.03125 378.664062 720.410156 378.511719 720.773438 C 378.359375 721.140625 378.175781 721.492188 377.953125 721.820312 C 377.734375 722.152344 377.484375 722.457031 377.203125 722.738281 C 376.921875 723.019531 376.617188 723.269531 376.285156 723.488281 C 375.957031 723.710938 375.609375 723.898438 375.242188 724.046875 C 374.875 724.199219 374.496094 724.316406 374.109375 724.394531 C 373.71875 724.46875 373.324219 724.507812 372.929688 724.507812 C 372.53125 724.507812 372.136719 724.46875 371.75 724.394531 C 371.359375 724.316406 370.980469 724.199219 370.617188 724.046875 C 370.25 723.898438 369.898438 723.710938 369.570312 723.488281 C 369.238281 723.269531 368.933594 723.019531 368.652344 722.738281 C 368.375 722.457031 368.125 722.152344 367.902344 721.820312 C 367.683594 721.492188 367.496094 721.140625 367.34375 720.773438 C 367.191406 720.40625 367.078125 720.03125 367 719.640625 C 366.921875 719.25 366.882812 718.859375 366.882812 718.460938 L 366.882812 664.699219 C 366.882812 664.304688 366.921875 663.910156 367 663.519531 C 367.078125 663.128906 367.191406 662.753906 367.34375 662.386719 C 367.496094 662.019531 367.683594 661.667969 367.902344 661.339844 C 368.125 661.007812 368.375 660.703125 368.652344 660.421875 C 368.933594 660.140625 369.238281 659.890625 369.570312 659.671875 C 369.898438 659.449219 370.25 659.265625 370.617188 659.113281 C 370.980469 658.960938 371.359375 658.84375 371.75 658.769531 C 372.136719 658.691406 372.53125 658.652344 372.929688 658.652344 C 373.324219 658.652344 373.71875 658.691406 374.109375 658.769531 C 374.496094 658.84375 374.875 658.960938 375.242188 659.113281 C 375.609375 659.265625 375.957031 659.449219 376.285156 659.671875 C 376.617188 659.890625 376.921875 660.140625 377.203125 660.421875 C 377.484375 660.703125 377.734375 661.007812 377.953125 661.339844 C 378.175781 661.667969 378.359375 662.019531 378.511719 662.386719 C 378.664062 662.753906 378.78125 663.128906 378.855469 663.519531 C 378.933594 663.910156 378.972656 664.304688 378.972656 664.699219 Z M 378.972656 718.460938 " fill-opacity="1" fill-rule="nonzero"/></g><g clip-path="url(#dde59a3e84)"><path fill="#1d1d1b" d="M 502.746094 717.785156 C 502.769531 718.167969 502.761719 718.546875 502.710938 718.929688 C 502.664062 719.308594 502.582031 719.679688 502.464844 720.046875 C 502.347656 720.410156 502.195312 720.761719 502.011719 721.097656 C 501.828125 721.433594 501.613281 721.746094 501.367188 722.042969 C 501.125 722.335938 500.855469 722.605469 500.558594 722.851562 C 500.265625 723.09375 499.949219 723.308594 499.613281 723.492188 C 499.277344 723.675781 498.925781 723.824219 498.5625 723.941406 C 498.195312 724.058594 497.824219 724.140625 497.445312 724.1875 C 497.0625 724.234375 496.683594 724.246094 496.300781 724.21875 C 495.917969 724.191406 495.542969 724.128906 495.171875 724.03125 C 494.800781 723.933594 494.445312 723.804688 494.097656 723.636719 C 493.753906 723.472656 493.425781 723.273438 493.121094 723.046875 C 492.8125 722.820312 492.527344 722.5625 492.269531 722.28125 C 492.007812 722 491.777344 721.695312 491.578125 721.371094 C 491.375 721.046875 491.207031 720.703125 491.070312 720.347656 C 490.933594 719.988281 490.828125 719.621094 490.761719 719.242188 L 488.628906 702.164062 L 467.863281 702.164062 C 467.449219 702.195312 467.035156 702.1875 466.621094 702.132812 C 466.210938 702.078125 465.804688 701.984375 465.414062 701.847656 C 465.019531 701.710938 464.644531 701.535156 464.289062 701.320312 C 463.929688 701.105469 463.601562 700.855469 463.292969 700.570312 C 462.988281 700.289062 462.714844 699.976562 462.472656 699.636719 C 462.234375 699.296875 462.027344 698.9375 461.863281 698.554688 C 461.695312 698.175781 461.570312 697.777344 461.484375 697.371094 C 461.398438 696.964844 461.355469 696.550781 461.355469 696.132812 C 461.355469 695.71875 461.398438 695.304688 461.484375 694.898438 C 461.570312 694.488281 461.695312 694.09375 461.863281 693.714844 C 462.027344 693.332031 462.234375 692.96875 462.472656 692.628906 C 462.714844 692.292969 462.988281 691.980469 463.292969 691.695312 C 463.601562 691.414062 463.929688 691.164062 464.289062 690.949219 C 464.644531 690.734375 465.019531 690.558594 465.414062 690.421875 C 465.804688 690.285156 466.210938 690.191406 466.621094 690.136719 C 467.035156 690.082031 467.449219 690.070312 467.863281 690.105469 L 487.277344 690.105469 L 486.710938 685.65625 C 486.710938 685.65625 486.710938 685.371094 486.710938 685.230469 C 486.550781 684.183594 486.328125 683.152344 486.035156 682.132812 C 485.707031 681.042969 485.292969 679.988281 484.789062 678.96875 C 484.261719 677.777344 483.578125 676.6875 482.738281 675.691406 C 481.898438 674.695312 480.9375 673.839844 479.855469 673.117188 C 478.773438 672.398438 477.609375 671.839844 476.371094 671.449219 C 475.128906 671.058594 473.859375 670.847656 472.558594 670.820312 C 471.527344 670.828125 470.507812 670.945312 469.5 671.175781 C 468.558594 671.410156 467.65625 671.753906 466.796875 672.207031 C 465.601562 672.898438 464.507812 673.726562 463.515625 674.6875 C 462.523438 675.648438 461.660156 676.714844 460.929688 677.886719 C 460.195312 679.058594 459.617188 680.300781 459.191406 681.617188 C 458.765625 682.929688 458.503906 684.277344 458.40625 685.65625 L 454.636719 719.242188 C 454.59375 719.636719 454.511719 720.019531 454.394531 720.398438 C 454.277344 720.773438 454.121094 721.132812 453.929688 721.480469 C 453.742188 721.828125 453.519531 722.152344 453.265625 722.453125 C 453.011719 722.753906 452.730469 723.03125 452.421875 723.277344 C 452.113281 723.523438 451.785156 723.738281 451.4375 723.921875 C 451.085938 724.101562 450.722656 724.25 450.34375 724.359375 C 449.964844 724.46875 449.578125 724.542969 449.183594 724.574219 C 448.792969 724.609375 448.398438 724.605469 448.007812 724.5625 C 447.613281 724.519531 447.230469 724.4375 446.851562 724.320312 C 446.476562 724.199219 446.117188 724.046875 445.769531 723.855469 C 445.425781 723.664062 445.101562 723.445312 444.796875 723.191406 C 444.496094 722.933594 444.222656 722.65625 443.976562 722.347656 C 443.726562 722.039062 443.515625 721.710938 443.332031 721.359375 C 443.148438 721.007812 443.003906 720.644531 442.894531 720.265625 C 442.785156 719.886719 442.710938 719.5 442.675781 719.105469 C 442.644531 718.710938 442.648438 718.320312 442.691406 717.925781 L 446.460938 684.339844 C 446.660156 681.964844 447.144531 679.648438 447.917969 677.390625 C 448.691406 675.136719 449.730469 673.007812 451.027344 671.007812 C 452.328125 669.007812 453.851562 667.199219 455.601562 665.578125 C 457.347656 663.957031 459.265625 662.574219 461.359375 661.425781 C 463.0625 660.570312 464.839844 659.917969 466.691406 659.46875 C 468.621094 659.019531 470.578125 658.796875 472.558594 658.792969 C 473.761719 658.800781 474.960938 658.890625 476.152344 659.070312 C 477.34375 659.246094 478.515625 659.507812 479.671875 659.851562 C 480.828125 660.195312 481.953125 660.621094 483.046875 661.125 C 484.140625 661.628906 485.191406 662.207031 486.207031 662.859375 C 487.21875 663.511719 488.179688 664.234375 489.089844 665.027344 C 489.996094 665.816406 490.847656 666.667969 491.636719 667.578125 C 492.425781 668.488281 493.144531 669.453125 493.796875 670.464844 C 494.449219 671.480469 495.027344 672.535156 495.527344 673.628906 C 496.351562 675.28125 497.039062 676.992188 497.589844 678.753906 C 498.054688 680.378906 498.398438 682.027344 498.621094 683.699219 C 498.65625 683.878906 498.65625 684.054688 498.621094 684.234375 Z M 502.746094 717.785156 " fill-opacity="1" fill-rule="nonzero"/></g><g clip-path="url(#d6c2570c30)"><path fill="#1d1d1b" d="M 521.199219 718.460938 C 521.230469 718.875 521.21875 719.289062 521.167969 719.703125 C 521.113281 720.117188 521.019531 720.519531 520.878906 720.914062 C 520.742188 721.308594 520.566406 721.683594 520.355469 722.039062 C 520.140625 722.398438 519.890625 722.726562 519.609375 723.035156 C 519.324219 723.339844 519.011719 723.613281 518.675781 723.855469 C 518.335938 724.097656 517.972656 724.300781 517.59375 724.464844 C 517.210938 724.632812 516.816406 724.757812 516.410156 724.84375 C 516 724.929688 515.589844 724.972656 515.171875 724.972656 C 514.757812 724.972656 514.34375 724.929688 513.9375 724.84375 C 513.527344 724.757812 513.132812 724.632812 512.753906 724.464844 C 512.371094 724.300781 512.011719 724.097656 511.671875 723.855469 C 511.332031 723.613281 511.019531 723.339844 510.738281 723.035156 C 510.453125 722.726562 510.207031 722.398438 509.992188 722.039062 C 509.777344 721.683594 509.601562 721.308594 509.464844 720.914062 C 509.328125 720.519531 509.230469 720.117188 509.179688 719.703125 C 509.125 719.289062 509.113281 718.875 509.144531 718.460938 L 509.144531 668.648438 C 509.109375 668.304688 509.109375 667.960938 509.144531 667.617188 C 509.222656 666.949219 509.378906 666.296875 509.609375 665.660156 L 510.105469 664.59375 C 510.625 663.667969 511.292969 662.863281 512.109375 662.183594 C 512.921875 661.503906 513.832031 660.992188 514.835938 660.644531 L 515.652344 660.429688 L 517.894531 660.429688 C 519.140625 660.484375 520.324219 660.796875 521.433594 661.367188 C 522.546875 661.9375 523.488281 662.71875 524.257812 663.703125 L 556.257812 704.726562 L 556.257812 664.699219 C 556.257812 664.304688 556.296875 663.910156 556.375 663.519531 C 556.453125 663.128906 556.566406 662.753906 556.71875 662.386719 C 556.871094 662.019531 557.054688 661.667969 557.277344 661.339844 C 557.496094 661.007812 557.746094 660.703125 558.027344 660.421875 C 558.308594 660.140625 558.613281 659.890625 558.945312 659.671875 C 559.273438 659.449219 559.621094 659.265625 559.988281 659.113281 C 560.355469 658.960938 560.734375 658.84375 561.125 658.769531 C 561.511719 658.691406 561.90625 658.652344 562.304688 658.652344 C 562.699219 658.652344 563.09375 658.691406 563.480469 658.769531 C 563.871094 658.84375 564.25 658.960938 564.617188 659.113281 C 564.984375 659.265625 565.332031 659.449219 565.660156 659.671875 C 565.992188 659.890625 566.296875 660.140625 566.578125 660.421875 C 566.859375 660.703125 567.109375 661.007812 567.328125 661.339844 C 567.550781 661.667969 567.734375 662.019531 567.886719 662.386719 C 568.039062 662.753906 568.152344 663.128906 568.230469 663.519531 C 568.308594 663.910156 568.347656 664.304688 568.347656 664.699219 L 568.347656 714.511719 C 568.339844 715.789062 568.0625 717.007812 567.507812 718.160156 C 566.953125 719.3125 566.179688 720.289062 565.183594 721.09375 C 564.796875 721.417969 564.382812 721.703125 563.9375 721.949219 C 563.699219 722.085938 563.449219 722.207031 563.191406 722.304688 L 562.695312 722.515625 C 561.632812 722.886719 560.542969 723.042969 559.421875 722.980469 C 558.300781 722.917969 557.234375 722.644531 556.222656 722.160156 L 555.441406 721.769531 C 555.015625 721.503906 554.625 721.195312 554.265625 720.84375 C 553.988281 720.601562 553.726562 720.339844 553.484375 720.0625 L 553.269531 719.8125 L 521.199219 678.648438 Z M 521.199219 718.460938 " fill-opacity="1" fill-rule="nonzero"/></g><g clip-path="url(#2a2edf86db)"><path fill="#1d1d1b" d="M 615.496094 712.410156 C 615.894531 712.410156 616.285156 712.449219 616.675781 712.527344 C 617.066406 712.601562 617.445312 712.714844 617.8125 712.867188 C 618.179688 713.019531 618.53125 713.207031 618.863281 713.425781 C 619.191406 713.644531 619.5 713.898438 619.78125 714.179688 C 620.0625 714.457031 620.3125 714.765625 620.535156 715.09375 C 620.753906 715.425781 620.941406 715.773438 621.09375 716.140625 C 621.246094 716.507812 621.363281 716.886719 621.441406 717.277344 C 621.519531 717.667969 621.558594 718.0625 621.558594 718.460938 C 621.558594 718.859375 621.519531 719.253906 621.441406 719.644531 C 621.363281 720.03125 621.246094 720.410156 621.09375 720.777344 C 620.941406 721.148438 620.753906 721.496094 620.535156 721.824219 C 620.3125 722.15625 620.0625 722.460938 619.78125 722.742188 C 619.5 723.023438 619.191406 723.273438 618.863281 723.496094 C 618.53125 723.714844 618.179688 723.902344 617.8125 724.054688 C 617.445312 724.203125 617.066406 724.320312 616.675781 724.394531 C 616.285156 724.472656 615.894531 724.511719 615.496094 724.507812 L 597.71875 724.507812 C 596.9375 724.507812 596.160156 724.472656 595.386719 724.394531 C 594.609375 724.316406 593.839844 724.203125 593.078125 724.050781 C 592.3125 723.898438 591.558594 723.710938 590.8125 723.484375 C 590.066406 723.257812 589.332031 722.996094 588.613281 722.695312 C 587.894531 722.398438 587.191406 722.066406 586.503906 721.699219 C 585.816406 721.332031 585.148438 720.929688 584.5 720.496094 C 583.855469 720.0625 583.230469 719.601562 582.625 719.105469 C 582.023438 718.613281 581.449219 718.089844 580.898438 717.539062 C 580.347656 716.984375 579.824219 716.410156 579.328125 715.808594 C 578.835938 715.203125 578.371094 714.578125 577.9375 713.929688 C 577.503906 713.28125 577.105469 712.613281 576.738281 711.925781 C 576.371094 711.238281 576.039062 710.535156 575.742188 709.816406 C 575.441406 709.09375 575.179688 708.363281 574.953125 707.617188 C 574.726562 706.871094 574.539062 706.113281 574.386719 705.351562 C 574.234375 704.585938 574.121094 703.816406 574.042969 703.039062 C 573.96875 702.261719 573.929688 701.484375 573.929688 700.707031 L 573.929688 682.523438 C 573.933594 681.746094 573.972656 680.96875 574.050781 680.195312 C 574.128906 679.417969 574.246094 678.648438 574.398438 677.886719 C 574.550781 677.121094 574.742188 676.367188 574.96875 675.625 C 575.199219 674.878906 575.460938 674.148438 575.757812 673.425781 C 576.058594 672.707031 576.390625 672.003906 576.757812 671.320312 C 577.128906 670.632812 577.527344 669.964844 577.960938 669.316406 C 578.394531 668.671875 578.855469 668.046875 579.351562 667.445312 C 579.84375 666.84375 580.367188 666.265625 580.917969 665.714844 C 581.46875 665.164062 582.042969 664.640625 582.644531 664.148438 C 583.246094 663.652344 583.871094 663.1875 584.519531 662.757812 C 585.164062 662.324219 585.832031 661.921875 586.519531 661.554688 C 587.203125 661.1875 587.90625 660.851562 588.625 660.554688 C 589.34375 660.253906 590.074219 659.992188 590.820312 659.761719 C 591.5625 659.535156 592.316406 659.34375 593.082031 659.191406 C 593.84375 659.039062 594.613281 658.921875 595.386719 658.84375 C 596.164062 658.765625 596.9375 658.726562 597.71875 658.722656 L 615.496094 658.722656 C 615.890625 658.722656 616.285156 658.761719 616.675781 658.839844 C 617.0625 658.917969 617.441406 659.03125 617.808594 659.183594 C 618.175781 659.335938 618.523438 659.519531 618.855469 659.742188 C 619.183594 659.960938 619.488281 660.214844 619.769531 660.496094 C 620.050781 660.773438 620.300781 661.082031 620.519531 661.410156 C 620.742188 661.742188 620.929688 662.089844 621.078125 662.457031 C 621.230469 662.824219 621.347656 663.203125 621.421875 663.589844 C 621.5 663.980469 621.539062 664.375 621.539062 664.769531 C 621.539062 665.167969 621.5 665.5625 621.421875 665.953125 C 621.347656 666.339844 621.230469 666.71875 621.078125 667.085938 C 620.929688 667.453125 620.742188 667.800781 620.519531 668.132812 C 620.300781 668.460938 620.050781 668.765625 619.769531 669.046875 C 619.488281 669.328125 619.183594 669.578125 618.855469 669.800781 C 618.523438 670.019531 618.175781 670.207031 617.808594 670.359375 C 617.441406 670.511719 617.0625 670.625 616.675781 670.703125 C 616.285156 670.78125 615.890625 670.820312 615.496094 670.820312 L 597.71875 670.820312 C 596.148438 670.839844 594.644531 671.15625 593.203125 671.773438 C 591.761719 672.386719 590.492188 673.257812 589.398438 674.378906 C 588.273438 675.464844 587.402344 676.726562 586.785156 678.164062 C 586.167969 679.601562 585.855469 681.101562 585.839844 682.667969 L 585.839844 700.847656 C 585.847656 701.621094 585.925781 702.386719 586.078125 703.140625 C 586.234375 703.898438 586.457031 704.632812 586.757812 705.34375 C 587.054688 706.058594 587.417969 706.734375 587.847656 707.375 C 588.277344 708.015625 588.761719 708.609375 589.308594 709.15625 C 589.855469 709.703125 590.449219 710.1875 591.089844 710.617188 C 591.730469 711.050781 592.40625 711.414062 593.117188 711.710938 C 593.828125 712.007812 594.5625 712.234375 595.320312 712.386719 C 596.074219 712.542969 596.839844 712.621094 597.609375 712.625 L 615.390625 712.625 Z M 615.496094 712.410156 " fill-opacity="1" fill-rule="nonzero"/></g><g clip-path="url(#f2ef8ed41e)"><path fill="#1d1d1b" d="M 650.449219 670.714844 C 648.324219 670.703125 646.273438 671.09375 644.300781 671.882812 C 642.324219 672.667969 640.570312 673.796875 639.035156 675.265625 C 637.5625 676.652344 636.421875 678.273438 635.613281 680.125 C 634.800781 681.980469 634.390625 683.917969 634.375 685.941406 L 634.375 697.21875 C 634.382812 699.238281 634.789062 701.175781 635.59375 703.03125 C 636.394531 704.886719 637.53125 706.507812 639 707.894531 C 640.535156 709.363281 642.289062 710.492188 644.261719 711.277344 C 646.238281 712.066406 648.285156 712.457031 650.410156 712.449219 C 652.535156 712.457031 654.585938 712.066406 656.558594 711.277344 C 658.535156 710.492188 660.289062 709.363281 661.824219 707.894531 C 663.296875 706.507812 664.4375 704.886719 665.246094 703.035156 C 666.058594 701.179688 666.46875 699.242188 666.484375 697.21875 L 666.484375 685.941406 C 666.46875 683.921875 666.058594 681.988281 665.253906 680.132812 C 664.453125 678.28125 663.320312 676.660156 661.859375 675.265625 C 660.316406 673.800781 658.554688 672.675781 656.574219 671.886719 C 654.59375 671.101562 652.542969 670.710938 650.410156 670.714844 M 650.410156 658.652344 C 652.234375 658.644531 654.042969 658.8125 655.835938 659.152344 C 657.625 659.496094 659.371094 660.003906 661.0625 660.679688 C 662.757812 661.355469 664.371094 662.191406 665.902344 663.175781 C 667.4375 664.164062 668.863281 665.289062 670.179688 666.550781 C 671.496094 667.796875 672.671875 669.164062 673.707031 670.648438 C 674.746094 672.132812 675.625 673.707031 676.34375 675.371094 C 677.058594 677.035156 677.605469 678.753906 677.972656 680.527344 C 678.34375 682.300781 678.53125 684.09375 678.539062 685.90625 L 678.539062 697.183594 C 678.53125 698.996094 678.34375 700.789062 677.972656 702.5625 C 677.605469 704.335938 677.058594 706.054688 676.34375 707.71875 C 675.625 709.382812 674.746094 710.957031 673.707031 712.441406 C 672.671875 713.925781 671.496094 715.292969 670.179688 716.539062 C 668.863281 717.800781 667.4375 718.925781 665.902344 719.914062 C 664.371094 720.898438 662.757812 721.730469 661.0625 722.410156 C 659.371094 723.085938 657.625 723.59375 655.835938 723.9375 C 654.042969 724.277344 652.234375 724.445312 650.410156 724.4375 C 648.589844 724.445312 646.78125 724.277344 644.988281 723.9375 C 643.199219 723.59375 641.453125 723.085938 639.761719 722.410156 C 638.066406 721.730469 636.453125 720.898438 634.917969 719.914062 C 633.386719 718.925781 631.960938 717.800781 630.640625 716.539062 C 629.332031 715.289062 628.164062 713.921875 627.128906 712.433594 C 626.097656 710.949219 625.222656 709.375 624.507812 707.710938 C 623.792969 706.046875 623.253906 704.332031 622.886719 702.558594 C 622.515625 700.785156 622.328125 698.996094 622.324219 697.183594 L 622.324219 685.90625 C 622.328125 684.09375 622.515625 682.304688 622.886719 680.53125 C 623.253906 678.757812 623.792969 677.042969 624.507812 675.378906 C 625.222656 673.714844 626.097656 672.140625 627.128906 670.65625 C 628.164062 669.167969 629.332031 667.800781 630.640625 666.550781 C 631.960938 665.289062 633.386719 664.164062 634.917969 663.175781 C 636.453125 662.191406 638.066406 661.355469 639.761719 660.679688 C 641.453125 660.003906 643.199219 659.496094 644.988281 659.152344 C 646.78125 658.8125 648.589844 658.644531 650.410156 658.652344 Z M 650.410156 658.652344 " fill-opacity="1" fill-rule="nonzero"/></g><g clip-path="url(#2e87f273ff)"><path fill="#1d1d1b" d="M 396.074219 670.75 L 396.074219 712.410156 L 419.402344 712.410156 C 419.898438 712.410156 420.394531 712.363281 420.882812 712.265625 C 421.371094 712.167969 421.847656 712.023438 422.308594 711.832031 C 422.769531 711.640625 423.207031 711.40625 423.621094 711.128906 C 424.035156 710.847656 424.417969 710.535156 424.769531 710.179688 C 425.121094 709.824219 425.433594 709.441406 425.710938 709.027344 C 425.988281 708.609375 426.21875 708.171875 426.40625 707.710938 C 426.597656 707.246094 426.738281 706.773438 426.835938 706.28125 C 426.929688 705.792969 426.976562 705.296875 426.972656 704.796875 C 426.976562 703.847656 426.804688 702.933594 426.460938 702.046875 C 426.117188 701.164062 425.625 700.371094 424.984375 699.675781 L 424.734375 699.460938 C 424.035156 698.734375 423.222656 698.175781 422.296875 697.78125 C 421.375 697.386719 420.40625 697.1875 419.402344 697.183594 L 411.363281 697.183594 C 410.96875 697.183594 410.574219 697.144531 410.1875 697.066406 C 409.796875 696.992188 409.417969 696.875 409.050781 696.722656 C 408.683594 696.570312 408.335938 696.386719 408.007812 696.164062 C 407.675781 695.945312 407.371094 695.695312 407.089844 695.414062 C 406.808594 695.132812 406.558594 694.824219 406.339844 694.496094 C 406.117188 694.164062 405.933594 693.816406 405.78125 693.449219 C 405.628906 693.082031 405.515625 692.703125 405.4375 692.316406 C 405.359375 691.925781 405.320312 691.53125 405.320312 691.136719 C 405.320312 690.738281 405.359375 690.34375 405.4375 689.957031 C 405.515625 689.566406 405.628906 689.1875 405.78125 688.820312 C 405.933594 688.453125 406.117188 688.105469 406.339844 687.773438 C 406.558594 687.445312 406.808594 687.140625 407.089844 686.859375 C 407.371094 686.578125 407.675781 686.328125 408.007812 686.105469 C 408.335938 685.886719 408.683594 685.699219 409.050781 685.546875 C 409.417969 685.394531 409.796875 685.28125 410.1875 685.203125 C 410.574219 685.125 410.96875 685.085938 411.363281 685.085938 L 414.101562 685.085938 C 415.871094 684.929688 417.386719 684.230469 418.652344 682.988281 C 419.335938 682.316406 419.863281 681.542969 420.234375 680.660156 C 420.605469 679.777344 420.789062 678.855469 420.789062 677.898438 C 420.789062 677.433594 420.742188 676.96875 420.652344 676.511719 C 420.558594 676.054688 420.425781 675.609375 420.246094 675.175781 C 420.066406 674.746094 419.847656 674.335938 419.589844 673.945312 C 419.328125 673.558594 419.035156 673.199219 418.703125 672.867188 C 418.375 672.539062 418.015625 672.242188 417.628906 671.984375 C 417.238281 671.722656 416.828125 671.503906 416.398438 671.324219 C 415.964844 671.148438 415.523438 671.011719 415.0625 670.921875 C 414.605469 670.828125 414.144531 670.785156 413.675781 670.785156 L 396.074219 670.785156 Z M 383.988281 691.207031 L 383.988281 664.949219 C 383.984375 664.117188 384.148438 663.324219 384.484375 662.566406 C 384.820312 661.78125 385.285156 661.082031 385.871094 660.464844 C 386.984375 659.398438 388.3125 658.832031 389.851562 658.757812 L 413.5 658.757812 C 414.128906 658.757812 414.757812 658.789062 415.382812 658.851562 C 416.011719 658.914062 416.632812 659.003906 417.25 659.128906 C 417.871094 659.25 418.480469 659.402344 419.082031 659.585938 C 419.683594 659.769531 420.277344 659.980469 420.859375 660.222656 C 421.441406 660.464844 422.011719 660.734375 422.566406 661.03125 C 423.121094 661.328125 423.660156 661.652344 424.183594 662.003906 C 424.710938 662.351562 425.214844 662.726562 425.703125 663.128906 C 426.1875 663.527344 426.65625 663.949219 427.101562 664.394531 C 427.546875 664.839844 427.96875 665.308594 428.367188 665.796875 C 428.769531 666.28125 429.144531 666.789062 429.492188 667.3125 C 429.84375 667.835938 430.167969 668.378906 430.464844 668.933594 C 430.761719 669.488281 431.027344 670.058594 431.269531 670.640625 C 431.511719 671.222656 431.722656 671.816406 431.90625 672.417969 C 432.089844 673.023438 432.242188 673.632812 432.363281 674.25 C 432.488281 674.871094 432.582031 675.492188 432.640625 676.121094 C 432.703125 676.746094 432.734375 677.375 432.734375 678.007812 C 432.722656 681.703125 431.738281 685.117188 429.785156 688.253906 C 431.074219 689.015625 432.257812 689.917969 433.339844 690.957031 L 433.730469 691.382812 C 435.457031 693.203125 436.78125 695.28125 437.710938 697.609375 C 438.636719 699.941406 439.101562 702.359375 439.097656 704.871094 C 439.097656 705.511719 439.066406 706.152344 439 706.792969 C 438.9375 707.433594 438.84375 708.066406 438.714844 708.699219 C 438.589844 709.328125 438.433594 709.953125 438.246094 710.566406 C 438.058594 711.179688 437.84375 711.785156 437.597656 712.378906 C 437.347656 712.972656 437.074219 713.554688 436.769531 714.121094 C 436.46875 714.6875 436.136719 715.238281 435.78125 715.773438 C 435.421875 716.304688 435.039062 716.820312 434.632812 717.320312 C 434.226562 717.816406 433.792969 718.292969 433.339844 718.746094 C 432.886719 719.199219 432.410156 719.632812 431.914062 720.039062 C 431.417969 720.449219 430.902344 720.832031 430.367188 721.1875 C 429.832031 721.546875 429.285156 721.875 428.71875 722.179688 C 428.152344 722.484375 427.570312 722.757812 426.976562 723.003906 C 426.382812 723.25 425.78125 723.46875 425.164062 723.65625 C 424.550781 723.84375 423.929688 724 423.296875 724.125 C 422.667969 724.253906 422.035156 724.347656 421.394531 724.410156 C 420.753906 724.476562 420.113281 724.507812 419.472656 724.507812 L 390.03125 724.507812 C 389.632812 724.507812 389.242188 724.46875 388.851562 724.394531 C 388.460938 724.316406 388.085938 724.199219 387.71875 724.046875 C 387.351562 723.898438 387.003906 723.710938 386.671875 723.488281 C 386.34375 723.269531 386.039062 723.019531 385.757812 722.738281 C 385.476562 722.457031 385.226562 722.152344 385.003906 721.820312 C 384.785156 721.492188 384.597656 721.140625 384.445312 720.773438 C 384.292969 720.410156 384.179688 720.03125 384.101562 719.640625 C 384.023438 719.25 383.988281 718.859375 383.988281 718.460938 Z M 383.988281 691.207031 " fill-opacity="1" fill-rule="nonzero"/></g></svg>