<svg viewBox="0 0 24 24" fill="none" xmlns="http://www.w3.org/2000/svg" class="m-icon m-icon-loadable" name="ShieldTask" loading="false"><path d="m21 8.378-.001-1.991c-.002-.983-.638-1.629-1.621-1.644a9.6 9.6 0 0 1-3.426-.689c-1.007-.4-1.978-.956-2.97-1.7-.629-.47-1.325-.472-1.96-.004l-.069.05c-.127.095-.247.183-.369.268-1.977 1.378-3.95 2.058-6.033 2.077-.892.009-1.542.68-1.546 1.595l-.001.536c-.004.83-.008 1.687.004 2.535q.004.34.005.683c.003.789.007 1.603.088 2.418.221 2.232 1.172 4.221 2.827 5.913C7.339 19.87 9.09 20.973 11.44 21.9a1.62 1.62 0 0 0 1.147-.01c1.946-.773 3.515-1.695 4.797-2.818 2.235-1.957 3.44-4.403 3.58-7.27.03-.586.023-1.17.016-1.736H21zm-5.226 2.128-4.216 4.227a.857.857 0 0 1-1.217.001l-2.114-2.112a.88.88 0 0 1-.007-1.236.86.86 0 0 1 1.223-.007l1.505 1.503 3.607-3.617a.86.86 0 0 1 1.223.005.88.88 0 0 1-.004 1.236" fill="currentColor"></path></svg>