<svg width="56" height="40" viewBox="0 0 56 40" fill="none" xmlns="http://www.w3.org/2000/svg"><path d="M25.5049 21.7692L26.7463 13.832H28.6971L27.4557 21.7692H25.5049Z" fill="#D0D2D7"/><path d="M19.7412 13.832H22.8447C24.7955 13.832 25.3275 15.0046 25.0615 16.3575C24.8842 17.53 24.0861 18.2516 23.0221 18.5222L24.9729 21.7692H22.4014L20.8939 18.6124L20.4506 21.7692H18.4111L19.7412 13.832ZM21.5147 15.3653L21.16 17.3496H21.7807C22.3127 17.3496 22.8447 16.8987 22.9334 16.3575C23.0221 15.8163 22.6674 15.3653 22.0467 15.3653H21.5147Z" fill="#D0D2D7"/><path d="M34.6377 21.7692L35.8791 13.832H37.9186L36.6772 21.7692H34.6377Z" fill="#D0D2D7"/><path d="M41.1994 15.5457L40.9334 16.8987H43.2389L42.9729 18.6124H40.6674L40.49 20.0555H42.8842L42.6182 21.7692H38.1846L39.426 13.832H43.8596L43.5936 15.5457H41.1994Z" fill="#D0D2D7"/><path d="M15.84 15.5457L15.6627 16.8987H17.9682L17.7022 18.6124H15.3967L15.1307 20.0555H17.5248L17.2588 21.7692H12.8252L14.0666 13.832H18.5002L18.2342 15.5457H15.84Z" fill="#D0D2D7"/><path d="M31.9777 15.5457L31.8004 16.8987H34.0172L33.7512 18.6124H31.5344L31.0023 21.7692H28.9629L30.2043 13.832H34.7266L34.4606 15.5457H31.9777Z" fill="#D0D2D7"/><path d="M47.673 13.832H45.0129L43.7715 21.7692H46.4316C48.9145 21.7692 50.9539 20.0555 51.3086 17.8006C51.4859 16.2673 50.7766 13.832 47.673 13.832ZM49.1805 17.7104C48.9145 19.1535 47.9391 20.0555 46.609 20.0555C46.4316 20.0555 46.2543 20.0555 46.077 20.0555L46.7863 15.5457C46.9637 15.5457 47.0523 15.5457 47.2297 15.5457C48.7371 15.5457 49.3578 16.6281 49.1805 17.7104Z" fill="#D0D2D7"/><path d="M4.66699 12.7494H8.39121L8.83457 18.5218C11.3174 14.1925 13.8002 10.0435 16.3717 5.89453H17.6131C14.9529 11.1258 12.2928 16.4473 9.72129 21.7689H6.97246L6.26309 15.365C6.08574 13.8317 5.81973 13.1101 4.66699 13.0199V12.7494Z" fill="#D0D2D7"/><path d="M9.72149 14.4628L12.6477 9.41184V9.23145H6.08594V9.41184L9.27813 10.855L9.54414 14.4628H9.72149Z" fill="#D0D2D7"/><path d="M21.3377 26.1885C20.8057 26.1885 20.3623 26.4591 20.0076 26.8199L20.451 23.6631H19.1209L18.1455 30.6081H19.4756L19.5643 30.0669C19.8303 30.4277 20.185 30.6983 20.717 30.6983C21.7811 30.6983 22.7564 29.7062 22.9338 28.4434C23.1111 27.1807 22.4018 26.1885 21.3377 26.1885ZM21.515 28.4434C21.4264 28.9846 20.983 29.4356 20.5396 29.4356C20.0963 29.4356 19.7416 28.9846 19.8303 28.4434C19.9189 27.9023 20.3623 27.4513 20.8057 27.4513C21.249 27.4513 21.6037 27.9023 21.515 28.4434Z" fill="#D0D2D7"/><path d="M26.6572 26.2783H28.1646L24.1744 32.7724H22.667L24.3518 30.0665L23.0217 26.2783H24.5291L25.2385 28.5332L26.6572 26.2783Z" fill="#D0D2D7"/><path d="M37.1209 30.6081H35.2588L37.3869 23.6631H39.249L37.1209 30.6081Z" fill="#D0D2D7"/><path d="M34.4607 23.6631L31.9779 28.1728L31.8006 23.6631H28.6084V23.9337C29.6725 23.9337 29.8498 24.1141 30.0271 24.9258L30.6479 30.6081H32.5986L36.5002 23.6631H34.4607Z" fill="#D0D2D7"/><path d="M46.6088 29.616L46.1654 30.6081H44.126L47.8502 23.6631H50.333L50.9537 30.6081H49.535H48.9143L48.8256 29.616H46.6088ZM47.2295 28.263H48.8256L48.6482 25.016L47.2295 28.263Z" fill="#D0D2D7"/><path d="M41.1998 30.7882C39.8697 30.7882 38.983 30.3372 38.3623 29.9765L39.249 28.6235C39.7811 28.9843 40.2244 29.3451 41.2885 29.3451C41.6432 29.3451 41.9092 29.2549 42.0865 28.9843C42.3525 28.5333 41.9979 28.2628 41.2885 27.902L40.9338 27.5412C39.8697 26.8196 39.3377 26.0981 39.8697 24.8353C40.2244 24.0236 41.0225 23.4824 42.4412 23.4824C43.4166 23.4824 44.3033 23.9334 44.8354 24.2942L43.7713 25.4667C43.2393 25.0157 42.7959 24.8353 42.3525 24.8353C41.9979 24.8353 41.6432 25.0157 41.5545 25.1961C41.3771 25.5569 41.6432 25.8275 42.1752 26.1883L42.6186 26.4589C43.9486 27.2706 44.2146 28.1726 43.9486 28.9843C43.5053 30.5176 42.3525 30.7882 41.1998 30.7882Z" fill="#D0D2D7"/></svg>