<svg width="132" height="132" viewBox="0 0 132 132" fill="none" xmlns="http://www.w3.org/2000/svg">
    <path
        d="M82.3585 62.2688L111.18 25.2615C112.57 23.4764 111.559 20.8534 109.33 20.4632L50.0356 10.0805C48.7125 9.84884 47.3967 10.5249 46.8145 11.7354L22.6571 61.9688C21.7951 63.7612 22.8841 65.881 24.8432 66.224L48.2364 70.3202C48.8568 70.4289 49.2236 71.0771 48.9971 71.6648L34.0741 110.389C33.0496 113.048 35.9603 115.503 38.4083 114.046L106.708 73.3784C109.098 71.9549 108.431 68.3257 105.69 67.8457L82.9749 63.8682C82.232 63.7382 81.895 62.8638 82.3585 62.2688Z"
        fill="#C1EC18" stroke="#384B00" stroke-width="2" stroke-linecap="round" stroke-linejoin="round"/>
    <path
        d="M47.4539 12.7138C47.997 11.5846 49.2245 10.9539 50.4588 11.1701L73.3169 15.1726L55.5325 52.9533L30.3519 48.276L47.4539 12.7138Z"
        fill="#D1FA2D"/>
    <path d="M37.9536 108.752L52.1217 73.6809" stroke="#E8FF8C" stroke-width="2" stroke-linecap="round"
          stroke-linejoin="round"/>
    <path
        d="M104.346 73.6208L39.8809 112.005L91.1453 68.9613L89.7284 66.1157L103.397 68.4595C105.954 68.9072 106.576 72.2928 104.346 73.6208Z"
        fill="#76AC05"/>
    <path
        d="M109.575 25.6954L82.3861 60.6062C81.0944 62.2648 82.0247 64.6987 84.0863 65.078L70.138 62.5738L96.7253 19.2712L107.849 21.2191C109.928 21.5831 110.872 24.0301 109.575 25.6954Z"
        fill="#76AC05"/>
    <path
        d="M40.3926 112.864C40.4402 112.836 40.4854 112.804 40.5277 112.768L90.6465 70.2706C92.5789 68.6321 91.7356 65.4841 89.243 65.0309L71.7549 61.8512L96.037 22.3034C97.1453 20.4982 96.0844 18.144 93.9978 17.7787L50.6312 10.185C48.9558 9.89169 47.2897 10.7477 46.5526 12.2805L23.1144 61.0182C22.0229 63.2878 23.4019 65.9719 25.8826 66.4063L47.2797 70.153C48.3957 70.3484 49.0552 71.5143 48.6479 72.5714L34.9046 108.235C33.6074 111.601 37.2928 114.71 40.3926 112.864Z"
        stroke="#384B00" stroke-width="2" stroke-linecap="round" stroke-linejoin="round"/>
    <path
        d="M70.1379 62.5741L95.1848 21.7806C95.9237 20.5772 95.2164 19.0077 93.8253 18.7641L87.6295 17.6792L65.2403 61.1744L70.1379 62.5741Z"
        fill="#94D609"/>
    <path d="M49.1481 14.9966L26.7589 61.1743" stroke="#E8FF8C" stroke-width="2" stroke-linecap="round"
          stroke-linejoin="round"/>
    <path d="M26.7589 61.1743L33.0559 48.1868" stroke="#F5FFE0" stroke-width="2" stroke-linecap="round"
          stroke-linejoin="round"/>
    <ellipse cx="92.1773" cy="41.7372" rx="1.04949" ry="1.24627" transform="rotate(24.2737 92.1773 41.7372)"
             fill="#598400"/>
    <ellipse cx="88.2594" cy="49.0768" rx="1.04949" ry="1.24627" transform="rotate(24.2737 88.2594 49.0768)"
             fill="#598400"/>
    <ellipse cx="88.7037" cy="44.5895" rx="1.43217" ry="1.7007" transform="rotate(24.2737 88.7037 44.5895)"
             fill="#598400"/>
    <ellipse cx="97.4685" cy="36.1835" rx="1.04949" ry="1.24627" transform="rotate(24.2737 97.4685 36.1835)"
             fill="#598400"/>
    <ellipse cx="94.1127" cy="37.2469" rx="0.750993" ry="0.891804" transform="rotate(24.2737 94.1127 37.2469)"
             fill="#598400"/>
    <ellipse cx="95.4819" cy="40.6156" rx="0.750993" ry="0.891804" transform="rotate(24.2737 95.4819 40.6156)"
             fill="#598400"/>
    <ellipse cx="91.204" cy="46.3878" rx="0.750993" ry="0.891804" transform="rotate(24.2737 91.204 46.3878)"
             fill="#598400"/>
    <ellipse cx="84.4698" cy="51.1483" rx="0.750993" ry="0.891804" transform="rotate(24.2737 84.4698 51.1483)"
             fill="#598400"/>
    <ellipse cx="91.204" cy="37.8641" rx="0.750993" ry="0.891804" transform="rotate(24.2737 91.204 37.8641)"
             fill="#598400"/>
    <ellipse cx="95.4819" cy="30.8673" rx="0.750993" ry="0.891804" transform="rotate(24.2737 95.4819 30.8673)"
             fill="#598400"/>
    <ellipse cx="100.904" cy="31.7418" rx="0.750993" ry="0.891804" transform="rotate(24.2737 100.904 31.7418)"
             fill="#598400"/>
    <path d="M59.1183 92.5281L85.9679 68.6521" stroke="#B2D917" stroke-width="2" stroke-linecap="round"
          stroke-linejoin="round"/>
    <path d="M64.3658 57.1512L83.4316 19.282" stroke="#B2D917" stroke-width="2" stroke-linecap="round"
          stroke-linejoin="round"/>
    <ellipse cx="75.4507" cy="68.6517" rx="1.22441" ry="1.39933" transform="rotate(15.4119 75.4507 68.6517)"
             fill="#E6FF84"/>
    <ellipse cx="71.4925" cy="74.008" rx="0.832762" ry="0.951728" transform="rotate(15.4119 71.4925 74.008)"
             fill="#E6FF84"/>
    <ellipse cx="65.9434" cy="76.6112" rx="0.832762" ry="0.951728" transform="rotate(15.4119 65.9434 76.6112)"
             fill="#E6FF84"/>
    <ellipse cx="71.4925" cy="68.6964" rx="0.832762" ry="0.951728" transform="rotate(15.4119 71.4925 68.6964)"
             fill="#E6FF84"/>
    <ellipse cx="80.763" cy="67.6735" rx="0.832762" ry="0.951728" transform="rotate(15.4119 80.763 67.6735)"
             fill="#E6FF84"/>
    <ellipse cx="77.003" cy="71.5508" rx="0.583294" ry="0.666621" transform="rotate(15.4119 77.003 71.5508)"
             fill="#E6FF84"/>
    <ellipse cx="68.7382" cy="78.5474" rx="0.583294" ry="0.666621" transform="rotate(15.4119 68.7382 78.5474)"
             fill="#E6FF84"/>
    <ellipse cx="70.0515" cy="65.5701" rx="0.583294" ry="0.666621" transform="rotate(15.4119 70.0515 65.5701)"
             fill="#E6FF84"/>
    <ellipse cx="78.1277" cy="66.5352" rx="0.583294" ry="0.666621" transform="rotate(15.4119 78.1277 66.5352)"
             fill="#E6FF84"/>
    <ellipse cx="74.638" cy="72.6587" rx="0.583294" ry="0.666621" transform="rotate(15.4119 74.638 72.6587)"
             fill="#E6FF84"/>
    <ellipse cx="68.7382" cy="69.6097" rx="0.583294" ry="0.666621" transform="rotate(15.4119 68.7382 69.6097)"
             fill="#E6FF84"/>
    <ellipse cx="69.6972" cy="71.8611" rx="0.583294" ry="0.666621" transform="rotate(15.4119 69.6972 71.8611)"
             fill="#E6FF84"/>
    <ellipse cx="63.9803" cy="82.181" rx="0.583294" ry="0.666621" transform="rotate(15.4119 63.9803 82.181)"
             fill="#E6FF84"/>
</svg>
