<svg viewBox="0 0 24 24" fill="none" height="24" width="24"
     xmlns="http://www.w3.org/2000/svg" aria-label=""
     class=""><g xmlns="http://www.w3.org/2000/svg" clip-path="url(#clip0_3240_529873)"><path stroke="#374456" stroke-linecap="round" stroke-linejoin="round" stroke-width="1.5" d="M18.25 12C18.2495 11.2613 18.5107 10.5462 18.9873 9.98179 19.4638 9.41735 20.125 9.03999 20.8533 8.91667 20.9991 8.8924 21.1316 8.81718 21.2271 8.70441 21.3226 8.59164 21.375 8.44863 21.375 8.30083V6.375C21.375 6.04348 21.2433 5.72554 21.0089 5.49112 20.7745 5.2567 20.4565 5.125 20.125 5.125H3.875C3.54348 5.125 3.22554 5.2567 2.99112 5.49112 2.7567 5.72554 2.625 6.04348 2.625 6.375V8.3025C2.62497 8.45029 2.67738 8.5933 2.77291 8.70608 2.86843 8.81885 3.00088 8.89406 3.14667 8.91833 3.87657 9.03994 4.53967 9.41654 5.01798 9.98114 5.49629 10.5457 5.7588 11.2617 5.7588 12.0017 5.7588 12.7416 5.49629 13.4576 5.01798 14.0222 4.53967 14.5868 3.87657 14.9634 3.14667 15.085 3.00095 15.1094 2.8686 15.1847 2.7731 15.2974 2.67761 15.4102 2.62513 15.5531 2.625 15.7008V17.625C2.625 17.9565 2.7567 18.2745 2.99112 18.5089 3.22554 18.7433 3.54348 18.875 3.875 18.875H20.125C20.4565 18.875 20.7745 18.7433 21.0089 18.5089 21.2433 18.2745 21.375 17.9565 21.375 17.625V15.6975C21.3749 15.5498 21.3224 15.4068 21.2269 15.2941 21.1314 15.1814 20.999 15.1061 20.8533 15.0817 20.1253 14.9584 19.4643 14.5813 18.9878 14.0172 18.5113 13.4531 18.2499 12.7384 18.25 12zM12 9.5H16.375"></path><path stroke="#374456" stroke-linecap="round" stroke-linejoin="round" stroke-width="1.5" d="M14.8125 15.75C15.2269 15.75 15.6243 15.5854 15.9174 15.2924C16.2104 14.9993 16.375 14.6019 16.375 14.1875C16.375 13.7731 16.2104 13.3757 15.9174 13.0826C15.6243 12.7896 15.2269 12.625 14.8125 12.625C14.3981 12.625 14.0007 12.7896 13.7076 13.0826C13.4146 13.3757 13.25 13.7731 13.25 14.1875C13.25 14.6019 13.4146 14.9993 13.7076 15.2924C14.0007 15.5854 14.3981 15.75 14.8125 15.75Z"></path><path stroke="#374456" stroke-width="1.5" d="M8.5625 8.875C8.47962 8.875 8.40013 8.84208 8.34153 8.78347 8.28292 8.72487 8.25 8.64538 8.25 8.5625 8.25 8.47962 8.28292 8.40013 8.34153 8.34153 8.40013 8.28292 8.47962 8.25 8.5625 8.25M8.5625 8.875C8.64538 8.875 8.72487 8.84208 8.78347 8.78347 8.84208 8.72487 8.875 8.64538 8.875 8.5625 8.875 8.47962 8.84208 8.40013 8.78347 8.34153 8.72487 8.28292 8.64538 8.25 8.5625 8.25M8.5625 12.625C8.47962 12.625 8.40013 12.5921 8.34153 12.5335 8.28292 12.4749 8.25 12.3954 8.25 12.3125 8.25 12.2296 8.28292 12.1501 8.34153 12.0915 8.40013 12.0329 8.47962 12 8.5625 12M8.5625 12.625C8.64538 12.625 8.72487 12.5921 8.78347 12.5335 8.84208 12.4749 8.875 12.3954 8.875 12.3125 8.875 12.2296 8.84208 12.1501 8.78347 12.0915 8.72487 12.0329 8.64538 12 8.5625 12M8.5625 16.375C8.47962 16.375 8.40013 16.3421 8.34153 16.2835 8.28292 16.2249 8.25 16.1454 8.25 16.0625 8.25 15.9796 8.28292 15.9001 8.34153 15.8415 8.40013 15.7829 8.47962 15.75 8.5625 15.75M8.5625 16.375C8.64538 16.375 8.72487 16.3421 8.78347 16.2835 8.84208 16.2249 8.875 16.1454 8.875 16.0625 8.875 15.9796 8.84208 15.9001 8.78347 15.8415 8.72487 15.7829 8.64538 15.75 8.5625 15.75"></path></g><defs xmlns="http://www.w3.org/2000/svg"><clipPath id="clip0_3240_529873"><rect width="20" height="20" fill="#fff" transform="translate(2 2)"></rect></clipPath></defs></svg>
