<svg viewBox="0 0 24 24" fill="none" height="24" width="24" xmlns="http://www.w3.org/2000/svg" aria-label=""><g xmlns="http://www.w3.org/2000/svg" clip-path="url(#clip0_512_138821)"><path fill="currentColor" d="M21.1402 9.5777L12.5067 2.1776C12.2305 1.9408 11.8161 1.9408 11.5398 2.1776L2.90636 9.5777C2.60048 9.8441 2.56102 10.3078 2.82742 10.6236C3.09382 10.9393 3.55756 10.9689 3.8733 10.7025L12.0233 3.71682L20.1733 10.7025C20.3114 10.8209 20.489 10.8801 20.6567 10.8801C20.8639 10.8801 21.0711 10.7913 21.2191 10.6236C21.4855 10.3177 21.4461 9.8441 21.1402 9.5777Z"></path><path fill="currentColor" d="M19.5913 11.9359L12.5069 5.87765C12.2307 5.64085 11.8261 5.64085 11.5498 5.87765L4.43588 11.9556C4.10041 12.2615 3.90308 12.6759 3.88334 13.1593V20.441C3.88334 20.8555 4.04121 21.2501 4.33722 21.5461C4.63322 21.8421 5.02789 22 5.4423 22H9.76396C10.1685 22 10.504 21.6645 10.504 21.26V15.8431H13.5429V21.26C13.5429 21.6645 13.8784 22 14.2829 22H18.6046C19.019 22 19.4137 21.8323 19.7097 21.5461C20.0057 21.26 20.1636 20.8555 20.1636 20.441V13.1199C20.134 12.6759 19.9465 12.2615 19.5913 11.9359ZM18.6835 20.4312L18.6046 20.5101H15.0328V15.4978C15.0328 15.1919 14.9144 14.9058 14.6974 14.6887C14.4902 14.4716 14.1941 14.3532 13.8883 14.3532H10.1685C9.86262 14.3532 9.57649 14.4716 9.35942 14.6887C9.14235 14.9058 9.02395 15.1919 9.02395 15.4978V20.5101H5.45216L5.37323 20.4312V13.1988C5.37323 13.1396 5.40283 13.0903 5.42256 13.0607L12.0333 7.40701L18.6243 13.0409C18.6243 13.0409 18.6934 13.1297 18.6934 13.1495V20.4312H18.6835Z"></path></g><defs xmlns="http://www.w3.org/2000/svg"><clipPath id="clip0_512_138821"><rect width="18.7469" height="20" fill="currentColor" transform="translate(2.64999 2)"></rect></clipPath></defs></svg>
