<svg width="623" height="86" viewBox="0 0 623 86" fill="none" xmlns="http://www.w3.org/2000/svg">
    <path d="M588.176 20.0117V83H566.438V20.0117H532.277V2.49219H622.395V20.0117H588.176Z" fill="white"/>
    <path d="M517.863 79.0156C511.262 81.2031 504.66 82.7656 498.059 83.7031C491.496 84.6797 484.777 85.168 477.902 85.168C469.113 85.168 461.281 84.2305 454.406 82.3555C447.57 80.4414 441.809 77.6875 437.121 74.0938C432.434 70.5 428.859 66.1055 426.398 60.9102C423.938 55.7148 422.707 49.8359 422.707 43.2734C422.707 37.1797 423.938 31.5352 426.398 26.3398C428.898 21.1055 432.414 16.5742 436.945 12.7461C441.516 8.87891 447.023 5.87109 453.469 3.72266C459.914 1.53516 467.102 0.441406 475.031 0.441406C482.336 0.441406 489.016 1.4375 495.07 3.42969C501.164 5.38281 506.379 8.29297 510.715 12.1602C515.09 16.0273 518.469 20.793 520.852 26.457C523.273 32.1211 524.484 38.6445 524.484 46.0273V51.418H445.148C445.852 53.957 447.004 56.2812 448.605 58.3906C450.246 60.5 452.453 62.2969 455.227 63.7812C458 65.2656 461.398 66.418 465.422 67.2383C469.484 68.0586 474.328 68.4688 479.953 68.4688C483.938 68.4688 487.844 68.2344 491.672 67.7656C495.5 67.2578 499.074 66.6133 502.395 65.832C505.715 65.0117 508.703 64.1133 511.359 63.1367C514.055 62.1602 516.223 61.1836 517.863 60.207V79.0156ZM502.863 35.4805C502.668 33.4883 502.062 31.4375 501.047 29.3281C500.07 27.1797 498.508 25.2461 496.359 23.5273C494.211 21.8086 491.398 20.4023 487.922 19.3086C484.445 18.1758 480.109 17.6094 474.914 17.6094C470.031 17.6094 465.812 18.2148 462.258 19.4258C458.703 20.6367 455.715 22.1406 453.293 23.9375C450.91 25.7344 449.055 27.668 447.727 29.7383C446.398 31.8086 445.539 33.7227 445.148 35.4805H502.863Z" fill="white"/>
    <path d="M408.234 60.793C408.234 63.918 407.824 66.6328 407.004 68.9375C406.184 71.2422 405.031 73.2344 403.547 74.9141C402.102 76.5547 400.344 77.9023 398.273 78.957C396.242 79.9727 393.977 80.793 391.477 81.418C389.016 82.0039 386.379 82.4141 383.566 82.6484C380.754 82.8828 377.844 83 374.836 83H316.418V2.49219H373.781C376.086 2.49219 378.391 2.58984 380.695 2.78516C383.039 2.98047 385.266 3.35156 387.375 3.89844C389.484 4.40625 391.438 5.12891 393.234 6.06641C395.07 7.00391 396.652 8.23438 397.98 9.75781C399.348 11.2812 400.402 13.1172 401.145 15.2656C401.926 17.4141 402.316 19.9531 402.316 22.8828C402.316 28.1172 401.027 32.2773 398.449 35.3633C395.871 38.4102 391.809 40.4414 386.262 41.457C390.168 41.7305 393.508 42.3359 396.281 43.2734C399.094 44.1719 401.379 45.4219 403.137 47.0234C404.895 48.5859 406.184 50.5195 407.004 52.8242C407.824 55.0898 408.234 57.7461 408.234 60.793ZM381.105 26.3398C381.105 25.3242 380.949 24.3672 380.637 23.4688C380.324 22.5312 379.758 21.7109 378.938 21.0078C378.117 20.3047 377.004 19.7383 375.598 19.3086C374.191 18.8789 372.395 18.6641 370.207 18.6641H338.156V33.7812H370.207C372.395 33.7812 374.191 33.5859 375.598 33.1953C377.004 32.8047 378.117 32.2773 378.938 31.6133C379.758 30.9492 380.324 30.168 380.637 29.2695C380.949 28.332 381.105 27.3555 381.105 26.3398ZM386.145 58.2734C386.145 56.4375 385.832 54.9727 385.207 53.8789C384.582 52.7461 383.605 51.8867 382.277 51.3008C380.949 50.6758 379.23 50.2656 377.121 50.0703C375.012 49.875 372.492 49.7773 369.562 49.7773H338.156V66.8281H369.562C372.492 66.8281 375.012 66.7305 377.121 66.5352C379.23 66.3398 380.949 65.9297 382.277 65.3047C383.605 64.6797 384.582 63.8203 385.207 62.7266C385.832 61.5938 386.145 60.1094 386.145 58.2734Z" fill="white"/>
    <path d="M275.578 83V61.9062H297.785V83H275.578Z" fill="white"/>
    <path d="M235.207 83V2.49219H256.945V83H235.207Z" fill="white"/>
    <path d="M208.84 79.0156C202.238 81.2031 195.637 82.7656 189.035 83.7031C182.473 84.6797 175.754 85.168 168.879 85.168C160.09 85.168 152.258 84.2305 145.383 82.3555C138.547 80.4414 132.785 77.6875 128.098 74.0938C123.41 70.5 119.836 66.1055 117.375 60.9102C114.914 55.7148 113.684 49.8359 113.684 43.2734C113.684 37.1797 114.914 31.5352 117.375 26.3398C119.875 21.1055 123.391 16.5742 127.922 12.7461C132.492 8.87891 138 5.87109 144.445 3.72266C150.891 1.53516 158.078 0.441406 166.008 0.441406C173.312 0.441406 179.992 1.4375 186.047 3.42969C192.141 5.38281 197.355 8.29297 201.691 12.1602C206.066 16.0273 209.445 20.793 211.828 26.457C214.25 32.1211 215.461 38.6445 215.461 46.0273V51.418H136.125C136.828 53.957 137.98 56.2812 139.582 58.3906C141.223 60.5 143.43 62.2969 146.203 63.7812C148.977 65.2656 152.375 66.418 156.398 67.2383C160.461 68.0586 165.305 68.4688 170.93 68.4688C174.914 68.4688 178.82 68.2344 182.648 67.7656C186.477 67.2578 190.051 66.6133 193.371 65.832C196.691 65.0117 199.68 64.1133 202.336 63.1367C205.031 62.1602 207.199 61.1836 208.84 60.207V79.0156ZM193.84 35.4805C193.645 33.4883 193.039 31.4375 192.023 29.3281C191.047 27.1797 189.484 25.2461 187.336 23.5273C185.188 21.8086 182.375 20.4023 178.898 19.3086C175.422 18.1758 171.086 17.6094 165.891 17.6094C161.008 17.6094 156.789 18.2148 153.234 19.4258C149.68 20.6367 146.691 22.1406 144.27 23.9375C141.887 25.7344 140.031 27.668 138.703 29.7383C137.375 31.8086 136.516 33.7227 136.125 35.4805H193.84Z" fill="white"/>
    <path d="M99.2109 42.6875C99.2109 47.8438 98.6445 52.4336 97.5117 56.457C96.3789 60.4414 94.7773 63.918 92.707 66.8867C90.6758 69.8555 88.2148 72.375 85.3242 74.4453C82.4727 76.5156 79.2891 78.1758 75.7734 79.4258C72.2578 80.6758 68.4688 81.5938 64.4062 82.1797C60.3438 82.7266 56.1055 83 51.6914 83H0.597656V2.49219H51.5742C55.9883 2.49219 60.2266 2.78516 64.2891 3.37109C68.3516 3.91797 72.1406 4.81641 75.6562 6.06641C79.2109 7.31641 82.4336 8.97656 85.3242 11.0469C88.2148 13.0781 90.6758 15.5977 92.707 18.6055C94.7773 21.5742 96.3789 25.0508 97.5117 29.0352C98.6445 33.0195 99.2109 37.5703 99.2109 42.6875ZM77.2969 42.6875C77.2969 38.8203 76.7891 35.4609 75.7734 32.6094C74.7969 29.7578 73.1953 27.4141 70.9688 25.5781C68.7812 23.7031 65.9102 22.3164 62.3555 21.418C58.8008 20.4805 54.4648 20.0117 49.3477 20.0117H22.3359V65.4805H49.3477C54.4648 65.4805 58.8008 65.0312 62.3555 64.1328C65.9102 63.1953 68.7812 61.7891 70.9688 59.9141C73.1953 58 74.7969 55.6172 75.7734 52.7656C76.7891 49.9141 77.2969 46.5547 77.2969 42.6875Z" fill="white"/>
</svg>
