<svg width="84" height="58" viewBox="0 0 84 58" fill="none" xmlns="http://www.w3.org/2000/svg">
    <rect x="0.5" y="0.5" width="83" height="57" rx="3.5" fill="white" stroke="#F3F3F3"/>
    <path fill-rule="evenodd" clip-rule="evenodd" d="M46.8933 25.8048C46.9033 25.3588 47.0699 25.0007 47.3965 24.732C47.7134 24.4593 48.1292 24.3191 48.6435 24.3113H49.6784V25.9076H49.0519C48.7075 25.9154 48.5314 26.0782 48.5243 26.3921V26.7421H49.6784V28.3961H48.5243V33.2731H46.8933V25.8048ZM17.8279 28.791C17.8197 28.5349 17.6974 28.4026 17.4594 28.394H16.1905C15.8896 28.412 15.735 28.5748 15.7273 28.8805V31.1339C15.735 31.4497 15.9062 31.6106 16.2403 31.6198H17.403C17.524 31.6198 17.6245 31.5754 17.7047 31.4851C17.7883 31.4174 17.8279 31.33 17.8279 31.222V28.791ZM14.0978 28.4712C14.1061 27.9075 14.2333 27.4789 14.4802 27.1859C14.6093 27.0634 14.7714 26.9606 14.968 26.8757C15.1722 26.7854 15.3703 26.7417 15.5625 26.7417H17.8923C18.9199 26.7504 19.4423 27.305 19.459 28.407V31.7984C19.4511 32.1896 19.2962 32.5291 18.9957 32.8131C18.6989 33.1112 18.3438 33.2632 17.9307 33.2723H15.7274V35.7174H14.0978V28.4712ZM22.4005 31.2927C22.4005 31.387 22.4443 31.4616 22.5309 31.5174C22.6075 31.5848 22.7041 31.6198 22.8263 31.6198H24.0783C24.3616 31.6198 24.5081 31.5116 24.5163 31.2927V30.8313C24.5163 30.5796 24.3669 30.4526 24.0663 30.4526H22.8263C22.6635 30.4526 22.5507 30.4791 22.4878 30.5298C22.4299 30.5894 22.4005 30.7074 22.4005 30.8822V31.2927ZM24.5165 28.7513C24.5247 28.5041 24.3792 28.3859 24.0781 28.394H20.7955V26.7417H24.4915C25.5679 26.7588 26.1144 27.2724 26.1327 28.2856V31.7421C26.1236 32.1794 25.9881 32.5398 25.7249 32.8264C25.4495 33.1232 25.0949 33.2723 24.66 33.2723H22.4259C21.3386 33.2632 20.7875 32.7735 20.7707 31.7995V30.4659C20.779 29.448 21.306 28.9309 22.3487 28.913H24.5165V28.7513ZM31.0424 33.9291C30.9513 34.0112 30.84 34.0571 30.7106 34.0649H27.4573V35.7174H31.2617C31.734 35.7092 32.1043 35.5439 32.3755 35.2204C32.6421 34.897 32.7808 34.4706 32.7897 33.9382V26.7417H31.1735V31.2111C31.1735 31.3179 31.1258 31.4088 31.0293 31.4851C30.93 31.5754 30.8111 31.6198 30.6743 31.6198H29.524C29.2316 31.6198 29.0871 31.4455 29.0871 31.0963V26.7417H27.4573V31.6198C27.4573 31.886 27.495 32.1075 27.5695 32.2814C27.6404 32.4716 27.7577 32.6539 27.9207 32.8279C28.0923 32.9922 28.2636 33.1079 28.4348 33.17C28.5971 33.2382 28.8147 33.2723 29.0871 33.2723H31.1735V33.6648C31.1735 33.7644 31.1298 33.8525 31.0424 33.9291ZM34.0693 31.6198H36.9734C37.2393 31.6106 37.3772 31.5056 37.3855 31.3044V31.1558C37.3855 31.1129 37.3723 31.0652 37.347 31.0138C37.2821 30.8891 37.2023 30.827 37.1077 30.827H35.6679C35.2405 30.8189 34.8759 30.6735 34.5694 30.3931C34.2597 30.1343 34.1006 29.8156 34.0917 29.4415V28.2094C34.1086 27.2481 34.6376 26.7588 35.6799 26.7417H39.048V28.394H36.1947C35.8595 28.394 35.6911 28.4954 35.6911 28.6973V28.8574C35.6911 29.0672 35.8635 29.1721 36.2071 29.1721H37.6423C38.025 29.1809 38.3508 29.3253 38.6226 29.6071C38.8971 29.8909 39.0394 30.2286 39.048 30.6205V31.8261C39.0394 32.1646 38.8807 32.5025 38.5753 32.8395C38.4264 33.005 38.2742 33.1189 38.1219 33.1831C37.9642 33.2423 37.7502 33.2723 37.4765 33.2723H34.0693V31.6198ZM41.9691 31.5174C41.8809 31.4616 41.837 31.387 41.837 31.2927V30.8822C41.837 30.7074 41.8675 30.5894 41.9254 30.5298C41.9879 30.4791 42.1 30.4526 42.2627 30.4526H43.5034C43.8033 30.4526 43.9545 30.5796 43.9545 30.8313V31.2927C43.9461 31.5116 43.8001 31.6198 43.5168 31.6198H42.2627C42.142 31.6198 42.0448 31.5848 41.9691 31.5174ZM43.5145 28.394C43.8157 28.3859 43.9613 28.5041 43.9544 28.7513V28.913H41.7857C40.7416 28.9309 40.2153 29.448 40.2081 30.4659V31.7995C40.2233 32.7735 40.7752 33.2632 41.8617 33.2723H44.0971C44.5326 33.2723 44.8876 33.1232 45.1613 32.8264C45.423 32.5398 45.5596 32.1794 45.5683 31.7421V28.2856C45.5513 27.2724 45.0048 26.7588 43.9292 26.7417H40.2327V28.394H43.5145ZM54.314 28.682V28.7205L52.2701 29.4801V28.8166C52.2701 28.6931 52.3276 28.5927 52.4403 28.5165C52.5312 28.4342 52.6485 28.394 52.7942 28.394H53.9285C54.0399 28.394 54.1329 28.4191 54.2088 28.4712C54.2792 28.5249 54.314 28.597 54.314 28.682ZM52.2961 31.1589V31.0561L55.9727 29.6295V28.323C55.9563 27.2854 55.4421 26.7588 54.4271 26.7417H52.2301C51.1908 26.7588 50.6619 27.2674 50.6437 28.2669L50.6575 31.574C50.6575 31.8899 50.6909 32.1435 50.7581 32.3344C50.8195 32.5176 50.9415 32.6956 51.1207 32.8708C51.2739 33.0149 51.4496 33.1189 51.645 33.1823C51.8241 33.2423 52.0769 33.2723 52.4017 33.2723H55.9618V31.6198H52.6137C52.5219 31.6198 52.4529 31.5702 52.4017 31.4727C52.3309 31.3965 52.2961 31.2913 52.2961 31.1589ZM59.4223 33.2723C59.1755 33.2723 58.9502 33.2502 58.746 33.209C58.5318 33.1746 58.3184 33.0765 58.1002 32.9113C57.8765 32.7189 57.722 32.5035 57.6373 32.2652C57.5476 32.0312 57.5042 31.7661 57.5042 31.4675V28.3837C57.4952 28.1324 57.5208 27.9113 57.5803 27.7202C57.6353 27.5287 57.7503 27.3419 57.9243 27.1585C58.1227 26.9661 58.325 26.8382 58.539 26.7755C58.7444 26.7245 58.9762 26.6991 59.2359 26.6991H61.7336V27.0853H59.2937C58.863 27.0853 58.5243 27.1727 58.2767 27.3475C58.0233 27.5386 57.8945 27.8673 57.8945 28.3308V31.4166C57.8945 31.6337 57.9279 31.8447 57.9949 32.0485C58.0633 32.2489 58.177 32.4245 58.3409 32.578C58.5182 32.7111 58.6954 32.7941 58.8676 32.8279C59.0477 32.867 59.2401 32.8854 59.4447 32.8854H61.773V33.2723H59.4223ZM64.8834 29.2714H68.1583V31.5898C68.1583 32.4457 67.7405 32.8769 66.9115 32.8854H64.9273C64.585 32.8854 64.2717 32.7711 63.9888 32.5398C63.8263 32.4128 63.7235 32.2652 63.6823 32.1C63.6409 31.9428 63.6207 31.7684 63.6207 31.5776V30.5932C63.6207 30.1856 63.7339 29.8643 63.9627 29.6305C64.1844 29.4001 64.491 29.2804 64.8834 29.2714ZM68.4959 32.1515C68.5283 31.9599 68.5475 31.7417 68.5475 31.4936V28.5307C68.5539 28.0328 68.4073 27.5912 68.1065 27.2082C68.007 27.0772 67.8998 26.9773 67.7854 26.9088C67.6767 26.8371 67.5594 26.7875 67.4299 26.7622C67.1791 26.7203 66.9017 26.6991 66.5951 26.6991H63.2402V27.0853H66.7789C67.0047 27.0853 67.2072 27.1089 67.3875 27.1552C67.5659 27.216 67.723 27.3329 67.8559 27.5083C68.0652 27.7783 68.1703 28.0924 68.1703 28.4505V28.8858H64.9265C63.8111 28.912 63.2448 29.4861 63.2285 30.6081V31.6019C63.2285 32.1251 63.3928 32.5329 63.7173 32.8264C64.035 33.1233 64.4452 33.2723 64.9508 33.2723H66.8983C67.4039 33.2814 67.8282 33.1079 68.1703 32.752C68.3346 32.5611 68.4431 32.3602 68.4959 32.1515ZM72.2096 27.0853C71.3011 27.1022 70.8537 27.5912 70.8707 28.5539V33.2723H70.4804V28.5555C70.4623 27.3172 71.0593 26.6991 72.2723 26.6991H72.7059V27.0853H72.2096ZM75.7197 27.0875H78.8064V31.419C78.7956 31.9517 78.6336 32.3258 78.3149 32.5424C77.9982 32.7735 77.5856 32.888 77.0818 32.888H75.7325C75.5109 32.888 75.3104 32.8645 75.1302 32.8173C74.9491 32.7746 74.7881 32.7111 74.6413 32.6264C74.3437 32.4434 74.1969 32.1032 74.1969 31.603V28.5946C74.1877 28.3611 74.2133 28.161 74.2704 27.994C74.3139 27.8285 74.4161 27.6632 74.5789 27.4962C74.7489 27.313 74.9304 27.2004 75.1184 27.1585C75.298 27.1121 75.4974 27.0875 75.7197 27.0875ZM77.1932 33.2751C78.4938 33.3009 79.1614 32.6906 79.1963 31.4455V24.5694H78.8062V26.701H75.7432C74.4679 26.6914 73.8226 27.3201 73.8056 28.5847V31.3921C73.7964 31.6555 73.8226 31.8968 73.8822 32.1132C73.9266 32.3305 74.0374 32.5424 74.2098 32.752C74.4389 32.9853 74.6771 33.1351 74.9258 33.1984C75.1671 33.2488 75.4406 33.2751 75.7462 33.2751H77.1932Z" fill="#008ACA"/>
    <path fill-rule="evenodd" clip-rule="evenodd" d="M5.42824 26.3669C5.30043 26.3941 5.17241 26.4375 5.0445 26.4933C4.84295 26.5793 4.67182 26.6914 4.52189 26.8162C4.51646 26.6518 4.51953 26.4948 4.52998 26.344C4.60556 24.5973 6.05961 23.2 7.846 23.2C9.58077 23.2 11.0037 24.5144 11.1551 26.1893C11.1805 26.3822 11.1891 26.5873 11.1795 26.8001C10.9436 26.5827 10.6407 26.4362 10.2744 26.368C10.0396 25.2596 9.04423 24.4268 7.85102 24.4268C6.65832 24.4268 5.66348 25.2585 5.42824 26.3669ZM5.21533 26.8757C5.41974 26.7854 5.61812 26.7417 5.80983 26.7417H9.7902C10.8181 26.7504 11.3412 27.305 11.3577 28.407V31.6065C11.3412 32.7068 10.8181 33.2632 9.7902 33.2723H5.80983C5.61812 33.2723 5.41974 33.2279 5.21533 33.1392C5.01839 33.0536 4.85637 32.9511 4.72712 32.8264C4.4799 32.5348 4.35352 32.1071 4.34482 31.542V28.4712C4.35352 27.9075 4.4799 27.4789 4.72712 27.1859C4.85637 27.0634 5.01839 26.9606 5.21533 26.8757Z" fill="#E2001A"/>
</svg>
