<svg width="84" height="58" viewBox="0 0 84 58" fill="none" xmlns="http://www.w3.org/2000/svg">
    <rect x="0.5" y="0.5" width="83" height="57" rx="3.5" fill="black" stroke="#F3F3F3"/>
    <path d="M31.6134 18.4645C31.6292 16.0304 29.6688 14.0444 27.2347 14.0286C24.8006 14.0128 22.8146 15.9732 22.7988 18.4073C22.783 20.8414 24.7434 22.8274 27.1775 22.8433C29.6116 22.8591 31.5976 20.8986 31.6134 18.4645Z" fill="url(#paint0_linear_937_49)"/>
    <path d="M35.0777 15.4418H40.0043V43.3961H35.0777V15.4418Z" fill="white"/>
    <path d="M44.3763 25.0868H49.3029V43.3961H44.3763V25.0868Z" fill="white"/>
    <path d="M22.2689 24.904C20.7265 24.9018 19.2077 25.283 17.8491 26.0133V15.4424H12.9218V34.2474C12.9213 36.0959 13.469 37.903 14.4956 39.4402C15.5222 40.9774 16.9816 42.1757 18.6892 42.8835C20.3968 43.5913 22.2759 43.7768 24.089 43.4165C25.9021 43.0563 27.5676 42.1665 28.8749 40.8597C30.1822 39.5529 31.0727 37.8877 31.4337 36.0748C31.7946 34.2619 31.6099 32.3827 30.9027 30.6748C30.1956 28.9669 28.998 27.507 27.4611 26.4798C25.9243 25.4526 24.1174 24.9042 22.2689 24.904ZM22.2689 38.7456C21.3794 38.7456 20.5099 38.4818 19.7703 37.9876C19.0307 37.4935 18.4542 36.7911 18.1138 35.9693C17.7733 35.1475 17.6842 34.2432 17.8577 33.3708C18.0312 32.4984 18.4595 31.697 19.0884 31.0679C19.7174 30.4389 20.5187 30.0105 21.3911 29.8369C22.2635 29.6633 23.1678 29.7523 23.9897 30.0926C24.8115 30.4329 25.514 31.0093 26.0082 31.7488C26.5025 32.4884 26.7664 33.3579 26.7665 34.2474C26.7668 34.8381 26.6506 35.4231 26.4247 35.9689C26.1987 36.5147 25.8675 37.0107 25.4498 37.4284C25.0321 37.8461 24.5362 38.1775 23.9904 38.4035C23.4446 38.6295 22.8597 38.7457 22.2689 38.7456Z" fill="white"/>
    <path d="M65.5099 43.3973H71.8561L64.2315 33.5497L71.1454 25.088H65.3893L58.5997 33.6025V15.4455H53.6718V43.3973H58.5997L58.5959 33.6262L65.5099 43.3973Z" fill="white"/>
    <defs>
        <linearGradient id="paint0_linear_937_49" x1="24.0655" y1="21.5272" x2="30.3467" y2="15.3358" gradientUnits="userSpaceOnUse">
            <stop stop-color="#E52F08"/>
            <stop offset="1" stop-color="#E94F96"/>
        </linearGradient>
    </defs>
</svg>
