<svg width="84" height="58" viewBox="0 0 84 58" fill="none" xmlns="http://www.w3.org/2000/svg">
    <rect x="0.5" y="0.5" width="83" height="57" rx="3.5" fill="white" stroke="#FFFFFF"/>
    <path fill-rule="evenodd" clip-rule="evenodd" d="M31.2066 5.79999H55.8932C57.6295 5.79999 59.0484 7.30322 59.0484 9.14333V10.7324C59.0484 12.992 55.9916 12.9825 55.9916 10.7324V9.88382C55.9916 9.32691 55.5416 8.87494 54.9853 8.87319H30.2448C29.6893 8.87668 29.2403 9.32763 29.2385 9.88382V10.7355C29.2385 12.9825 26.3277 12.9602 26.3277 10.7864V9.14333C26.3277 7.30322 27.7466 5.79999 29.4798 5.79999H31.2066ZM42.5261 43.0662H58.5373C62.1941 43.0662 62.229 39.1762 61.8576 37.2535C61.6544 35.9632 59.4642 35.9822 59.2229 37.2535V38.7535C59.2194 39.4401 58.6644 39.9959 57.9786 39.9993H27.2799C26.5934 39.9976 26.0373 39.4408 26.0356 38.7535V37.2535C25.7943 35.9822 23.6041 35.9632 23.4009 37.2535C23.0263 39.1762 23.0644 43.0662 26.7212 43.0662H42.5261Z" fill="#D60510"/>
    <path fill-rule="evenodd" clip-rule="evenodd" d="M52.4236 22.9394H54.9631V22.9108C56.1466 22.7263 57.0203 21.7073 57.0232 20.5081C57.0197 19.1669 55.9345 18.0804 54.5949 18.0769H49.4684V30.7892H55.9884C57.3712 30.784 58.4908 29.663 58.4961 28.2786C58.4926 26.8934 57.3719 25.7714 55.9884 25.7679H54.9853H52.4458C51.6689 25.7644 51.0399 25.1347 51.0365 24.3568C51.0399 23.5789 51.6689 22.9492 52.4458 22.9457L52.4236 22.9394ZM58.4262 24.1884C60.156 24.9619 61.2822 26.6681 61.3148 28.5646C61.3148 31.2564 58.969 33.4557 56.0994 33.4557H48.0589C47.3326 33.4772 46.7234 32.9112 46.6908 32.1844V16.8597C46.6943 16.1175 47.2953 15.5171 48.0367 15.5154H54.7313C57.5572 15.5224 59.8473 17.8124 59.8578 20.6416C59.8572 21.9649 59.344 23.2363 58.4262 24.1884Z" fill="#373536"/>
    <path d="M35.503 47.9264C35.3712 48.4219 35.232 48.9507 35.0854 49.5128C34.9462 50.0726 34.7986 50.6108 34.658 51.1234C34.5175 51.636 34.3866 52.0839 34.2599 52.4724C34.1804 52.746 34.0751 53.012 33.9454 53.2669C33.7978 53.5205 33.5361 53.646 33.1645 53.646C33.0265 53.6412 32.8895 53.6203 32.7566 53.5839C32.5743 53.5303 32.423 53.4057 32.3391 53.2399C32.207 52.9719 32.1017 52.6923 32.0245 52.4049C31.8992 51.9908 31.7684 51.5146 31.6264 50.9751C31.4844 50.4355 31.348 49.8635 31.2088 49.2619C31.0696 48.6603 30.9429 48.1004 30.8316 47.5811C30.7202 47.0618 30.6256 46.622 30.5532 46.2591C30.4808 45.8963 30.4377 45.6791 30.4279 45.6049C30.4202 45.5739 30.4156 45.5423 30.414 45.5105V45.4565C30.4096 45.3119 30.4768 45.174 30.5949 45.0856C30.7226 44.9915 30.8802 44.9438 31.0404 44.9507C31.1838 44.9451 31.3257 44.9808 31.4482 45.0532C31.5644 45.1422 31.6431 45.2693 31.6695 45.4106C31.6695 45.4282 31.6974 45.5604 31.7461 45.8018C31.7948 46.0433 31.8644 46.3563 31.9424 46.7313C32.0203 47.1063 32.1108 47.5312 32.2082 48.0006C32.3056 48.4701 32.4073 48.9449 32.5158 49.4251C32.6244 49.9053 32.7302 50.3694 32.8374 50.8213C32.9446 51.2732 33.0434 51.6563 33.138 51.9787C33.2299 51.6752 33.3315 51.3244 33.4457 50.9332C33.5598 50.542 33.6698 50.1374 33.7811 49.7192C33.8925 49.301 33.9983 48.8842 34.1013 48.4647C34.2043 48.0451 34.2989 47.6553 34.388 47.2978C34.4771 46.9404 34.5523 46.6234 34.6177 46.3414C34.6831 46.0595 34.7332 45.8545 34.7722 45.7182C34.8491 45.3849 35.1605 45.1523 35.5127 45.1651C35.6944 45.1584 35.8727 45.2138 36.0166 45.3216C36.1433 45.4229 36.231 45.5626 36.2657 45.7182C36.3706 46.1598 36.4824 46.6544 36.6012 47.2021C36.7209 47.7416 36.849 48.2947 36.9784 48.8532C37.1079 49.4116 37.2457 49.9579 37.3821 50.4935C37.5185 51.029 37.6605 51.5038 37.7899 51.9153C37.8818 51.5929 37.9834 51.2057 38.0906 50.7579C38.1978 50.31 38.3049 49.8433 38.4163 49.3658C38.5277 48.8882 38.6348 48.4215 38.7378 47.9507C38.8408 47.4799 38.9341 47.0631 39.0162 46.6895C39.0984 46.3158 39.1666 46.015 39.2181 45.7789C39.2696 45.5428 39.2946 45.4228 39.2946 45.4147C39.3207 45.2726 39.4006 45.1451 39.5187 45.0572C39.6398 44.985 39.7803 44.9493 39.9224 44.9547C40.083 44.9477 40.2411 44.9954 40.3692 45.0896C40.4878 45.1778 40.5556 45.3157 40.5515 45.4606V45.5145C40.55 45.5463 40.5453 45.578 40.5376 45.6089C40.5307 45.6831 40.4847 45.8976 40.3984 46.2632C40.3121 46.6287 40.2244 47.0726 40.1131 47.5852C40.0017 48.0978 39.8751 48.6643 39.7345 49.2592C39.5939 49.8541 39.4561 50.426 39.3252 50.9643C39.1944 51.5025 39.0594 51.9787 38.9327 52.3888C38.8553 52.6739 38.7499 52.9512 38.6181 53.217C38.5313 53.387 38.3779 53.5162 38.1922 53.5758C38.0595 53.6187 37.9213 53.6437 37.7816 53.65C37.7247 53.6489 37.668 53.6444 37.6118 53.6365C37.5309 53.6251 37.4512 53.6066 37.3737 53.5812C37.2844 53.5524 37.2003 53.5101 37.1246 53.4558C37.0381 53.3948 36.9703 53.3123 36.9283 53.217C36.8063 52.9419 36.7058 52.6582 36.6276 52.3685C36.5121 51.9719 36.3841 51.5254 36.2504 51.0263C36.1168 50.5272 35.9818 50.0052 35.8523 49.4602C35.7229 48.9152 35.6004 48.4053 35.4904 47.9305" fill="#373536"/>
    <path fill-rule="evenodd" clip-rule="evenodd" d="M42.0652 52.35C42.1712 51.9833 42.2938 51.5842 42.4315 51.1528H45.891C45.9221 51.2502 45.9526 51.3462 45.9825 51.4406C46.0852 51.7639 46.182 52.0685 46.278 52.3514C46.4019 52.7167 46.5121 53.0241 46.603 53.256C46.6393 53.3663 46.7032 53.4659 46.7889 53.5459C46.8901 53.6212 47.016 53.6576 47.1428 53.6483C47.3185 53.6607 47.4921 53.605 47.6262 53.4933C47.737 53.3899 47.7976 53.2453 47.7929 53.0956C47.7917 53.0358 47.7825 52.9764 47.7653 52.919C47.7486 52.8602 47.7148 52.7604 47.6656 52.6154C47.6336 52.5209 47.595 52.4072 47.5505 52.2732C47.4893 52.0892 47.4201 51.8875 47.3441 51.6661C47.2798 51.4785 47.2106 51.2768 47.1373 51.0598C46.9776 50.5865 46.7985 50.0742 46.6044 49.5282C46.4102 48.9822 46.2132 48.4456 46.0163 47.9184C45.8194 47.3913 45.6307 46.8951 45.4517 46.4475C45.2726 45.9999 45.1184 45.6386 44.9876 45.369C44.9396 45.2245 44.8316 45.1065 44.6901 45.044C44.3609 44.9235 43.9992 44.9187 43.6668 45.0306C43.5328 45.0961 43.4272 45.2066 43.3694 45.342C43.1649 45.7097 42.9854 46.0903 42.8323 46.4812C42.6381 46.9518 42.4412 47.4614 42.2373 48.0047C42.0335 48.548 41.8366 49.1008 41.6493 49.6563C41.5632 49.9114 41.4807 50.1578 41.4012 50.3949C41.3077 50.674 41.2185 50.9403 41.1328 51.1932C40.9745 51.6611 40.8505 52.052 40.7527 52.3662C40.655 52.6803 40.5971 52.865 40.5792 52.9176C40.5174 53.1162 40.5613 53.3318 40.6963 53.4919C40.8214 53.6059 40.9902 53.6623 41.1604 53.647C41.4311 53.6692 41.6821 53.5071 41.7677 53.2547C41.86 53.0241 41.9591 52.7167 42.0652 52.35ZM44.949 48.3687C45.1226 48.8568 45.3057 49.3947 45.4999 49.9785H42.8626C43.0541 49.3947 43.2372 48.8568 43.4066 48.3687C43.5783 47.8789 43.756 47.4133 43.9396 46.972C43.978 46.8911 44.0165 46.7939 44.0588 46.687C44.068 46.6638 44.0773 46.6401 44.0869 46.6161C44.109 46.5391 44.1389 46.4646 44.1764 46.3936C44.1814 46.4098 44.1938 46.4419 44.2139 46.4941C44.2273 46.529 44.2442 46.5729 44.2646 46.6268C44.3155 46.7617 44.3637 46.8736 44.4092 46.972C44.5937 47.4128 44.7755 47.8807 44.949 48.3687Z" fill="#373536"/>
    <path d="M50.1062 50.2499C50.062 50.2038 50.0214 50.1542 49.9846 50.1016C49.9378 50.042 49.8946 49.9794 49.8552 49.9141C49.7336 49.7348 49.6043 49.5176 49.4607 49.26C49.3171 49.0024 49.1748 48.7314 49.0312 48.4441C48.8876 48.1568 48.7518 47.8642 48.6186 47.5729C48.4853 47.2816 48.3598 47.0105 48.2551 46.7637C48.1503 46.5169 48.0533 46.2917 47.9757 46.1096C47.9177 45.9849 47.8696 45.8554 47.8321 45.7225C47.8179 45.6901 47.8071 45.6562 47.7997 45.6214C47.7956 45.5878 47.7934 45.5541 47.7933 45.5202C47.7895 45.3678 47.8478 45.2208 47.9537 45.1156C48.0771 45.0012 48.239 44.9426 48.4038 44.9525C48.5398 44.9383 48.6748 44.9877 48.7725 45.0873C48.8406 45.167 48.8953 45.2583 48.9342 45.357C48.951 45.4043 48.9937 45.5 49.0636 45.6524C49.1334 45.8048 49.2084 45.995 49.3029 46.2188C49.3973 46.4427 49.506 46.6922 49.6263 46.9606C49.7466 47.229 49.872 47.5 49.9988 47.7576C50.1256 48.0152 50.2459 48.2661 50.361 48.5061C50.4589 48.7091 50.5696 48.905 50.6922 49.0928C50.8876 48.775 51.0656 48.4459 51.2251 48.1069C51.414 47.7104 51.5964 47.3207 51.7684 46.9363C51.9405 46.5519 52.0905 46.2053 52.2173 45.91C52.344 45.6146 52.4178 45.4285 52.4449 45.357C52.4854 45.2591 52.5399 45.1681 52.6066 45.0873C52.7047 44.9875 52.8402 44.9381 52.9766 44.9525C53.1411 44.9425 53.3026 45.0012 53.4255 45.1156C53.5314 45.2208 53.5897 45.3678 53.5859 45.5202C53.5871 45.5541 53.5849 45.588 53.5794 45.6214C53.572 45.6558 53.5621 45.6897 53.5497 45.7225L53.3996 46.1136C53.3272 46.3024 53.234 46.5182 53.1241 46.7745C53.0141 47.0307 52.8964 47.2991 52.7632 47.5837C52.6299 47.8682 52.4902 48.1663 52.3492 48.4549C52.2082 48.7435 52.0633 49.0173 51.9198 49.2776C51.7762 49.5379 51.6442 49.759 51.5239 49.9384C51.4507 50.0489 51.368 50.1523 51.2769 50.2472V53.043C51.2835 53.2064 51.2244 53.3653 51.1139 53.4813C50.8746 53.7063 50.511 53.7063 50.2717 53.4813C50.1609 53.3654 50.1013 53.2066 50.1075 53.043L50.1062 50.2499Z" fill="#373536"/>
    <path d="M45.4148 31.927C45.5094 32.8143 44.8678 33.6104 43.9816 33.7051C43.0954 33.7999 42.3002 33.1575 42.2056 32.2702L40.885 20.0886L36.1998 32.0096V32.0414V32.0668V32.0923V32.1145V32.1399C36.1186 32.2987 36.0113 32.4427 35.8823 32.5658L35.857 32.588C35.7726 32.6654 35.6787 32.7316 35.5776 32.7851L35.549 32.801H35.5205H35.5014H35.4824H35.4633H35.4443H35.4221H35.403C35.2509 32.855 35.0914 32.8851 34.9301 32.89H34.8126C34.6312 32.8835 34.452 32.847 34.2825 32.7819H34.2603H34.2381H34.2158H34.1968H34.1777H34.1492L34.1238 32.766H34.1079C34.0205 32.7162 33.9377 32.6588 33.8603 32.5944L33.8064 32.5467L33.7683 32.5086C33.7553 32.494 33.7415 32.4802 33.727 32.4673L33.6794 32.4133C33.613 32.3374 33.5555 32.2543 33.508 32.1654V32.1399V32.1113V32.0923V32.0732V32.0541V32.0319V32.0096L28.5021 20.0886L27.1784 32.2702C27.0662 33.1409 26.2796 33.7622 25.4077 33.6689C24.5358 33.5755 23.8982 32.8018 23.9724 31.927L25.5309 17.5684C25.5504 17.4003 25.5855 17.2343 25.6357 17.0726C25.6852 16.9106 25.7511 16.754 25.8325 16.6055C26.2368 15.8446 26.9824 15.3253 27.8355 15.2103H27.9244C28.0555 15.1864 28.188 15.1715 28.3212 15.1658C28.4857 15.174 28.6493 15.1964 28.81 15.2325C29.6644 15.4299 30.3657 16.0381 30.6828 16.8565L34.692 27.0105L38.6821 16.8661C38.9998 16.0468 39.7025 15.4385 40.5581 15.2421C40.7185 15.2025 40.8821 15.177 41.0469 15.1658C41.1822 15.1563 41.318 15.1563 41.4532 15.1658H41.5421C42.4063 15.2837 43.1587 15.8163 43.5578 16.5928C43.6375 16.7462 43.7024 16.9069 43.7514 17.0726C43.8018 17.2353 43.8369 17.4024 43.8562 17.5716L45.4148 31.927Z" fill="#373536"/>
</svg>
