<svg width="84" height="58" viewBox="0 0 84 58" fill="none" xmlns="http://www.w3.org/2000/svg">
    <rect x="0.5" y="0.5" width="83" height="57" rx="3.5" fill="white" stroke="#F3F3F3"/>
    <g clip-path="url(#clip0_21_1642)">
        <path d="M21.392 36.5725H24.668V26.8549H21.392V36.5725ZM25.795 20.2458H23.59V22.4916H25.795V20.2458ZM13.433 21.3366H10.276V24.1528H13.209C15.071 24.1528 16.142 25.0725 16.142 26.7979C16.142 28.5232 15.071 29.5 13.209 29.5H10.276V24.2099H7V36.5725H10.276V32.3162H13.384C17.164 32.3162 19.369 30.2486 19.369 26.6838C19.362 23.3472 17.22 21.3366 13.433 21.3366ZM28 18H21.392V24.7303H28V18ZM26.929 23.5753H22.526V19.0908H26.929V23.5753ZM46.123 21.3366H43.134V24.1528H45.955C47.817 24.1528 48.888 25.0725 48.888 26.7979C48.888 28.5232 47.817 29.5 45.955 29.5H43.134V24.2099H39.858V36.5725H43.134V32.3162H46.123C49.903 32.3162 52.108 30.2486 52.108 26.6838C52.108 23.3472 49.903 21.3366 46.123 21.3366ZM73.612 24.9014L70.791 32.1451L67.97 24.9014H64.582L69.097 36.5725L67.347 41H70.791L77 24.9014H73.612ZM58.933 24.8444C56.959 24.8444 55.433 25.3078 53.739 26.1634L54.754 28.4662C55.937 27.7746 57.127 27.4324 58.198 27.4324C59.78 27.4324 60.571 28.124 60.571 29.3859V29.6141H57.407C54.586 29.6141 53.06 30.933 53.06 33.1218C53.06 35.2464 54.53 36.7436 57.015 36.7436C58.597 36.7436 59.724 36.1662 60.627 35.1894V36.4513H63.847V28.8655C63.735 26.3915 61.985 24.8444 58.933 24.8444ZM60.858 32.6584C60.522 33.6352 59.563 34.4408 58.205 34.4408C57.078 34.4408 56.399 33.8633 56.399 32.9436C56.399 32.0239 57.022 31.6246 58.261 31.6246H60.858V32.6584ZM33.026 34.0415C31.444 34.0415 30.317 32.7796 30.317 30.876C30.317 29.0366 31.444 27.7746 33.026 27.7746C34.153 27.7746 35 28.2381 35.623 29.0366L37.828 27.4253C36.813 25.871 35.063 24.9513 32.858 24.9513C29.414 24.8943 27.041 27.3112 27.041 30.876C27.041 34.4408 29.414 36.8007 32.858 36.8007C35.231 36.8007 36.981 35.8239 37.94 34.2126L35.679 32.6584C35.112 33.5781 34.209 34.0415 33.026 34.0415Z" fill="#21C25E"/>
    </g>
    <defs>
        <clipPath id="clip0_21_1642">
            <rect width="70" height="23" fill="white" transform="translate(7 18)"/>
        </clipPath>
    </defs>
</svg>
