<svg width="84" height="58" viewBox="0 0 84 58" fill="none" xmlns="http://www.w3.org/2000/svg">
    <rect x="0.5" y="0.5" width="83" height="57" rx="3.5" fill="white" stroke="#FFFFFF"/>
    <g clip-path="url(#clip0_21_1642)">
        <path fill-rule="evenodd" clip-rule="evenodd" d="M41.2403 22.9649C40.3576 22.9651 39.5105 23.3141 38.8855 23.9363C38.2602 24.5586 37.9085 25.4033 37.9085 26.2846V39.4762C37.9085 40.0696 37.424 40.5507 36.8263 40.5507C36.2286 40.5507 35.7441 40.0696 35.7441 39.4762V26.2846C35.7441 24.8351 36.3226 23.4444 37.3532 22.4186C38.3838 21.3927 39.7822 20.8159 41.241 20.8159H41.2425L45.1557 20.8214C46.611 20.8243 48.0052 21.4018 49.0323 22.4264C50.0593 23.4509 50.6355 24.8385 50.6353 26.2846C50.6353 26.2847 50.6353 26.2846 50.6353 26.2846V29.0919C50.6353 30.5415 50.0569 31.9322 49.0264 32.9581C47.9958 33.9841 46.5974 34.5611 45.1387 34.5613H39.6084C39.0107 34.5613 38.5262 34.0802 38.5262 33.4868C38.5262 32.8934 39.0107 32.4123 39.6084 32.4123H45.1383C45.1384 32.4123 45.1383 32.4123 45.1383 32.4123C46.0213 32.4122 46.8688 32.0629 47.4939 31.4406C48.1192 30.8181 48.471 29.9733 48.471 29.0919V26.2846C48.4711 25.406 48.121 24.5636 47.4983 23.9424C46.8758 23.3215 46.0318 22.9722 45.1516 22.9703C45.1515 22.9703 45.1518 22.9703 45.1516 22.9703L41.241 22.9649C41.2407 22.9649 41.2405 22.9649 41.2403 22.9649Z" fill="#939598"/>
        <path fill-rule="evenodd" clip-rule="evenodd" d="M49.5646 21.8897C49.5646 21.2963 50.0491 20.8152 50.6467 20.8152H52.3441C53.1126 20.8152 53.849 21.1191 54.3915 21.6592C54.934 22.1991 55.2383 22.9309 55.2383 23.6933V33.5466C55.2383 34.14 54.7538 34.6211 54.1561 34.6211C53.5584 34.6211 53.0739 34.14 53.0739 33.5466V23.6933C53.0739 23.4991 52.9964 23.3133 52.8592 23.1768C52.7221 23.0404 52.5368 22.9642 52.3441 22.9642H50.6467C50.0491 22.9642 49.5646 22.4831 49.5646 21.8897Z" fill="#939598"/>
        <path d="M53.7918 20.3632L53.0222 19.5965C52.9768 19.5513 52.9408 19.4977 52.9162 19.4387C52.8917 19.3797 52.879 19.3164 52.879 19.2525C52.879 19.1887 52.8917 19.1254 52.9162 19.0664C52.9408 19.0074 52.9768 18.9537 53.0222 18.9086L53.7918 18.1426C53.8836 18.0513 54.0082 17.9999 54.138 17.9999C54.2679 17.9999 54.3924 18.0513 54.4842 18.1426L55.2531 18.9086C55.2985 18.9537 55.3345 19.0074 55.3591 19.0664C55.3837 19.1254 55.3963 19.1887 55.3963 19.2525C55.3963 19.3164 55.3837 19.3797 55.3591 19.4387C55.3345 19.4977 55.2985 19.5513 55.2531 19.5965L54.4808 20.3632C54.4354 20.4084 54.3815 20.4442 54.3221 20.4687C54.2628 20.4932 54.1992 20.5058 54.1349 20.5058C54.0707 20.5058 54.0071 20.4932 53.9478 20.4687C53.8884 20.4442 53.8345 20.4084 53.7891 20.3632" fill="#32BCAD"/>
        <path fill-rule="evenodd" clip-rule="evenodd" d="M60.6399 23.5904C60.2303 23.1832 59.6756 22.9551 59.0979 22.9554H57.4144C56.8167 22.9554 56.3322 22.4743 56.3322 21.8809C56.3322 21.2875 56.8167 20.8064 57.4144 20.8064H59.0974C60.2509 20.806 61.3567 21.2617 62.1719 22.0724L66.1098 25.9921C66.1306 26.0129 66.1552 26.0292 66.1821 26.0403C66.2089 26.0513 66.2376 26.057 66.2665 26.057C66.2955 26.057 66.3242 26.0513 66.351 26.0403C66.3779 26.0292 66.4025 26.0129 66.4233 25.9921L70.3466 22.0876C70.7501 21.686 71.2293 21.3674 71.7569 21.1501C72.2844 20.9328 72.8497 20.8211 73.4207 20.8213C73.4207 20.8213 73.4206 20.8213 73.4207 20.8213H74.7892C75.3869 20.8213 75.8714 21.3024 75.8714 21.8958C75.8714 22.4892 75.3869 22.9703 74.7892 22.9703L73.4201 22.9703C73.134 22.9701 72.8507 23.0261 72.5863 23.135C72.3219 23.2439 72.0815 23.4037 71.8788 23.6054L67.9566 27.5088C67.9565 27.5089 67.9566 27.5088 67.9566 27.5088C67.735 27.7296 67.4716 27.905 67.1817 28.0247C66.8916 28.1443 66.5807 28.206 66.2665 28.206C65.9524 28.206 65.6415 28.1443 65.3514 28.0247C65.0616 27.9051 64.7985 27.7299 64.577 27.5093C64.5769 27.5092 64.5768 27.5091 64.5767 27.509C64.5766 27.5089 64.5767 27.509 64.5767 27.509L60.6402 23.5907C60.6401 23.5906 60.64 23.5905 60.6399 23.5904Z" fill="#939598"/>
        <path fill-rule="evenodd" clip-rule="evenodd" d="M66.109 29.3499C66.1089 29.35 66.109 29.3499 66.109 29.3499L62.1718 33.2689C61.3566 34.0794 60.2508 34.5351 59.0974 34.5348C59.0973 34.5348 59.0972 34.5348 59.0971 34.5348H57.4144C56.8167 34.5348 56.3322 34.0538 56.3322 33.4603C56.3322 32.8669 56.8167 32.3859 57.4144 32.3859L59.0978 32.3859C59.6755 32.3861 60.2302 32.1579 60.6399 31.7508C60.6399 31.7508 60.6398 31.7509 60.6399 31.7508C60.64 31.7507 60.6402 31.7505 60.6403 31.7504L64.5773 27.8316C65.025 27.3864 65.6325 27.1358 66.2665 27.1358C66.9006 27.1358 67.5081 27.3864 67.9558 27.8316L71.8786 31.7363C72.288 32.1436 72.8427 32.3718 73.4203 32.3716H74.7892C75.3869 32.3716 75.8714 32.8527 75.8714 33.4461C75.8714 34.0395 75.3869 34.5206 74.7892 34.5206L73.421 34.5206C73.4209 34.5206 73.4211 34.5206 73.421 34.5206C72.2677 34.5208 71.1618 34.0651 70.3468 33.2545L66.4241 29.3499C66.424 29.3498 66.4242 29.35 66.4241 29.3499C66.3819 29.308 66.325 29.2848 66.2665 29.2848C66.208 29.2848 66.1512 29.308 66.109 29.3499Z" fill="#939598"/>
        <path d="M26.7915 35.9634C26.3763 35.9649 25.9648 35.8844 25.581 35.7267C25.1971 35.569 24.8485 35.3372 24.5552 35.0446L21.3249 31.8272C21.2106 31.7184 21.0586 31.6577 20.9005 31.6577C20.7424 31.6577 20.5904 31.7184 20.4762 31.8272L17.235 35.0534C16.9418 35.3464 16.5933 35.5787 16.2094 35.7369C15.8256 35.8951 15.4141 35.976 14.9986 35.9749H14.3662L18.4595 40.0493C19.0735 40.6591 19.9053 41.0015 20.7726 41.0015C21.6399 41.0015 22.4718 40.6591 23.0857 40.0493L27.1872 35.9661L26.7915 35.9634Z" fill="#32BCAD"/>
        <path d="M14.9993 24.593C15.4148 24.5919 15.8263 24.6728 16.2101 24.831C16.594 24.9892 16.9425 25.2215 17.2356 25.5145L20.4769 28.7415C20.5895 28.8533 20.7421 28.916 20.9012 28.916C21.0603 28.916 21.2129 28.8533 21.3256 28.7415L24.5552 25.5268C24.848 25.2333 25.1965 25.0007 25.5804 24.8424C25.9643 24.6841 26.376 24.6033 26.7915 24.6046H27.1804L23.0789 20.522C22.7751 20.2196 22.4145 19.9797 22.0177 19.816C21.6208 19.6524 21.1954 19.5681 20.7658 19.5681C20.3362 19.5681 19.9108 19.6524 19.5139 19.816C19.117 19.9797 18.7564 20.2196 18.4527 20.522L14.3662 24.593H14.9993Z" fill="#32BCAD"/>
        <path d="M30.5731 27.9823L28.0946 25.5153C28.0387 25.538 27.9789 25.55 27.9185 25.5506H26.7915C26.205 25.552 25.6429 25.7839 25.2272 26.1957L21.9975 29.4084C21.7067 29.6973 21.3125 29.8596 20.9016 29.8596C20.4906 29.8596 20.0964 29.6973 19.8056 29.4084L16.5637 26.1835C16.1481 25.7714 15.5859 25.5393 14.9993 25.5377H13.6158C13.5588 25.5364 13.5024 25.5251 13.4493 25.5044L10.9551 27.9823C10.3425 28.5934 9.99844 29.4214 9.99844 30.2847C9.99844 31.148 10.3425 31.976 10.9551 32.5871L13.4439 35.0643C13.4968 35.0432 13.5533 35.0319 13.6103 35.031H14.9993C15.5859 35.0293 16.148 34.7972 16.5637 34.3852L19.8049 31.159C20.3909 30.5763 21.4122 30.5763 21.9975 31.159L25.2272 34.373C25.6429 34.7848 26.205 35.0167 26.7915 35.0181H27.9185C27.9789 35.0185 28.0387 35.0305 28.0946 35.0534L30.5731 32.5864C30.8769 32.2841 31.1179 31.9251 31.2824 31.5301C31.4468 31.135 31.5314 30.7116 31.5314 30.284C31.5314 29.8564 31.4468 29.433 31.2824 29.0379C31.1179 28.6429 30.8769 28.2839 30.5731 27.9816" fill="#32BCAD"/>
        <path d="M40.191 38.3551C39.9862 38.364 39.7828 38.3947 39.5845 38.4467V39.2507C39.7362 39.3037 39.8959 39.3303 40.0566 39.3295C40.4619 39.3295 40.6536 39.1937 40.6536 38.8385C40.6536 38.5044 40.4967 38.3551 40.191 38.3551ZM39.4481 39.849V38.2579H39.5593L39.5709 38.3259C39.7775 38.2712 39.9892 38.2373 40.2026 38.2247C40.3505 38.2143 40.4973 38.2567 40.6167 38.3442C40.7532 38.4569 40.7996 38.6389 40.7996 38.8372C40.7996 39.0355 40.7313 39.2406 40.5403 39.3485C40.3945 39.4209 40.2331 39.4566 40.0703 39.4524C39.9056 39.4514 39.742 39.4265 39.5845 39.3784V39.8463L39.4481 39.849Z" fill="#939598"/>
        <path d="M41.8161 38.3503C41.4115 38.3503 41.2307 38.4766 41.2307 38.8317C41.2307 39.1747 41.4088 39.3295 41.8161 39.3295C42.2234 39.3295 42.3994 39.2045 42.3994 38.8501C42.3994 38.5071 42.2213 38.3503 41.8161 38.3503ZM42.3373 39.3295C42.2008 39.4259 42.0221 39.4538 41.8161 39.4538C41.61 39.4538 41.4252 39.4239 41.2935 39.3295C41.1454 39.2256 41.0847 39.0579 41.0847 38.8412C41.0847 38.6246 41.1454 38.4562 41.2935 38.3503C41.4252 38.2559 41.6059 38.226 41.8161 38.226C42.0262 38.226 42.2029 38.2559 42.3373 38.3503C42.4874 38.4562 42.5454 38.6287 42.5454 38.8385C42.5454 39.0484 42.4853 39.2256 42.3373 39.3295Z" fill="#939598"/>
        <path d="M44.2543 39.4212L43.8027 38.4562H43.7938L43.349 39.4212H43.2242L42.7466 38.2579H42.8967L43.2972 39.2344H43.3067L43.742 38.2579H43.8668L44.313 39.2344H44.3226L44.7135 38.2579H44.8615L44.3799 39.4212H44.2543Z" fill="#939598"/>
        <path d="M45.7313 38.3476C45.3561 38.3476 45.2292 38.514 45.206 38.755H46.2567C46.2451 38.4902 46.1086 38.3476 45.7313 38.3476ZM45.7266 39.4538C45.5021 39.4538 45.3561 39.4212 45.2401 39.3248C45.1037 39.2073 45.058 39.0368 45.058 38.8413C45.058 38.6457 45.1201 38.4562 45.2756 38.3435C45.4117 38.2583 45.5709 38.2173 45.7313 38.226C45.8949 38.2162 46.0577 38.2555 46.1987 38.3388C46.3672 38.4515 46.3999 38.6498 46.3999 38.8752H45.2026C45.2074 39.1149 45.2859 39.3268 45.7395 39.3268C45.9424 39.3215 46.1444 39.2988 46.3433 39.2589V39.3811C46.1411 39.4225 45.9356 39.4464 45.7293 39.4524" fill="#939598"/>
        <path d="M46.7922 39.4212V38.2579H46.9027L46.9143 38.3259C47.162 38.2634 47.2779 38.2247 47.4956 38.2247H47.5119V38.3537H47.4792C47.2964 38.3537 47.1851 38.3788 46.9286 38.4454V39.4198L46.7922 39.4212Z" fill="#939598"/>
        <path d="M48.3047 38.3476C47.9301 38.3476 47.8026 38.514 47.7794 38.755H48.83C48.8184 38.4902 48.6819 38.3476 48.3047 38.3476ZM48.2999 39.4538C48.0755 39.4538 47.9301 39.4212 47.8142 39.3248C47.6777 39.2073 47.6313 39.0368 47.6313 38.8413C47.6313 38.6457 47.6941 38.4562 47.849 38.3435C47.9851 38.2585 48.1442 38.2175 48.3047 38.226C48.4683 38.2162 48.6311 38.2555 48.772 38.3388C48.9412 38.4515 48.9767 38.6498 48.9767 38.8752H47.7746C47.7794 39.1149 47.8578 39.3268 48.3115 39.3268C48.5146 39.3215 48.7168 39.2988 48.9159 39.2589V39.3811C48.7137 39.4225 48.5083 39.4463 48.3019 39.4524" fill="#939598"/>
        <path d="M50.4694 38.4284C50.3176 38.3757 50.158 38.3493 49.9973 38.3503C49.592 38.3503 49.4003 38.4861 49.4003 38.8412C49.4003 39.1774 49.5579 39.3247 49.8629 39.3247C50.0676 39.3153 50.2708 39.285 50.4694 39.2344V38.4284ZM50.4953 39.4212L50.483 39.3533C50.2765 39.4085 50.0648 39.4427 49.8513 39.4551C49.7032 39.4662 49.5561 39.4235 49.4372 39.3349C49.3007 39.2222 49.2543 39.0402 49.2543 38.8426C49.2543 38.6348 49.3226 38.4392 49.5136 38.3333C49.6596 38.2592 49.8219 38.2228 49.9857 38.2274C50.1495 38.2296 50.3123 38.2543 50.4694 38.3007V37.7676H50.6058V39.4212H50.4953Z" fill="#939598"/>
        <path d="M52.6081 38.355C52.4033 38.364 52.1999 38.3947 52.0016 38.4467V39.2487C52.153 39.3031 52.3128 39.3305 52.4737 39.3295C52.879 39.3295 53.0707 39.1937 53.0707 38.8385C53.0707 38.5044 52.9138 38.355 52.6081 38.355ZM52.9574 39.3499C52.8119 39.4222 52.6507 39.4579 52.4881 39.4538C52.31 39.4527 52.1334 39.4231 51.9648 39.3662L51.958 39.4212H51.8652V37.7676H52.0016V38.3224C52.2041 38.2709 52.4111 38.2386 52.6197 38.226C52.7676 38.2157 52.9144 38.258 53.0338 38.3455C53.1703 38.4582 53.2167 38.6402 53.2167 38.8385C53.2167 39.0368 53.1484 39.2419 52.9574 39.3499Z" fill="#939598"/>
        <path d="M53.3981 39.866V39.7397C53.4664 39.7465 53.5278 39.7512 53.5714 39.7512C53.7406 39.7512 53.8443 39.7023 53.9371 39.5115L53.9814 39.4192L53.3674 38.2559H53.5257L54.049 39.2603H54.0578L54.5552 38.2559H54.7107L54.0531 39.5624C53.933 39.7994 53.8034 39.8775 53.5646 39.8775C53.5082 39.8772 53.452 39.8734 53.3961 39.866" fill="#939598"/>
        <path d="M56.5957 38.7577H56.1427V39.1652H56.5957C56.9082 39.1652 57.0262 39.1305 57.0262 38.9614C57.0262 38.7794 56.8638 38.7577 56.593 38.7577M56.5111 38.1004H56.1414V38.5146H56.5139C56.8215 38.5146 56.9443 38.4779 56.9443 38.3055C56.9443 38.1207 56.7888 38.1017 56.5111 38.1017M57.2152 39.3159C57.048 39.4218 56.8468 39.4259 56.4791 39.4259H55.7866V37.8437H56.4627C56.7799 37.8437 56.9744 37.8478 57.136 37.9449C57.1898 37.9768 57.2335 38.023 57.2622 38.0783C57.2909 38.1336 57.3034 38.1959 57.2984 38.2579C57.2984 38.4236 57.2302 38.5343 57.048 38.6083V38.6171C57.2527 38.6633 57.3837 38.7672 57.3837 38.9906C57.3888 39.0544 57.3757 39.1184 57.3459 39.1751C57.3161 39.2318 57.2708 39.279 57.2152 39.3112" fill="#939598"/>
        <path d="M58.7679 38.9329C58.6315 38.9214 58.495 38.9146 58.347 38.9146C58.1089 38.9146 58.025 38.9628 58.025 39.0714C58.025 39.1801 58.0932 39.2276 58.2774 39.2276C58.4428 39.2222 58.6073 39.1994 58.7679 39.1597V38.9329ZM58.8361 39.4212L58.8273 39.3533C58.6204 39.4113 58.4075 39.4455 58.1928 39.4551C58.0687 39.4634 57.9451 39.4336 57.8387 39.3695C57.793 39.3313 57.7575 39.2824 57.7354 39.2272C57.7133 39.172 57.7052 39.1122 57.712 39.0532C57.7187 38.9942 57.7401 38.9377 57.7741 38.8889C57.8081 38.84 57.8538 38.8003 57.9069 38.7733C58.0297 38.7156 58.1942 38.7109 58.3449 38.7109C58.467 38.7109 58.6315 38.7176 58.7679 38.7272V38.7061C58.7679 38.5241 58.6478 38.4643 58.319 38.4643C58.1921 38.4643 58.0366 38.4711 57.8885 38.4847V38.2498C58.0529 38.2362 58.2385 38.2274 58.3913 38.2274C58.596 38.2274 58.8054 38.243 58.9371 38.3353C59.0688 38.4277 59.0967 38.5615 59.0967 38.7339V39.4225L58.8361 39.4212Z" fill="#939598"/>
        <path d="M60.6208 39.4212V38.7794C60.6208 38.5676 60.5123 38.4915 60.3179 38.4915C60.1565 38.4986 59.9964 38.5232 59.8404 38.5649V39.4218H59.5143V38.2579H59.7803L59.7919 38.3319C59.9953 38.2723 60.2051 38.2368 60.4168 38.226C60.5606 38.2146 60.7035 38.2572 60.8173 38.3455C60.9094 38.4284 60.9442 38.5438 60.9442 38.7095V39.4212H60.6208Z" fill="#939598"/>
        <path d="M61.8666 39.4538C61.7158 39.4538 61.5514 39.4327 61.4313 39.3315C61.288 39.2161 61.2464 39.0348 61.2464 38.8385C61.2464 38.6545 61.3064 38.4535 61.4845 38.3408C61.6305 38.2464 61.8106 38.226 61.9982 38.226C62.1347 38.226 62.2643 38.2348 62.4076 38.2484V38.4976C62.2895 38.4861 62.1483 38.4773 62.0351 38.4773C61.7247 38.4773 61.5787 38.5737 61.5787 38.8412C61.5787 39.0918 61.6878 39.2005 61.9423 39.2005C62.1072 39.1951 62.2714 39.1751 62.4328 39.1407V39.3797C62.2461 39.423 62.0555 39.4478 61.8638 39.4538" fill="#939598"/>
        <path d="M63.3995 38.4698C63.0891 38.4698 62.9527 38.5669 62.9527 38.8317C62.9527 39.0966 63.0891 39.2093 63.3995 39.2093C63.7099 39.2093 63.8416 39.1149 63.8416 38.8501C63.8416 38.5852 63.7099 38.4698 63.3995 38.4698ZM63.9596 39.3315C63.8163 39.428 63.6287 39.4538 63.3995 39.4538C63.1703 39.4538 62.9786 39.4259 62.8374 39.3315C62.675 39.2256 62.617 39.0504 62.617 38.8412C62.617 38.6321 62.675 38.4535 62.8374 38.3476C62.9786 38.2532 63.1655 38.226 63.3995 38.226C63.6335 38.226 63.8163 38.2532 63.9596 38.3476C64.1213 38.4535 64.1772 38.6314 64.1772 38.8385C64.1772 39.0456 64.1193 39.2256 63.9596 39.3315Z" fill="#939598"/>
        <path d="M66.0608 39.4538C65.8644 39.4538 65.6515 39.4212 65.4919 39.2901C65.3022 39.1332 65.2442 38.8915 65.2442 38.6314C65.2442 38.3985 65.3186 38.1221 65.5656 37.9612C65.7579 37.8369 65.996 37.8111 66.2369 37.8111C66.4129 37.8111 66.5937 37.8226 66.7901 37.8389V38.1221C66.6216 38.1085 66.4129 38.097 66.2512 38.097C65.7996 38.097 65.6079 38.2674 65.6079 38.6314C65.6079 38.9954 65.7859 39.1679 66.1188 39.1679C66.3568 39.1597 66.5933 39.1281 66.8249 39.0735V39.3546C66.5741 39.4123 66.3182 39.4455 66.0608 39.4538Z" fill="#939598"/>
        <path d="M67.7841 38.4332C67.5113 38.4332 67.4089 38.5303 67.3878 38.7048H68.1751C68.1655 38.516 68.0543 38.4332 67.7841 38.4332ZM67.735 39.4518C67.5433 39.4518 67.3694 39.4287 67.2397 39.3227C67.1101 39.2168 67.0521 39.0348 67.0521 38.8365C67.0521 38.6593 67.1101 38.461 67.2725 38.3456C67.4157 38.2444 67.5986 38.224 67.7841 38.224C67.9506 38.224 68.1471 38.2423 68.2904 38.3415C68.478 38.4725 68.495 38.6756 68.495 38.9146H67.3857C67.3925 39.0925 67.4874 39.2073 67.8162 39.2073C68.025 39.2027 68.2332 39.1828 68.4391 39.1475V39.3757C68.2068 39.4196 67.9714 39.445 67.735 39.4518Z" fill="#939598"/>
        <path d="M69.9481 39.4212V38.7794C69.9481 38.5676 69.8397 38.4915 69.6452 38.4915C69.4839 38.4986 69.3237 38.5232 69.1677 38.5649V39.4218H68.8416V38.2579H69.1077L69.1192 38.3319C69.3227 38.2723 69.5324 38.2368 69.7442 38.226C69.888 38.2146 70.0309 38.2572 70.1446 38.3455C70.2367 38.4284 70.2715 38.5438 70.2715 38.7095V39.4212H69.9481Z" fill="#939598"/>
        <path d="M71.2014 39.4538C71.0438 39.4538 70.9005 39.4097 70.8221 39.2874C70.7578 39.1817 70.7278 39.0589 70.7361 38.9357V38.4997H70.5001V38.258H70.7361L70.7709 37.9055H71.0588V38.258H71.5193V38.4997H71.0588V38.8732C71.0545 38.9484 71.0654 39.0237 71.0909 39.0946C71.1257 39.1727 71.2021 39.2025 71.3044 39.2025C71.3827 39.2011 71.4607 39.1934 71.5377 39.1794V39.4124C71.4267 39.4363 71.3136 39.4502 71.2 39.4538" fill="#939598"/>
        <path d="M71.8393 39.4212V38.2579H72.1053L72.1169 38.3319C72.3036 38.2689 72.4985 38.2332 72.6955 38.226C72.7093 38.2252 72.7232 38.2252 72.7371 38.226V38.5078C72.7002 38.5078 72.6559 38.5078 72.6238 38.5078C72.4691 38.5084 72.315 38.5285 72.1654 38.5676V39.4266L71.8393 39.4212Z" fill="#939598"/>
        <path d="M73.9241 38.9329C73.7877 38.9214 73.6513 38.9146 73.5025 38.9146C73.2644 38.9146 73.1812 38.9628 73.1812 39.0714C73.1812 39.1801 73.2494 39.2276 73.4329 39.2276C73.5986 39.2222 73.7633 39.1995 73.9241 39.1597V38.9329ZM73.9924 39.4212L73.9828 39.3533C73.7759 39.4113 73.5631 39.4455 73.3483 39.4551C73.2243 39.4634 73.1007 39.4336 72.9943 39.3695C72.9513 39.3368 72.917 39.294 72.8944 39.245C72.8718 39.196 72.8616 39.1422 72.8646 39.0884C72.8615 39.0222 72.8787 38.9566 72.9139 38.9003C72.9491 38.844 73.0007 38.7997 73.0618 38.7733C73.1846 38.7156 73.3483 38.7109 73.4991 38.7109C73.6219 38.7109 73.7863 38.7176 73.9228 38.7272V38.7061C73.9228 38.5241 73.802 38.4643 73.4739 38.4643C73.3463 38.4643 73.1914 38.4711 73.0434 38.4847V38.2498C73.2078 38.2362 73.3927 38.2274 73.5455 38.2274C73.7502 38.2274 73.9596 38.243 74.0913 38.3353C74.223 38.4277 74.2509 38.5615 74.2509 38.7339V39.4225L73.9924 39.4212Z" fill="#939598"/>
        <path d="M74.6691 37.7676H74.9959V39.4212H74.6691V37.7676Z" fill="#FFFFFF"/>
    </g>
    <defs>
        <clipPath id="clip0_21_1642">
            <rect width="65" height="23" fill="white" transform="translate(10 18)"/>
        </clipPath>
    </defs>
</svg>
