<svg width="12" height="12" viewBox="0 0 12 12" fill="none" xmlns="http://www.w3.org/2000/svg" alt=""><path d="M5.9999 0C2.69159 0 0 2.69159 0 6C0 9.30831 2.69159 11.9999 5.9999 11.9999C9.30841 11.9999 12 9.30831 12 6C12 2.69159 9.30841 0 5.9999 0ZM7.51574 8.50725C7.22289 8.74075 6.8325 8.87776 6.36023 8.9251V9.54776C6.36023 9.65731 6.27127 9.74606 6.16175 9.74606H5.83821C5.72867 9.74606 5.63972 9.65731 5.63972 9.54776V8.92333C5.48211 8.90486 5.32899 8.87751 5.18531 8.83407C4.92933 8.75698 4.70445 8.63735 4.51606 8.47829C4.32616 8.31828 4.17583 8.11727 4.0698 7.88152C3.96492 7.6473 3.9117 7.37116 3.9117 7.06082C3.9117 6.95089 4.00065 6.86195 4.11058 6.86195H4.58676C4.69008 6.86195 4.7763 6.94137 4.78485 7.04448C4.80155 7.24764 4.8466 7.4199 4.91809 7.55642C4.98798 7.69081 5.07849 7.80072 5.18684 7.88346C5.29755 7.96813 5.42844 8.03065 5.57488 8.06932C5.90967 8.15787 6.33963 8.14933 6.61347 8.05532C6.75446 8.00697 6.86865 7.94249 6.95332 7.86384C7.038 7.78518 7.09819 7.6972 7.1382 7.59468C7.17939 7.48844 7.20034 7.37425 7.20034 7.2556C7.20034 7.0979 7.16694 6.97245 7.10131 6.88255C7.02829 6.78232 6.9304 6.69862 6.8104 6.63376C6.67871 6.56249 6.52452 6.50421 6.35167 6.46052C6.16292 6.41275 5.96988 6.36615 5.77178 6.3209C5.5671 6.2741 5.36474 6.21777 5.16977 6.15368C4.96157 6.08532 4.77357 5.99113 4.61084 5.87346C4.44112 5.75129 4.30167 5.59224 4.19602 5.40076C4.08883 5.20655 4.03445 4.96207 4.03445 4.67386C4.03445 4.46877 4.07796 4.267 4.16339 4.07417C4.24924 3.88015 4.37782 3.70673 4.5452 3.55853C4.71027 3.41232 4.91809 3.29502 5.16315 3.20974C5.30642 3.15976 5.47021 3.12925 5.63972 3.10899V2.45217C5.63972 2.34265 5.72867 2.25389 5.83821 2.25389H6.16175C6.27127 2.25389 6.36023 2.34265 6.36023 2.45217V3.11206C6.52853 3.13388 6.69043 3.16614 6.83059 3.21851C7.0745 3.30958 7.28115 3.43736 7.44465 3.59815C7.60818 3.75896 7.73323 3.94891 7.81559 4.16252C7.896 4.37149 7.93678 4.59695 7.93678 4.83252C7.93678 4.94245 7.84783 5.03137 7.73791 5.03137H7.26948C7.15957 5.03137 7.07061 4.94245 7.07061 4.83252C7.07061 4.66668 7.04188 4.52356 6.98555 4.4074C6.92964 4.29069 6.85544 4.19864 6.75951 4.12522C6.65968 4.04969 6.54355 3.99279 6.41498 3.95666C6.06931 3.85995 5.67701 3.89103 5.43737 3.9891C5.29482 4.04717 5.18219 4.12135 5.1014 4.20951C5.02061 4.29807 4.96663 4.39245 4.93632 4.49772C4.90604 4.60414 4.90059 4.70689 4.91962 4.81135C4.94137 4.93973 4.98838 5.03567 5.06295 5.10713C5.15074 5.19083 5.26182 5.26132 5.39232 5.31628C5.53487 5.3765 5.6945 5.42619 5.86617 5.46407C6.05221 5.50524 6.24216 5.54855 6.4352 5.59457C6.63482 5.64216 6.82943 5.69866 7.01353 5.76257C7.21239 5.8313 7.39223 5.92608 7.54798 6.04417C7.7115 6.16826 7.84354 6.32827 7.94065 6.52034C8.03854 6.71318 8.08825 6.95341 8.08825 7.23404C8.08825 7.77605 7.8956 8.20447 7.51574 8.50725Z" fill="#9195AA"></path></svg>